<svg width="14" height="13" viewBox="0 0 14 13" fill="none" xmlns="http://www.w3.org/2000/svg">
<path d="M6.64659 8.98709L5.89136 6.11539L4.23567 8.08081L3.59663 5.60219L7.94403 0.4375C2.88013 0.4375 1.10825 3.14541 1.59237 5.40565L2.55093 9.65315C3.05441 11.6513 1.2438 12.6886 0.75 12.9288C1.70856 12.9616 2.4541 12.907 3.12219 12.6668C4.40027 12.2628 5.24264 11.2692 6.64659 8.98709Z" fill="#FF5300"/>
<g opacity="0.8">
<path opacity="0.8" d="M11.4492 3.72411C10.9457 1.72593 12.7563 0.688627 13.2501 0.448408C12.2915 0.415651 11.546 0.470247 10.8779 0.710465C9.59015 1.11447 8.74778 2.1081 7.34383 4.39017L8.09906 7.26187L9.75475 5.29645L10.3938 7.77507L6.04639 12.9288C11.1103 12.9288 12.8822 10.2209 12.398 7.96069L11.4492 3.72411Z" fill="#FF5300"/>
</g>
</svg>
