<svg width="251" height="57" viewBox="0 0 251 57" fill="none" xmlns="http://www.w3.org/2000/svg">
<path d="M187.309 20.7527H185.624V22.4379C185.624 22.8712 185.816 23.4009 186.683 23.4009H188.368V21.7157C188.368 21.3305 188.224 20.7527 187.309 20.7527Z" fill="#8A9BB7"/>
<path d="M187.163 26.1931H185.815V40.1059C185.815 40.6836 186.201 41.0688 186.73 41.1169V41.165H188.271V27.2041C188.222 26.5782 187.886 26.1931 187.163 26.1931Z" fill="#8A9BB7"/>
<path d="M105.614 37.0726C105.036 36.4949 104.314 36.6393 103.881 37.0244C102.1 38.5168 100.463 39.0945 98.3448 39.0945C94.1084 39.0945 90.7385 35.532 90.7385 30.9586C90.7385 26.3852 94.0121 22.8709 98.3448 22.8709C100.415 22.8709 102.148 23.4967 103.785 24.8928C104.17 25.2298 104.844 25.3742 105.325 24.8447C105.759 24.4114 106.192 23.93 106.192 23.93L106.288 23.8337L106.192 23.7374C104.459 22.0525 102.292 20.512 98.3448 20.512C92.616 20.512 88.187 25.1335 88.187 31.0068C88.187 36.9281 92.5197 41.4053 98.2967 41.4053C101.522 41.4053 103.881 40.3462 106.288 37.8428L106.336 37.7465L106.288 37.6503C106.288 37.7465 106.144 37.554 105.614 37.0726Z" fill="#8A9BB7"/>
<path d="M142.201 25.8563C140.082 25.8563 138.397 26.771 137.098 28.6003C136.52 27.445 135.172 25.76 132.38 25.76C129.973 25.76 128.673 27.0117 127.71 28.2634V27.2042C127.71 26.4821 127.277 26.0489 126.603 26.0489H125.255V41.0208H126.603C127.277 41.0208 127.662 40.8282 127.662 40.0098V32.5479C127.662 29.9483 129.347 28.0227 131.61 28.0227C133.92 28.0227 135.268 29.6113 135.268 32.3072V40.0098C135.268 40.7319 135.653 41.0689 136.327 41.0689H137.675V32.4998C137.675 29.4187 139.649 28.0708 141.623 28.0708C143.982 28.0708 145.33 29.6595 145.33 32.3554V39.8654C145.33 40.4912 145.474 41.0689 146.437 41.0689H147.737V31.874C147.785 28.1671 145.667 25.8563 142.201 25.8563Z" fill="#8A9BB7"/>
<path d="M159.578 25.9038C157.363 25.9038 155.534 26.8666 154.041 28.9367V27.3962C154.041 26.6259 153.608 26.2408 152.838 26.2408H151.634V44.6308C151.634 45.3529 151.971 45.6899 152.693 45.6899H154.041V38.565C155.534 40.4906 157.315 41.4534 159.578 41.4534C163.044 41.4534 166.702 38.7094 166.702 33.6545C166.702 28.5997 163.044 25.9038 159.578 25.9038ZM164.199 33.6545C164.199 36.9282 162.129 39.1908 159.144 39.1908C156.593 39.1908 153.945 37.0726 153.945 33.6064C153.945 30.1402 156.593 28.022 159.144 28.022C161.648 28.0702 164.199 29.9958 164.199 33.6545Z" fill="#8A9BB7"/>
<path d="M204.109 27.2524V28.5041C203.098 27.2042 201.317 25.76 198.476 25.76C196.695 25.76 194.914 26.434 193.614 27.6375C192.218 28.9373 191.448 30.8148 191.448 32.8368C191.448 37.4102 195.058 39.8654 198.476 39.8654C200.691 39.8654 202.568 38.9507 204.157 37.0251V38.4693C204.157 41.7429 202.231 43.6204 198.958 43.6204C197.369 43.6204 195.829 43.2353 194.384 42.4169C193.999 42.1762 193.71 42.0799 193.47 42.0799C193.181 42.0799 192.892 42.2243 192.699 42.5613C192.314 43.1871 192.17 43.476 192.17 43.476L192.122 43.5723L192.218 43.6204C194.192 45.0165 196.454 45.6905 198.958 45.6905C203.772 45.6905 206.564 43.0427 206.564 38.4212V26.1451H205.216C204.783 26.1451 204.109 26.5303 204.109 27.2524ZM204.253 32.9812C204.253 36.0622 201.557 37.8916 198.958 37.8916C196.117 37.8916 193.999 35.7734 193.999 32.9812C193.999 30.1409 196.117 28.1189 198.958 28.1189C201.509 28.0708 204.253 29.7557 204.253 32.9812Z" fill="#8A9BB7"/>
<path d="M217.926 25.9038C215.808 25.9038 214.171 26.7704 213.016 28.5034V27.2518C213.016 26.5296 212.438 26.2408 211.86 26.2408H210.512V41.2127H212.967L212.919 32.6436C212.919 29.9958 214.7 28.1664 217.252 28.1664C219.755 28.1664 221.2 29.7551 221.2 32.4992V40.2018C221.2 40.9239 221.537 41.2127 222.162 41.2127H223.607V31.8733C223.655 28.2146 221.44 25.9038 217.926 25.9038Z" fill="#8A9BB7"/>
<path d="M175.755 25.9524C173.877 25.9524 172.192 26.3375 170.363 27.1559L170.266 27.2041L170.315 27.3003C170.315 27.3003 170.555 27.9743 170.748 28.4557C170.94 28.9371 171.518 28.9853 171.951 28.7927C173.203 28.3113 174.31 28.0706 175.562 28.0706C178.306 28.0706 179.798 29.4667 179.798 31.9701V35.5806C179.798 37.8433 177.776 39.4319 174.984 39.4319C173.251 39.4319 171.374 38.5654 171.374 36.6398C171.374 34.8104 172.866 33.7994 175.562 33.7994H176.765C177.488 33.7994 177.825 33.4624 177.825 32.7885V31.9701H175.321C171.229 31.9701 168.918 33.7031 168.918 36.6879C168.918 38.9505 170.652 41.4539 174.551 41.4539C176.669 41.4539 178.45 40.6355 179.75 39.095V40.1059C179.75 40.7799 180.087 41.0688 180.809 41.0688H182.157V31.9219C182.109 28.1188 179.847 25.9524 175.755 25.9524Z" fill="#8A9BB7"/>
<path d="M115.142 25.9524C112.832 25.9524 111.195 26.5301 109.751 27.1559L109.654 27.2522L109.702 27.3485C109.702 27.3485 109.943 28.0225 110.136 28.5039C110.328 28.9853 110.906 29.0334 111.339 28.8409C112.591 28.3595 113.698 28.1187 114.95 28.1187C117.694 28.1187 119.234 29.5148 119.234 32.0182V35.5806C119.234 37.8433 117.212 39.4319 114.42 39.4319C112.687 39.4319 110.858 38.5654 110.858 36.6398C110.858 34.8104 112.35 33.7994 114.998 33.7994H116.202C116.924 33.7994 117.261 33.4624 117.261 32.7885V31.9701H114.805C110.713 31.9701 108.354 33.7031 108.354 36.6879C108.354 38.9505 110.088 41.4539 113.939 41.4539C116.057 41.4539 117.838 40.6355 119.186 39.095V40.1059C119.186 40.7799 119.523 41.0688 120.197 41.0688H121.545V31.9219C121.497 28.1188 119.234 25.9524 115.142 25.9524Z" fill="#8A9BB7"/>
<path d="M248.399 31.5352C248.062 31.2464 234.342 21.6663 233.716 21.2811L233.523 21.1367V23.4956C233.523 24.2659 233.909 24.5066 234.39 24.8917L234.486 24.9399C235.16 25.4213 244.933 32.2092 246.233 33.1239C244.933 34.0386 235.016 40.9228 234.39 41.3079C233.62 41.7893 233.572 42.1263 233.572 42.8003V45.0629C233.572 45.0629 248.158 34.9051 248.447 34.6644C249.121 34.183 249.266 33.5572 249.266 33.172V32.8832C249.266 32.4018 248.977 31.9204 248.399 31.5352Z" fill="#8A9BB7"/>
<path d="M239.83 34.1841C240.215 34.1841 240.6 34.0397 240.985 33.7508C241.467 33.4138 241.9 33.1249 241.9 33.1249L242.044 33.0286L241.9 32.9323C241.852 32.8841 235.448 28.4544 234.774 28.0211C234.485 27.7804 234.1 27.7322 233.859 27.8767C233.618 28.0211 233.426 28.2618 233.426 28.647V30.1396L233.474 30.1878C233.522 30.2359 237.904 33.2693 238.77 33.8471C239.155 34.0878 239.493 34.1841 239.83 34.1841Z" fill="#8A9BB7"/>
<path d="M35.6615 37.697C35.132 37.1675 34.458 37.5045 34.1691 37.7452C33.0619 38.7561 31.8102 39.2376 30.4623 39.2376C27.5256 39.2376 25.2149 36.7824 25.2149 33.605C25.2149 30.4759 27.4775 28.0207 30.3178 28.0207C31.9546 28.0207 33.0137 28.7428 33.8803 29.4167C34.5061 29.9463 35.0357 29.9944 35.469 29.513C35.8541 29.1279 36.2874 28.6465 36.2874 28.6465L36.3836 28.5502L36.2874 28.4539C34.6024 26.6246 32.7249 25.8062 30.3178 25.8062C26.0333 25.8062 22.6152 29.2242 22.6152 33.605C22.6152 37.8896 26.0814 41.4039 30.3178 41.4039C33.447 41.4039 35.2282 39.8153 36.3836 38.4673H36.4799L36.3836 38.371C36.3836 38.371 36.1429 38.1785 35.6615 37.697Z" fill="#8A9BB7"/>
<path d="M51.6457 20.7527H49.9604V22.4379C49.9604 22.8712 50.153 23.4009 51.0197 23.4009H52.7049V21.9083C52.7531 21.2342 52.3197 20.7527 51.6457 20.7527Z" fill="#8A9BB7"/>
<path d="M51.4542 26.1931H50.0581V40.1059C50.0581 40.6836 50.4432 41.0688 50.9728 41.1169V41.165H52.5133V27.2041C52.5615 26.5782 52.1763 26.1931 51.4542 26.1931Z" fill="#8A9BB7"/>
<path d="M67.2916 27.0104C67.099 27.5399 63.4403 36.3979 62.7181 38.0347C62.0442 36.3498 58.3854 27.4918 58.1929 27.0104C57.9522 26.4327 57.4707 26.0957 56.8449 26.0957H55.1118L55.2081 26.2401C55.2562 26.4327 61.0813 39.8641 61.322 40.3937C61.5627 41.0195 61.9479 41.1639 62.5737 41.1639H62.8626C63.4403 41.1639 63.8254 40.9232 64.0661 40.3937C64.3068 39.8641 70.1319 26.529 70.18 26.3846L70.2763 26.192H68.5914C67.9655 26.192 67.5323 26.4327 67.2916 27.0104Z" fill="#8A9BB7"/>
<path d="M82.3595 32.7876H76.6307C76.0048 32.7876 75.6197 33.1727 75.6197 33.7985V34.7614H75.7641C78.5082 34.7132 81.6855 34.7132 82.9853 34.7132C83.7556 34.7132 84.3333 34.5207 84.7666 34.0874C85.1517 33.6541 85.3443 32.9801 85.2961 32.2099C84.8628 28.3586 82.1188 25.8552 78.3638 25.8552C74.2718 25.8552 71.1426 29.2251 71.1426 33.6541C71.1426 38.1312 74.368 41.453 78.6526 41.453C81.156 41.453 83.0335 40.5865 84.8147 38.6608L84.911 38.5645L84.8147 38.4682C84.8147 38.4682 84.4777 38.1794 84.0926 37.8424C83.5149 37.361 82.9853 37.5535 82.6965 37.8424C81.6374 38.8052 80.3376 39.2866 78.7489 39.2866C76.0048 39.2866 73.9829 37.3128 73.6459 34.3762C73.6459 34.3762 73.5978 34.0392 73.5978 33.606C73.5978 33.1246 73.6459 32.7876 73.6459 32.7876C73.9348 29.8991 75.8604 27.8772 78.3156 27.8772C80.7708 27.8772 82.5521 29.514 82.7928 32.0173C82.8409 32.258 82.7928 32.4506 82.7446 32.5469C82.6002 32.7394 82.5039 32.7876 82.3595 32.7876Z" fill="#8A9BB7"/>
<path d="M13.1328 21.5142C12.8439 20.9365 12.507 20.7439 11.8811 20.7439H11.3034C10.822 20.7439 10.3887 21.0327 10.148 21.466C9.95546 21.8993 1.4826 40.7707 1.38632 40.9632L1.29004 41.1558H2.8787C3.55268 41.1558 3.98595 40.8669 4.32294 40.193C4.61178 39.6153 6.00788 36.4379 6.24859 35.9084H12.4588C13.2291 35.9084 13.7105 35.427 13.7105 34.7049V33.6458H7.21141L11.5923 23.8249C12.507 25.8469 18.6209 39.8078 18.9097 40.3855C19.2949 41.1558 20.2096 41.1558 20.4984 41.1558H21.9426L21.8464 40.9632C21.8464 40.7707 13.4216 22.14 13.1328 21.5142Z" fill="#8A9BB7"/>
<path d="M46.4945 38.9991C46.2538 38.8547 45.9168 38.8066 45.5798 38.9029C45.0503 39.0473 44.6652 39.1436 44.1838 39.1436C42.6432 39.1436 41.8248 38.3733 41.8248 36.7847V28.3599H46.4945V27.349C46.4945 26.5787 45.8206 26.1936 45.2429 26.1936H41.7767V21.9571C41.7767 21.2832 41.2953 20.8018 40.5732 20.8018H39.3696V37.1216C39.3696 39.8657 40.862 41.4062 43.6542 41.4062C44.7133 41.4062 45.9168 41.1655 46.6871 40.7804L46.7352 40.7322V40.6841C46.7352 40.6841 46.7834 40.2508 46.7834 39.7213C46.8315 39.3361 46.639 39.1436 46.4945 38.9991Z" fill="#8A9BB7"/>
</svg>
