<svg width="14" height="14" viewBox="0 0 14 14" fill="none" xmlns="http://www.w3.org/2000/svg">
<path d="M9.34375 12.2083C8.04948 12.2083 7 11.1589 7 9.86459C7 8.57032 8.04948 7.52084 9.34375 7.52084C10.6385 7.52084 11.6875 8.57032 11.6875 9.86459C11.6875 11.1589 10.6385 12.2083 9.34375 12.2083Z" stroke="#536685" stroke-width="0.9375" stroke-linecap="round" stroke-linejoin="round"/>
<path d="M10.1251 5.95833V4.82708C10.1251 4.55104 10.0152 4.28594 9.81989 4.09062L8.34698 2.61771C8.15166 2.4224 7.88656 2.3125 7.61052 2.3125H3.8751C3.29958 2.3125 2.83344 2.77865 2.83344 3.35417V10.6458C2.83344 11.2214 3.29958 11.6875 3.8751 11.6875H5.95843" stroke="#536685" stroke-width="0.9375" stroke-linecap="round" stroke-linejoin="round"/>
<path d="M10.1251 4.91667H8.04177C7.75427 4.91667 7.52094 4.68333 7.52094 4.39583V2.3125" stroke="#536685" stroke-width="0.9375" stroke-linecap="round" stroke-linejoin="round"/>
<path d="M10.2068 9.43333L9.12759 10.5125L8.48071 9.86458" stroke="#536685" stroke-width="0.9375" stroke-linecap="round" stroke-linejoin="round"/>
</svg>
