<svg width="88" height="56" viewBox="0 0 88 56" fill="none" xmlns="http://www.w3.org/2000/svg">
<path d="M36.7381 23.4826H33.1078V36.9624H36.7381V23.4826Z" fill="#8A9BB7"/>
<path d="M32.2229 32.7356V36.8719C31.2377 37.1943 30.1901 37.2788 29.166 37.1184C28.1419 36.958 27.1703 36.5573 26.3308 35.9492C25.4913 35.341 24.8078 34.5427 24.3363 33.6195C23.8647 32.6964 23.6185 31.6747 23.6177 30.6381V23.4826H27.248V30.6381C27.2499 31.2135 27.4209 31.7757 27.7399 32.2547C28.0589 32.7337 28.5116 33.1083 29.0419 33.3318C29.5721 33.5554 30.1564 33.6181 30.7221 33.5121C31.2877 33.406 31.8096 33.136 32.2229 32.7356Z" fill="#8A9BB7"/>
<path d="M73.9676 23.2357V26.866C72.237 26.8679 70.5779 27.5562 69.3543 28.7799C68.1306 30.0035 67.4423 31.6626 67.4404 33.3932V36.9599H63.8101V23.4826H67.4404V25.6167C69.2669 24.0775 71.579 23.2341 73.9676 23.2357Z" fill="#8A9BB7"/>
<path d="M48.5335 23.2357V26.866C46.8032 26.8679 45.1443 27.5563 43.9211 28.78C42.6978 30.0038 42.01 31.6629 42.0087 33.3932V36.9599H38.3735V23.4826H42.0038V25.6167C43.8308 24.0766 46.144 23.2331 48.5335 23.2357Z" fill="#8A9BB7"/>
<path d="M81.0278 23.2381C79.1767 23.2381 77.4015 23.9734 76.0926 25.2823C74.7837 26.5912 74.0483 28.3665 74.0483 30.2176C74.0483 32.0686 74.7837 33.8439 76.0926 35.1528C77.4015 36.4617 79.1767 37.197 81.0278 37.197C81.8689 37.198 82.7031 37.0456 83.4896 36.7472V32.4862C82.9605 33.0594 82.2478 33.4298 81.4746 33.5334C80.7014 33.637 79.9163 33.4672 79.255 33.0534C78.5937 32.6396 78.0978 32.0078 77.8528 31.2672C77.6079 30.5266 77.6293 29.7236 77.9135 28.9972C78.1977 28.2707 78.7267 27.6663 79.4092 27.2884C80.0916 26.9106 80.8846 26.783 81.6512 26.9277C82.4177 27.0724 83.1096 27.4804 83.6073 28.0811C84.105 28.6818 84.3773 29.4375 84.377 30.2176V36.9599H87.9999V30.2176C87.9974 28.3686 87.2622 26.5959 85.9554 25.2878C84.6487 23.9796 82.8768 23.2426 81.0278 23.2381Z" fill="#8A9BB7"/>
<path d="M55.5937 37.197C54.2134 37.1965 52.8643 36.7868 51.7168 36.0196C50.5694 35.2524 49.6752 34.1622 49.1473 32.8868C48.6194 31.6114 48.4815 30.2082 48.7511 28.8544C49.0207 27.5007 49.6856 26.2573 50.6618 25.2815C51.638 24.3056 52.8816 23.6411 54.2354 23.372C55.5893 23.1029 56.9925 23.2413 58.2677 23.7696C59.5428 24.2979 60.6327 25.1925 61.3995 26.3402C62.1664 27.488 62.5756 28.8373 62.5756 30.2176C62.573 32.0683 61.8365 33.8424 60.5277 35.1508C59.2188 36.4592 57.4444 37.1951 55.5937 37.197ZM55.5937 26.8684C54.9313 26.8684 54.2838 27.0648 53.733 27.4328C53.1823 27.8008 52.753 28.3239 52.4995 28.9359C52.246 29.5479 52.1797 30.2213 52.3089 30.871C52.4381 31.5206 52.7571 32.1174 53.2255 32.5858C53.6939 33.0542 54.2907 33.3731 54.9403 33.5024C55.59 33.6316 56.2634 33.5653 56.8754 33.3118C57.4874 33.0583 58.0104 32.629 58.3785 32.0783C58.7465 31.5275 58.9429 30.88 58.9429 30.2176C58.9422 29.3295 58.5892 28.478 57.9612 27.8501C57.3333 27.2221 56.4818 26.869 55.5937 26.8684Z" fill="#8A9BB7"/>
<path d="M11.6047 28.0027L4.60571 36.9575H0L6.99658 28.0027H11.6047Z" fill="#8A9BB7"/>
<path d="M17.4621 14.611V20.5075L15.3695 23.1966C14.2278 22.8093 13.0304 22.6111 11.8248 22.6099H11.2209L17.4621 14.611Z" fill="#8A9BB7"/>
<path d="M21.9799 13V36.9575H18.3496V33.6426C18.3483 31.9923 17.7224 30.4037 16.5977 29.196C15.473 27.9883 13.9329 27.2511 12.2869 27.1325C12.1328 27.1325 11.9788 27.1154 11.8248 27.1154H4.55688V23.4851H11.8248C14.2127 23.4834 16.5241 24.3269 18.3496 25.8662V13H21.9799Z" fill="#8A9BB7"/>
</svg>
