<svg xmlns="http://www.w3.org/2000/svg" width="199" height="211" fill="none" viewBox="0 0 199 211"><path stroke="#E9E7F1" stroke-linecap="round" stroke-linejoin="round" stroke-miterlimit="10" stroke-width="2" d="M132.105 95.583l-65.563 37.855L1 95.583l65.541-37.832 65.564 37.832z"></path><path stroke="#E9E7F1" stroke-linecap="round" stroke-linejoin="round" stroke-miterlimit="10" stroke-width="2" d="M66.541 133.436v75.687L1 171.291v-75.71l65.541 37.855zM132.105 95.582v75.709l-65.563 37.832v-75.687l65.563-37.854zM197.647 19.913l-32.776 18.924-32.766-18.924L164.871 1l32.776 18.913z"></path><path stroke="#E9E7F1" stroke-linecap="round" stroke-linejoin="round" stroke-miterlimit="10" stroke-width="2" d="M164.871 38.836v37.837L132.105 57.76V19.912l32.766 18.924z"></path><path stroke="#E9E7F1" stroke-linecap="round" stroke-linejoin="round" stroke-miterlimit="10" stroke-width="2" d="M197.647 19.912V57.76l-32.776 18.913V38.836l32.776-18.924z"></path><path fill="#E9E7F1" d="M66.547 38.826V1L33.782 19.913V57.75l32.765-18.924zM99.324 57.75V19.913L66.547 1v37.826L99.324 57.75z"></path><path fill="#F9F8FD" d="M99.324 19.913L66.547 38.837 33.782 19.913 66.547 1l32.777 18.913z"></path><path fill="#F1F0F5" d="M66.547 38.836v37.837L33.782 57.76V19.912l32.765 18.924z"></path><path fill="#E9E7F1" d="M99.324 19.912V57.76L66.547 76.673V38.836l32.777-18.924z"></path></svg>