<svg width="160" height="56" viewBox="0 0 160 56" fill="none" xmlns="http://www.w3.org/2000/svg">
<path d="M43.9941 24.4136C46.4159 24.4136 47.9901 25.5034 49.08 26.9565V7.46076C49.08 7.09749 48.7167 6.8553 48.3534 7.09749L24.3773 24.6558H25.1038C27.6467 24.6558 28.8577 26.351 28.8577 28.0463C28.8577 29.3783 28.1311 30.4682 27.1624 30.8314C26.9202 30.9525 26.9202 31.0736 27.1624 31.1947C28.2522 31.6791 29.0998 32.89 29.0998 34.222C29.0998 36.2806 27.8889 37.7337 25.346 37.7337H18.4438C18.3227 37.7337 18.2016 37.6126 18.2016 37.4915V29.1362L0.158957 42.3351C-0.0832265 42.5773 -0.0832256 43.0617 0.401141 43.0617H48.5956C48.8378 43.0617 48.9589 42.8195 48.9589 42.6984V36.0384C47.7479 37.2493 45.9316 37.9758 43.873 37.9758C39.9981 37.9758 36.8497 35.3118 36.8497 31.1947C37.0919 27.0776 40.1192 24.4136 43.9941 24.4136ZM34.4279 37.6126C34.4279 37.7337 34.3068 37.8547 34.1857 37.8547H31.8849C31.7639 37.8547 31.6428 37.7337 31.6428 37.6126V24.8979C31.6428 24.7769 31.7639 24.6558 31.8849 24.6558H34.3068C34.4279 24.6558 34.549 24.7769 34.549 24.8979V37.6126H34.4279Z" fill="#8A9BB7"/>
<path d="M21.1077 29.8627H24.3771C25.3459 29.8627 25.9513 29.2572 25.9513 28.5307C25.9513 27.8041 25.3459 27.1987 24.3771 27.1987H20.9866C20.8655 27.1987 20.8655 27.3198 20.8655 27.3198V29.7416C20.8655 29.7416 20.9866 29.8627 21.1077 29.8627Z" fill="#8A9BB7"/>
<path d="M21.1077 35.3119H24.4982C25.588 35.3119 26.1935 34.7064 26.1935 33.7377C26.1935 32.8901 25.588 32.1635 24.4982 32.1635H21.1077C20.9866 32.1635 20.8655 32.2846 20.8655 32.4057V34.9486C20.8655 35.1908 20.9866 35.3119 21.1077 35.3119Z" fill="#8A9BB7"/>
<path d="M47.0215 28.4096C46.2949 27.562 45.3262 26.8354 43.9942 26.8354C41.5724 26.8354 39.8771 28.6518 39.8771 31.1947C39.8771 33.7377 41.5724 35.554 43.9942 35.554C45.084 35.554 46.1738 35.0697 46.6582 34.5853C46.6582 34.5853 46.7793 34.4642 46.7793 34.3431V33.1322C46.7793 33.0111 46.6582 32.89 46.5371 32.89H43.5098C43.2676 32.89 43.2676 32.7689 43.2676 32.6478V30.8315C43.2676 30.5893 43.3887 30.5893 43.5098 30.5893H48.9589V27.562L47.2637 28.5307C47.2637 28.5307 47.1426 28.5307 47.0215 28.4096Z" fill="#8A9BB7"/>
<path d="M51.1384 31.1948C51.1384 27.1987 54.0446 24.4136 57.7985 24.4136C60.2203 24.4136 61.7945 25.6246 62.7632 27.0776C62.8843 27.1987 62.7632 27.3198 62.6421 27.3198L61.0679 28.0464C60.9468 28.1675 60.8258 28.0464 60.8258 27.9253C60.0992 26.9566 59.0094 26.23 57.7985 26.23C55.2555 26.23 53.4392 28.1675 53.4392 30.9526C53.4392 33.6166 55.2555 35.6752 57.7985 35.6752C59.0094 35.6752 60.2203 34.9486 60.8258 33.9799C60.9468 33.8588 61.0679 33.8588 61.0679 33.8588L62.6421 34.5853C62.7632 34.7064 62.8843 34.8275 62.7632 34.8275C61.7945 36.4017 60.2203 37.6126 57.7985 37.6126C54.0446 37.9759 51.1384 35.1908 51.1384 31.1948Z" fill="#8A9BB7"/>
<path d="M63.9744 31.1947C63.9744 27.9252 65.7907 25.3823 68.5758 24.6557C73.2984 23.4448 77.7788 27.8041 76.689 32.89C75.9624 35.9173 73.6617 38.0969 70.3922 38.0969C66.6384 37.9758 63.9744 35.1907 63.9744 31.1947ZM74.7515 31.1947C74.7515 28.5307 73.0562 26.4721 70.5133 26.4721C67.8493 26.4721 66.2751 28.5307 66.2751 31.1947C66.2751 33.8587 67.9704 35.9173 70.5133 35.9173C73.0562 35.9173 74.7515 33.8587 74.7515 31.1947Z" fill="#8A9BB7"/>
<path d="M90.4932 37.6126V27.6831L86.4972 37.7337L86.3761 37.8548H85.5284C85.5284 37.8548 85.4074 37.8548 85.4074 37.7337L81.5324 27.6831V37.6126C81.5324 37.7337 81.4113 37.8548 81.2902 37.8548H79.2317C79.1106 37.8548 78.9895 37.7337 78.9895 37.6126V24.7769C78.9895 24.6558 79.1106 24.5347 79.2317 24.5347H82.1379C82.259 24.5347 82.3801 24.6558 82.3801 24.7769L85.8917 33.7377L89.4034 24.7769C89.4034 24.6558 89.6456 24.5347 89.6456 24.5347H92.5518C92.6728 24.5347 92.7939 24.6558 92.7939 24.7769V37.6126C92.7939 37.7337 92.6728 37.8548 92.5518 37.8548H90.4932C90.6143 37.7337 90.4932 37.6126 90.4932 37.6126Z" fill="#8A9BB7"/>
<path d="M113.137 37.6126V24.8979C113.137 24.7769 113.258 24.6558 113.38 24.6558H121.856C121.977 24.6558 122.098 24.7769 122.098 24.8979V26.4721C122.098 26.5932 121.977 26.7143 121.856 26.7143H115.68C115.559 26.7143 115.438 26.8354 115.438 26.9565V29.8627C115.438 29.9838 115.559 30.1049 115.68 30.1049H121.735C121.856 30.1049 121.977 30.226 121.977 30.3471V31.9213C121.977 32.0423 121.856 32.1634 121.735 32.1634H115.68C115.559 32.1634 115.438 32.2845 115.438 32.4056V35.554C115.438 35.6751 115.559 35.7962 115.68 35.7962H121.856C121.977 35.7962 122.098 35.9173 122.098 36.0384V37.8547C122.098 37.9758 121.977 38.0969 121.856 38.0969H113.38C113.258 37.7337 113.137 37.6126 113.137 37.6126Z" fill="#8A9BB7"/>
<path d="M132.754 37.6126L129.969 33.0111C129.969 32.89 129.848 32.89 129.727 32.89H127.79C127.668 32.89 127.547 33.0111 127.547 33.1322V37.6126C127.547 37.7337 127.426 37.8547 127.305 37.8547H125.489C125.368 37.8547 125.247 37.7337 125.247 37.6126V24.8979C125.247 24.7769 125.368 24.6558 125.489 24.6558H130.938C133.602 24.6558 135.297 26.351 135.297 28.6518C135.297 30.8314 133.965 32.0423 132.512 32.4056C132.27 32.4056 132.27 32.6478 132.27 32.7689C132.875 33.6165 134.45 36.2806 135.055 37.2493C135.176 37.4915 135.055 37.6126 134.813 37.6126H132.754C132.875 37.7337 132.996 37.7337 132.754 37.6126ZM133.118 28.6518C133.118 27.4409 132.149 26.5932 130.938 26.5932H128.032C127.911 26.5932 127.79 26.7143 127.79 26.8354V30.4682C127.79 30.5892 127.911 30.7103 128.032 30.7103H130.938C132.149 30.8314 133.118 29.9838 133.118 28.6518Z" fill="#8A9BB7"/>
<path d="M151.039 37.6126V24.8979C151.039 24.7769 151.16 24.6558 151.281 24.6558H159.758C159.879 24.6558 160 24.7769 160 24.8979V26.4721C160 26.5932 159.879 26.7143 159.758 26.7143H153.461C153.34 26.7143 153.219 26.8354 153.219 26.9565V29.8627C153.219 29.9838 153.34 30.1049 153.461 30.1049H159.515C159.637 30.1049 159.758 30.226 159.758 30.3471V31.9213C159.758 32.0423 159.637 32.1634 159.515 32.1634H153.461C153.34 32.1634 153.219 32.2845 153.219 32.4056V35.554C153.219 35.6751 153.34 35.7962 153.461 35.7962H159.758C159.879 35.7962 160 35.9173 160 36.0384V37.6126C160 37.7337 159.879 37.8547 159.758 37.8547H151.281C151.16 37.7337 151.039 37.6126 151.039 37.6126Z" fill="#8A9BB7"/>
<path d="M137.114 31.1948C137.114 27.1987 140.02 24.4136 143.774 24.4136C146.196 24.4136 147.77 25.6246 148.738 27.0776C148.86 27.1987 148.738 27.3198 148.617 27.3198L147.043 28.0464C146.922 28.1675 146.801 28.0464 146.801 27.9253C146.074 26.9566 144.985 26.23 143.774 26.23C141.231 26.23 139.414 28.1675 139.414 30.9526C139.414 33.6166 141.231 35.6752 143.774 35.6752C144.985 35.6752 146.196 34.9486 146.801 33.9799C146.922 33.8588 147.043 33.8588 147.043 33.8588L148.617 34.5853C148.738 34.7064 148.86 34.8275 148.738 34.8275C147.77 36.4017 146.196 37.6126 143.774 37.6126C140.02 37.9759 137.114 35.1908 137.114 31.1948Z" fill="#8A9BB7"/>
<path d="M107.446 37.6126V27.6831L103.45 37.7337L103.329 37.8548H102.481C102.481 37.8548 102.36 37.8548 102.36 37.7337L98.4852 27.6831V37.6126C98.4852 37.7337 98.3641 37.8548 98.243 37.8548H96.3055C96.1844 37.8548 96.0634 37.7337 96.0634 37.6126V24.7769C96.0634 24.6558 96.1844 24.5347 96.3055 24.5347H99.2117C99.3328 24.5347 99.4539 24.6558 99.4539 24.7769L102.966 33.7377L106.477 24.7769C106.477 24.6558 106.719 24.5347 106.719 24.5347H109.626C109.747 24.5347 109.868 24.6558 109.868 24.7769V37.6126C109.868 37.7337 109.747 37.8548 109.626 37.8548H107.567C107.567 37.7337 107.446 37.6126 107.446 37.6126Z" fill="#8A9BB7"/>
</svg>
