<svg width="14" height="13" viewBox="0 0 14 13" fill="none" xmlns="http://www.w3.org/2000/svg">
<path d="M7 9.15834C5.94375 8.10157 4.35156 7.9073 3.09792 8.57552C2.74219 8.76511 2.3125 8.53125 2.3125 8.12813V3.39271C2.3125 3.06146 2.46563 2.74271 2.73542 2.55053C4.02969 1.62761 5.83854 1.74688 7 2.90834C8.16146 1.74688 9.97031 1.62761 11.2646 2.55053C11.5344 2.74271 11.6875 3.06146 11.6875 3.39271V8.12813C11.6875 8.53125 11.2578 8.76563 10.9021 8.57552C9.64844 7.9073 8.05625 8.10157 7 9.15834V9.15834Z" stroke="#536685" stroke-width="0.9375" stroke-linecap="round" stroke-linejoin="round"/>
<path d="M3.09802 10.7297C4.35167 10.0615 5.94386 10.2557 7.00011 11.3125C8.05636 10.2557 9.64854 10.0615 10.9022 10.7297" stroke="#536685" stroke-width="0.9375" stroke-linecap="round" stroke-linejoin="round"/>
<path d="M7 9.15626V2.90626" stroke="#536685" stroke-width="0.9375" stroke-linecap="round" stroke-linejoin="round"/>
</svg>
