<svg width="145" height="56" viewBox="0 0 145 56" fill="none" xmlns="http://www.w3.org/2000/svg">
<path d="M41.6311 27.2569C41.8508 27.3339 41.9935 27.3815 42.1363 27.4359C43.9575 28.1177 44.9247 29.5222 44.9519 31.5223C44.9882 34.1477 43.4388 36.1275 40.7726 36.8569C39.6966 37.1514 38.5889 37.1741 37.488 37.1786C35.0778 37.1899 32.6699 37.1741 30.2597 37.1718C29.75 37.1718 29.75 37.1718 29.75 36.6508C29.75 30.8586 29.75 25.0687 29.75 19.2765C29.75 18.9186 29.75 18.9186 30.0966 18.9164C32.6518 18.9164 35.2047 18.9028 37.7598 18.9232C39.0374 18.9345 40.315 19.007 41.5043 19.5529C43.2485 20.3548 44.2316 21.6913 44.2656 23.6394C44.295 25.2816 43.5022 26.4188 42.0162 27.087C41.9097 27.1346 41.8033 27.1799 41.6311 27.2569ZM34.516 33.4523C34.6021 33.4591 34.6723 33.4682 34.7426 33.4682C35.857 33.4636 36.9715 33.4704 38.0838 33.4523C39.4406 33.4297 40.3082 32.2155 39.9118 30.9085C39.683 30.1519 39.0102 29.615 38.1698 29.5878C37.0033 29.5516 35.8344 29.5584 34.6655 29.5471C34.6157 29.5471 34.5659 29.5697 34.516 29.581C34.516 30.8768 34.516 32.1589 34.516 33.4523ZM34.5115 26.122C35.336 26.122 36.1311 26.1334 36.924 26.1175C37.2751 26.1107 37.6285 26.0745 37.9728 26.0111C38.8381 25.8525 39.2911 25.2975 39.2979 24.4254C39.307 23.4672 38.9015 22.8465 38 22.7537C36.8628 22.6359 35.7121 22.6653 34.5659 22.6336C34.5523 22.6336 34.5364 22.6495 34.5092 22.6676C34.5115 23.8025 34.5115 24.9464 34.5115 26.122Z" fill="#8A9BB7"/>
<path d="M21.5818 28.2219C21.5818 29.8325 21.575 31.4431 21.5841 33.0536C21.5909 34.0141 21.1831 34.7027 20.3473 35.1807C17.8351 36.6168 15.3321 38.0689 12.8245 39.5163C12.5413 39.6794 12.2604 39.8403 11.9795 40.0056C11.1799 40.4723 10.3893 40.4609 9.58744 39.9988C6.7763 38.3701 3.96289 36.7505 1.14948 35.1286C0.386095 34.6869 0.00100677 34.0277 0.00100677 33.1465C0.00100677 29.871 -0.00125846 26.5955 0.00100677 23.32C0.00100677 22.4411 0.386095 21.7819 1.15401 21.3402C3.97874 19.7137 6.79669 18.085 9.61689 16.4563C10.3984 16.0033 11.1754 16.001 11.9591 16.4541C14.7635 18.0714 17.5678 19.6933 20.3767 21.3039C21.1899 21.7706 21.5909 22.4524 21.5863 23.3902C21.575 25.0008 21.5818 26.6113 21.5818 28.2219ZM5.83849 24.5409C8.22831 21.3311 13.2775 21.202 15.7489 24.5364C16.9517 23.841 18.1568 23.1455 19.3823 22.4365C19.3143 22.3844 19.2939 22.364 19.2713 22.3505C16.5825 20.7942 13.8891 19.238 11.1958 17.6818C10.9285 17.5278 10.668 17.5346 10.4007 17.6886C7.72316 19.2312 5.0434 20.7739 2.36364 22.3165C2.3138 22.3459 2.27529 22.3912 2.21187 22.4456C3.43282 23.1523 4.63113 23.8432 5.83849 24.5409ZM1.46661 23.6937C1.45528 23.7889 1.44622 23.8251 1.44622 23.8614C1.44622 26.9466 1.44622 30.0318 1.44396 33.1171C1.44396 33.4682 1.5912 33.7106 1.89927 33.8872C4.52693 35.3982 7.15006 36.9136 9.77319 38.4268C9.85701 38.4743 9.94308 38.5174 10.0563 38.5785C10.0563 37.1492 10.0563 35.7606 10.0563 34.3607C8.04935 34.0526 6.48182 33.0763 5.467 31.3185C4.44991 29.5561 4.37289 27.7054 5.12042 25.7959C3.90626 25.0982 2.70342 24.4073 1.46661 23.6937ZM16.4624 25.7891C16.8928 26.8515 17.0378 27.9093 16.9041 29.0125C16.5802 31.6809 14.4554 33.8895 11.787 34.2973C11.5627 34.3312 11.5106 34.4082 11.5106 34.6189C11.5197 35.8489 11.5152 37.079 11.5152 38.309C11.5152 38.386 11.5265 38.4607 11.5333 38.5649C11.6329 38.5151 11.7054 38.4834 11.7734 38.4449C14.4056 36.9272 17.0355 35.4072 19.6677 33.894C19.9826 33.7128 20.1298 33.475 20.1298 33.1057C20.123 30.0749 20.1253 27.0463 20.1253 24.0154C20.1253 23.9225 20.1162 23.8296 20.1072 23.6892C18.8703 24.4005 17.6766 25.0891 16.4624 25.7891ZM11.5333 32.8883C13.0691 32.5961 14.204 31.8055 14.9311 30.4736C15.6175 29.2209 15.6877 27.9093 15.1939 26.5457C15.1123 26.5842 15.0625 26.6045 15.0172 26.6295C13.914 27.266 12.8131 27.9071 11.7054 28.5368C11.5582 28.6206 11.5129 28.7203 11.5152 28.8834C11.5197 30.1224 11.5174 31.3593 11.5197 32.5983C11.5174 32.6821 11.5242 32.7614 11.5333 32.8883ZM14.4305 25.2885C12.6161 22.91 8.88975 22.9757 7.16139 25.2771C7.19536 25.3043 7.22708 25.336 7.26332 25.3587C8.38914 26.0111 9.51496 26.6657 10.6476 27.3068C10.7291 27.3521 10.8922 27.3294 10.9828 27.2796C11.8957 26.7654 12.8018 26.2376 13.7102 25.712C13.9503 25.5716 14.1881 25.4312 14.4305 25.2885ZM10.0496 32.8611C10.0541 32.7796 10.0609 32.7003 10.0609 32.621C10.0609 31.3819 10.0563 30.1428 10.0654 28.906C10.0677 28.718 10.0042 28.6161 9.84115 28.5255C8.75837 27.9093 7.68012 27.2818 6.59961 26.6589C6.54071 26.6249 6.47502 26.6023 6.4116 26.5728C5.26313 29.2707 7.17498 32.5213 10.0496 32.8611Z" fill="#8A9BB7"/>
<path d="M85.8484 31.2823C82.5797 31.2823 79.3223 31.2823 76.015 31.2823C76.049 31.5224 76.0717 31.7331 76.1124 31.9392C76.1555 32.1522 76.2053 32.3628 76.271 32.569C76.7988 34.1637 78.4592 34.8274 79.9543 34.0414C80.4798 33.765 80.8082 33.3255 80.96 32.757C80.9917 32.6347 81.0166 32.544 81.1797 32.5463C82.6295 32.5531 84.077 32.5508 85.5267 32.5508C85.5607 32.5508 85.5947 32.5644 85.6581 32.5803C85.6241 32.7185 85.6037 32.8476 85.5607 32.9722C84.7452 35.4073 83.0236 36.8253 80.5455 37.3441C78.9802 37.6725 77.4127 37.634 75.8791 37.1334C73.8744 36.4787 72.47 35.174 71.7972 33.1715C71.0678 31.0014 71.0814 28.8245 72.0645 26.7269C73.1065 24.5048 74.9119 23.2476 77.3039 22.824C78.7605 22.5657 80.2125 22.6269 81.6056 23.1705C83.7983 24.0245 85.0895 25.6714 85.6898 27.9049C85.9639 28.9219 85.982 29.9572 85.8959 30.9992C85.8937 31.0852 85.871 31.1713 85.8484 31.2823ZM80.9578 28.3874C80.8218 26.8017 79.773 25.7914 78.4116 25.9001C77.2201 25.9953 76.1487 27.2072 76.2234 28.3874C77.7955 28.3874 79.3676 28.3874 80.9578 28.3874Z" fill="#8A9BB7"/>
<path d="M135.108 31.2845C135.133 32.7772 135.81 34.0027 136.927 34.2338C137.842 34.4241 138.715 34.3652 139.455 33.7128C139.75 33.4545 139.911 33.1148 140.019 32.741C140.042 32.664 140.151 32.5552 140.221 32.5552C141.689 32.5462 143.154 32.5484 144.622 32.5507C144.647 32.5507 144.672 32.5666 144.717 32.5824C144.475 33.5361 144.058 34.3946 143.431 35.1467C142.568 36.1796 141.469 36.8478 140.178 37.2012C138.397 37.686 136.61 37.695 134.857 37.1061C132.458 36.2974 131.054 34.5826 130.557 32.1294C130.2 30.3648 130.274 28.6115 131.013 26.9443C132.055 24.5907 133.901 23.2474 136.418 22.8193C137.849 22.5747 139.274 22.6381 140.642 23.1681C142.889 24.0357 144.194 25.7279 144.774 28.0203C145.03 29.0306 145.039 30.059 144.946 31.0919C144.93 31.2777 144.835 31.2867 144.697 31.2867C144.036 31.2845 143.374 31.2867 142.713 31.2867C140.284 31.2867 137.858 31.2867 135.43 31.2867C135.321 31.2845 135.215 31.2845 135.108 31.2845ZM139.988 28.3872C139.978 27.01 138.925 25.8977 137.652 25.8977C136.345 25.8977 135.262 27.0168 135.258 28.3872C136.828 28.3872 138.397 28.3872 139.988 28.3872Z" fill="#8A9BB7"/>
<path d="M54.8986 23.0845C56.5024 23.0845 58.0677 23.0845 59.6624 23.0845C59.6624 23.2068 59.6624 23.311 59.6624 23.4175C59.6647 25.9251 59.6579 28.4304 59.6737 30.938C59.6783 31.459 59.7304 31.9868 59.821 32.501C60.0203 33.6155 60.5798 34.1456 61.6535 34.3064C62.6593 34.4559 63.5427 34.0029 64.023 33.0922C64.3446 32.4784 64.476 31.8215 64.476 31.1306C64.476 28.5686 64.476 26.0089 64.476 23.4469C64.476 23.3314 64.476 23.2159 64.476 23.0845C66.073 23.0845 67.636 23.0845 69.2149 23.0845C69.2149 27.7712 69.2149 32.4467 69.2149 37.147C67.6564 37.147 66.0979 37.147 64.4987 37.147C64.4987 36.7143 64.4987 36.2862 64.4987 35.7992C64.3831 35.8853 64.3197 35.9283 64.2608 35.9781C63.1055 36.9635 61.7759 37.5253 60.2514 37.5457C58.8741 37.5638 57.5625 37.3056 56.4616 36.404C55.5873 35.6882 55.0708 34.7708 55.0006 33.6314C54.953 32.8657 54.9054 32.0978 54.9032 31.3299C54.8918 28.6977 54.8986 26.0632 54.8986 23.4311C54.8986 23.3246 54.8986 23.2159 54.8986 23.0845Z" fill="#8A9BB7"/>
<path d="M110.367 37.5842C108.959 37.5412 107.606 37.2943 106.354 36.6351C104.695 35.7607 103.624 34.397 103.112 32.6098C102.627 30.9109 102.629 29.1961 103.15 27.5017C103.794 25.4086 105.151 23.9498 107.212 23.2227C109.47 22.4253 111.754 22.448 113.965 23.4107C116.153 24.3644 117.372 26.1131 117.806 28.4236C118.081 29.8847 118.031 31.3458 117.566 32.7661C116.731 35.3213 114.925 36.8005 112.327 37.3441C111.686 37.4778 111.022 37.5072 110.367 37.5842ZM107.599 30.1248C107.672 30.7161 107.713 31.3118 107.824 31.894C107.973 32.6709 108.279 33.3868 108.943 33.8783C110.184 34.8003 111.937 34.3042 112.603 32.8499C112.918 32.1658 113.031 31.4364 113.072 30.6934C113.133 29.5744 113.077 28.469 112.617 27.4224C112.189 26.4461 111.443 25.9047 110.358 25.8979C109.292 25.8911 108.474 26.4914 108.043 27.59C107.726 28.4033 107.636 29.2527 107.599 30.1248Z" fill="#8A9BB7"/>
<path d="M101.471 28.4326C99.9425 28.4326 98.4338 28.4326 96.9297 28.4326C96.83 28.0611 96.7598 27.6851 96.6262 27.334C96.121 26.002 94.5512 25.472 93.3846 26.2331C92.8478 26.5819 92.5465 27.1097 92.3857 27.7055C91.9462 29.3478 91.9621 30.9991 92.4468 32.6278C92.6665 33.364 93.0969 33.9643 93.8784 34.2157C94.9952 34.5736 96.0644 34.0844 96.5627 32.9789C96.6987 32.6754 96.7802 32.3492 96.8957 32.0094C98.4112 32.0094 99.9538 32.0094 101.519 32.0094C101.433 32.7139 101.236 33.3663 100.937 33.9892C100.26 35.405 99.1655 36.3836 97.7135 36.9385C95.8129 37.6657 93.8603 37.7767 91.91 37.1832C89.391 36.4175 87.9186 34.6575 87.3976 32.1113C87.0465 30.3943 87.1349 28.6818 87.7941 27.044C88.7704 24.6225 90.6233 23.2566 93.1626 22.8217C94.8661 22.5294 96.5356 22.6812 98.1257 23.4197C100.112 24.3371 101.451 26.3328 101.471 28.4326Z" fill="#8A9BB7"/>
<path d="M53.3491 34.5888C53.3491 35.6696 53.3491 36.748 53.3491 37.8639C52.9618 37.8965 52.579 37.9526 52.1939 37.9549C51.3444 37.9619 50.4859 38.0296 49.65 37.9152C47.8741 37.6701 47.1537 36.8134 47.0314 34.9763C47.0042 34.5678 47.002 34.1569 46.9997 33.7461C46.9974 28.9256 46.9974 24.1075 46.9974 19.2871C46.9974 19.1774 46.9974 19.0677 46.9974 18.9393C48.5808 18.9393 50.1348 18.9393 51.7295 18.9393C51.7295 19.0607 51.7295 19.1774 51.7295 19.2941C51.7295 23.8531 51.7295 28.4121 51.7318 32.9711C51.7318 33.2675 51.7544 33.5663 51.7907 33.8628C51.8382 34.2596 52.033 34.4627 52.4181 34.5164C52.7171 34.5538 53.0161 34.5631 53.3491 34.5888Z" fill="#8A9BB7"/>
<path d="M120.06 23.0798C121.643 23.0798 123.19 23.0798 124.776 23.0798C124.776 23.6959 124.776 24.3053 124.776 24.9123C124.796 24.9282 124.817 24.9463 124.837 24.9622C126.06 23.3811 127.522 22.3413 129.653 22.7853C129.653 24.0584 129.653 25.3291 129.653 26.6271C129.574 26.6271 129.506 26.6226 129.436 26.6271C128.761 26.6747 128.072 26.6543 127.417 26.7902C126.131 27.0552 125.39 27.9432 125.111 29.1823C124.941 29.9344 124.844 30.7159 124.824 31.486C124.776 33.2756 124.79 35.0674 124.792 36.8569C124.792 37.097 124.738 37.1808 124.479 37.1785C123.104 37.165 121.727 37.1672 120.35 37.1763C120.123 37.1785 120.037 37.1332 120.037 36.8818C120.044 32.3763 120.042 27.873 120.044 23.3675C120.044 23.2814 120.053 23.193 120.06 23.0798Z" fill="#8A9BB7"/>
</svg>
