<svg xmlns="http://www.w3.org/2000/svg" width="140" height="143" fill="none" viewBox="0 0 140 143"><path fill="#422B99" d="M34.994 61.4V21L0 41.2v40.41L34.994 61.4z"></path><path fill="#422B99" d="M70 81.61V41.2L34.993 21v40.399l35.005 20.21z"></path><path fill="#422B99" d="M70 41.2L34.994 61.41 0 41.2 34.994 21 70 41.2z"></path><path fill="#766AF8" d="M34.994 61.41v40.41L0 81.621V41.2L34.994 61.41z"></path><path fill="#422B99" d="M70 41.199V81.62L34.993 101.82V61.41l35.005-20.211z"></path><path stroke="#766AF8" stroke-linecap="round" stroke-linejoin="round" stroke-miterlimit="10" stroke-width="1.459" d="M104.876 20.91L70.37 40.834 35.876 20.911 70.37 1l34.506 19.91z"></path><path stroke="#766AF8" stroke-linecap="round" stroke-linejoin="round" stroke-miterlimit="10" stroke-width="1.459" d="M70.37 40.834v39.833l-34.494-19.91V20.91L70.37 40.834zM104.876 20.911v39.845L70.37 80.667V40.834l34.506-19.923zM139 81.528l-34.506 19.923L70 81.528l34.494-19.91L139 81.527z"></path><path stroke="#766AF8" stroke-linecap="round" stroke-linejoin="round" stroke-miterlimit="10" stroke-width="1.459" d="M104.494 101.451v39.833L70 121.374V81.528l34.494 19.923zM139 81.528v39.846l-34.506 19.91v-39.833L139 81.528z"></path></svg>