<svg xmlns="http://www.w3.org/2000/svg" width="149" height="152" fill="none" viewBox="0 0 149 152"><g opacity="0.4"><path fill="#E9E7F1" d="M37.285 65.803V22.76L0 44.28v43.057l37.285-21.535zM74.583 87.338V44.28L37.285 22.76v43.044l37.298 21.535z"></path><path fill="url(#paint0_linear_4410_8250)" d="M74.583 44.281L37.285 65.816 0 44.28 37.285 22.76 74.583 44.28z"></path><path fill="url(#paint1_linear_4410_8250)" d="M37.285 65.814v43.056L0 87.349v-43.07l37.285 21.535z"></path><path fill="url(#paint2_linear_4410_8250)" d="M74.583 44.28v43.069L37.285 108.87V65.814L74.583 44.28z"></path><path stroke="url(#paint3_linear_4410_8250)" stroke-linecap="round" stroke-linejoin="round" stroke-miterlimit="10" stroke-width="1.56" d="M111.071 22.29L74.175 43.592 37.292 22.29 74.174 1l36.896 21.29z"></path><path stroke="url(#paint4_linear_4410_8250)" stroke-linecap="round" stroke-linejoin="round" stroke-miterlimit="10" stroke-width="1.56" d="M74.175 43.593v42.592l-36.883-21.29V22.29l36.883 21.303z"></path><path stroke="url(#paint5_linear_4410_8250)" stroke-linecap="round" stroke-linejoin="round" stroke-miterlimit="10" stroke-width="1.56" d="M111.071 22.29v42.605l-36.896 21.29V43.593L111.07 22.29z"></path><path stroke="url(#paint6_linear_4410_8250)" stroke-linecap="round" stroke-linejoin="round" stroke-miterlimit="10" stroke-width="1.56" d="M147.558 87.105l-36.896 21.303-36.883-21.303 36.883-21.29 36.896 21.29z"></path><path stroke="url(#paint7_linear_4410_8250)" stroke-linecap="round" stroke-linejoin="round" stroke-miterlimit="10" stroke-width="1.56" d="M110.662 108.407V151l-36.883-21.29V87.105l36.883 21.302z"></path><path stroke="url(#paint8_linear_4410_8250)" stroke-linecap="round" stroke-linejoin="round" stroke-miterlimit="10" stroke-width="1.56" d="M147.558 87.105v42.605L110.662 151v-42.593l36.896-21.302z"></path></g><defs><linearGradient id="paint0_linear_4410_8250" x1="-19.878" x2="-0.864" y1="10.435" y2="85.043" gradientUnits="userSpaceOnUse"><stop stop-color="#FF5300"></stop><stop offset="1" stop-color="#F4C243"></stop></linearGradient><linearGradient id="paint1_linear_4410_8250" x1="-9.937" x2="47.578" y1="25.791" y2="100.999" gradientUnits="userSpaceOnUse"><stop stop-color="#FF5300"></stop><stop offset="1" stop-color="#F4C243"></stop></linearGradient><linearGradient id="paint2_linear_4410_8250" x1="27.345" x2="84.855" y1="25.791" y2="101.018" gradientUnits="userSpaceOnUse"><stop stop-color="#FF5300"></stop><stop offset="1" stop-color="#F4C243"></stop></linearGradient><linearGradient id="paint3_linear_4410_8250" x1="17.628" x2="36.437" y1="-11.192" y2="62.613" gradientUnits="userSpaceOnUse"><stop stop-color="#FF5300"></stop><stop offset="1" stop-color="#F4C243"></stop></linearGradient><linearGradient id="paint4_linear_4410_8250" x1="27.462" x2="84.357" y1="4.001" y2="78.398" gradientUnits="userSpaceOnUse"><stop stop-color="#FF5300"></stop><stop offset="1" stop-color="#F4C243"></stop></linearGradient><linearGradient id="paint5_linear_4410_8250" x1="64.341" x2="121.232" y1="4.001" y2="78.417" gradientUnits="userSpaceOnUse"><stop stop-color="#FF5300"></stop><stop offset="1" stop-color="#F4C243"></stop></linearGradient><linearGradient id="paint6_linear_4410_8250" x1="54.115" x2="72.924" y1="53.624" y2="127.428" gradientUnits="userSpaceOnUse"><stop stop-color="#FF5300"></stop><stop offset="1" stop-color="#F4C243"></stop></linearGradient><linearGradient id="paint7_linear_4410_8250" x1="63.949" x2="120.845" y1="68.816" y2="143.213" gradientUnits="userSpaceOnUse"><stop stop-color="#FF5300"></stop><stop offset="1" stop-color="#F4C243"></stop></linearGradient><linearGradient id="paint8_linear_4410_8250" x1="100.829" x2="157.719" y1="68.816" y2="143.232" gradientUnits="userSpaceOnUse"><stop stop-color="#FF5300"></stop><stop offset="1" stop-color="#F4C243"></stop></linearGradient></defs></svg>