<svg xmlns="http://www.w3.org/2000/svg" width="163" height="152" fill="none" viewBox="0 0 163 152"><g opacity="0.4"><path fill="#E9E7F1" d="M41.312 65.803V22.759L.532 44.281v43.057l40.78-21.535zM82.106 87.337V44.281L41.312 22.76v43.044l40.794 21.534z"></path><path fill="url(#paint0_linear_4579_8164)" d="M82.106 44.281L41.312 65.816.532 44.28l40.78-21.522 40.794 21.522z"></path><path fill="url(#paint1_linear_4579_8164)" d="M41.312 65.814v43.057L.532 87.349v-43.07l40.78 21.535z"></path><path fill="url(#paint2_linear_4579_8164)" d="M82.106 44.28v43.069L41.312 108.87V65.814L82.106 44.28z"></path><path stroke="url(#paint3_linear_4579_8164)" stroke-linecap="round" stroke-linejoin="round" stroke-miterlimit="10" stroke-width="1.56" d="M122.015 22.29L81.66 43.592 41.319 22.29 81.659 1l40.356 21.29z"></path><path stroke="url(#paint4_linear_4579_8164)" stroke-linecap="round" stroke-linejoin="round" stroke-miterlimit="10" stroke-width="1.56" d="M81.66 43.593v42.592l-40.34-21.29V22.291l40.34 21.302z"></path><path stroke="url(#paint5_linear_4579_8164)" stroke-linecap="round" stroke-linejoin="round" stroke-miterlimit="10" stroke-width="1.56" d="M122.015 22.29v42.605L81.66 86.185V43.593l40.355-21.303z"></path><path stroke="url(#paint6_linear_4579_8164)" stroke-linecap="round" stroke-linejoin="round" stroke-miterlimit="10" stroke-width="1.56" d="M161.923 87.105l-40.355 21.303-40.34-21.303 40.34-21.29 40.355 21.29z"></path><path stroke="url(#paint7_linear_4579_8164)" stroke-linecap="round" stroke-linejoin="round" stroke-miterlimit="10" stroke-width="1.56" d="M121.568 108.407V151l-40.34-21.29V87.105l40.34 21.302z"></path><path stroke="url(#paint8_linear_4579_8164)" stroke-linecap="round" stroke-linejoin="round" stroke-miterlimit="10" stroke-width="1.56" d="M161.923 87.105v42.605L121.568 151v-42.593l40.355-21.302z"></path></g><defs><linearGradient id="paint0_linear_4579_8164" x1="-21.21" x2="-3.65" y1="10.435" y2="85.797" gradientUnits="userSpaceOnUse"><stop stop-color="#FF5300"></stop><stop offset="1" stop-color="#F4C243"></stop></linearGradient><linearGradient id="paint1_linear_4579_8164" x1="-10.338" x2="45.637" y1="25.791" y2="105.846" gradientUnits="userSpaceOnUse"><stop stop-color="#FF5300"></stop><stop offset="1" stop-color="#F4C243"></stop></linearGradient><linearGradient id="paint2_linear_4579_8164" x1="30.439" x2="86.407" y1="25.791" y2="105.864" gradientUnits="userSpaceOnUse"><stop stop-color="#FF5300"></stop><stop offset="1" stop-color="#F4C243"></stop></linearGradient><linearGradient id="paint3_linear_4579_8164" x1="19.812" x2="37.182" y1="-11.192" y2="63.359" gradientUnits="userSpaceOnUse"><stop stop-color="#FF5300"></stop><stop offset="1" stop-color="#F4C243"></stop></linearGradient><linearGradient id="paint4_linear_4579_8164" x1="30.567" x2="85.939" y1="4.001" y2="83.194" gradientUnits="userSpaceOnUse"><stop stop-color="#FF5300"></stop><stop offset="1" stop-color="#F4C243"></stop></linearGradient><linearGradient id="paint5_linear_4579_8164" x1="70.905" x2="126.27" y1="4.001" y2="83.212" gradientUnits="userSpaceOnUse"><stop stop-color="#FF5300"></stop><stop offset="1" stop-color="#F4C243"></stop></linearGradient><linearGradient id="paint6_linear_4579_8164" x1="59.72" x2="77.091" y1="53.624" y2="128.174" gradientUnits="userSpaceOnUse"><stop stop-color="#FF5300"></stop><stop offset="1" stop-color="#F4C243"></stop></linearGradient><linearGradient id="paint7_linear_4579_8164" x1="70.475" x2="125.847" y1="68.816" y2="148.008" gradientUnits="userSpaceOnUse"><stop stop-color="#FF5300"></stop><stop offset="1" stop-color="#F4C243"></stop></linearGradient><linearGradient id="paint8_linear_4579_8164" x1="110.813" x2="166.178" y1="68.816" y2="148.026" gradientUnits="userSpaceOnUse"><stop stop-color="#FF5300"></stop><stop offset="1" stop-color="#F4C243"></stop></linearGradient></defs></svg>