<svg xmlns="http://www.w3.org/2000/svg" width="127" height="119" fill="none" viewBox="0 0 127 119"><g opacity="0.4"><path fill="#E9E7F1" d="M95.03 51.505V17.96l31.782 16.773v33.556L95.03 51.505zM63.237 68.288V34.732L95.03 17.96v33.546L63.237 68.288z"></path><path fill="url(#paint0_linear_4579_8179)" d="M63.237 34.732L95.03 51.515l31.782-16.783L95.03 17.96 63.237 34.732z"></path><path fill="url(#paint1_linear_4579_8179)" d="M95.03 51.514V85.07l31.782-16.773V34.73L95.03 51.513z"></path><path fill="url(#paint2_linear_4579_8179)" d="M63.237 34.73v33.566L95.03 85.07V51.514L63.237 34.73z"></path><path stroke="url(#paint3_linear_4579_8179)" stroke-linecap="round" stroke-linejoin="round" stroke-miterlimit="10" stroke-width="1.216" d="M32.134 17.592l31.45 16.602 31.44-16.602L63.584 1l-31.45 16.592z"></path><path stroke="url(#paint4_linear_4579_8179)" stroke-linecap="round" stroke-linejoin="round" stroke-miterlimit="10" stroke-width="1.216" d="M63.584 34.195V67.39l31.44-16.592V17.593l-31.44 16.602z"></path><path stroke="url(#paint5_linear_4579_8179)" stroke-linecap="round" stroke-linejoin="round" stroke-miterlimit="10" stroke-width="1.216" d="M32.134 17.593v33.205l31.45 16.592V34.195l-31.45-16.602z"></path><path stroke="url(#paint6_linear_4579_8179)" stroke-linecap="round" stroke-linejoin="round" stroke-miterlimit="10" stroke-width="1.216" d="M1.031 68.107l31.451 16.602 31.44-16.602-31.44-16.592-31.45 16.592z"></path><path stroke="url(#paint7_linear_4579_8179)" stroke-linecap="round" stroke-linejoin="round" stroke-miterlimit="10" stroke-width="1.216" d="M32.482 84.708v33.194l31.44-16.592V68.106l-31.44 16.602z"></path><path stroke="url(#paint8_linear_4579_8179)" stroke-linecap="round" stroke-linejoin="round" stroke-miterlimit="10" stroke-width="1.216" d="M1.031 68.106v33.204l31.45 16.592V84.708L1.032 68.106z"></path></g><defs><linearGradient id="paint0_linear_4579_8179" x1="143.756" x2="130.071" y1="8.354" y2="67.088" gradientUnits="userSpaceOnUse"><stop stop-color="#FF5300"></stop><stop offset="1" stop-color="#F4C243"></stop></linearGradient><linearGradient id="paint1_linear_4579_8179" x1="135.283" x2="91.659" y1="20.322" y2="82.713" gradientUnits="userSpaceOnUse"><stop stop-color="#FF5300"></stop><stop offset="1" stop-color="#F4C243"></stop></linearGradient><linearGradient id="paint2_linear_4579_8179" x1="103.504" x2="59.885" y1="20.322" y2="82.727" gradientUnits="userSpaceOnUse"><stop stop-color="#FF5300"></stop><stop offset="1" stop-color="#F4C243"></stop></linearGradient><linearGradient id="paint3_linear_4579_8179" x1="111.786" x2="98.248" y1="-8.502" y2="49.599" gradientUnits="userSpaceOnUse"><stop stop-color="#FF5300"></stop><stop offset="1" stop-color="#F4C243"></stop></linearGradient><linearGradient id="paint4_linear_4579_8179" x1="103.404" x2="60.25" y1="3.34" y2="65.058" gradientUnits="userSpaceOnUse"><stop stop-color="#FF5300"></stop><stop offset="1" stop-color="#F4C243"></stop></linearGradient><linearGradient id="paint5_linear_4579_8179" x1="71.967" x2="28.818" y1="3.34" y2="65.072" gradientUnits="userSpaceOnUse"><stop stop-color="#FF5300"></stop><stop offset="1" stop-color="#F4C243"></stop></linearGradient><linearGradient id="paint6_linear_4579_8179" x1="80.683" x2="67.146" y1="42.013" y2="100.114" gradientUnits="userSpaceOnUse"><stop stop-color="#FF5300"></stop><stop offset="1" stop-color="#F4C243"></stop></linearGradient><linearGradient id="paint7_linear_4579_8179" x1="72.301" x2="29.147" y1="53.852" y2="115.571" gradientUnits="userSpaceOnUse"><stop stop-color="#FF5300"></stop><stop offset="1" stop-color="#F4C243"></stop></linearGradient><linearGradient id="paint8_linear_4579_8179" x1="40.864" x2="-2.285" y1="53.852" y2="115.584" gradientUnits="userSpaceOnUse"><stop stop-color="#FF5300"></stop><stop offset="1" stop-color="#F4C243"></stop></linearGradient></defs></svg>