<svg xmlns="http://www.w3.org/2000/svg" width="191" height="195" fill="none" viewBox="0 0 191 195"><path fill="#E9E7F1" d="M47.801 137.045V81.862l-47.8 27.592v55.199l47.8-27.608z"></path><path fill="#E9E7F1" d="M95.618 164.653v-55.2L47.8 81.861v55.184l47.817 27.608z"></path><path fill="#F9F8FD" d="M95.618 109.454l-47.817 27.608-47.8-27.608 47.8-27.592 47.817 27.592z"></path><path fill="#F1F0F5" d="M47.8 137.06v55.2L0 164.668v-55.216l47.8 27.608z"></path><path fill="#E9E7F1" d="M95.618 109.452v55.216L47.8 192.26v-55.2l47.817-27.608z"></path><path stroke="#F7F7FA" stroke-linecap="round" stroke-linejoin="round" stroke-miterlimit="10" stroke-width="2" d="M142.396 28.294L95.095 55.605l-47.286-27.31L95.095 1l47.301 27.294z"></path><path stroke="#E4E4E9" stroke-linecap="round" stroke-linejoin="round" stroke-miterlimit="10" stroke-width="2" d="M95.095 55.605v54.605L47.809 82.915v-54.62l47.286 27.31z"></path><path stroke="#EEEEF3" stroke-linecap="round" stroke-linejoin="round" stroke-miterlimit="10" stroke-width="2" d="M142.397 28.294v54.621L95.095 110.21V55.605l47.302-27.31z"></path><path stroke="#F7F7FA" stroke-linecap="round" stroke-linejoin="round" stroke-miterlimit="10" stroke-width="2" d="M189.175 111.39l-47.302 27.311-47.286-27.311 47.286-27.294 47.302 27.294z"></path><path stroke="#E4E4E9" stroke-linecap="round" stroke-linejoin="round" stroke-miterlimit="10" stroke-width="2" d="M141.873 138.7v54.605l-47.285-27.294V111.39l47.285 27.31z"></path><path stroke="#EEEEF3" stroke-linecap="round" stroke-linejoin="round" stroke-miterlimit="10" stroke-width="2" d="M189.175 111.39v54.621l-47.302 27.294V138.7l47.302-27.31z"></path><path fill="#E9E7F1" d="M142.388 83.485V28.3l-47.8 27.592v55.2l47.8-27.608zM190.205 111.092v-55.2l-47.817-27.591v55.183l47.817 27.608z"></path><path fill="#F9F8FD" d="M190.205 55.893l-47.817 27.608-47.8-27.608 47.8-27.592 47.817 27.592z"></path><path fill="#F1F0F5" d="M142.388 83.5v55.199l-47.8-27.592V55.891l47.8 27.608z"></path><path fill="#E9E7F1" d="M190.205 55.891v55.216l-47.817 27.592v-55.2l47.817-27.608z"></path></svg>