<svg xmlns="http://www.w3.org/2000/svg" width="108" height="169" fill="none" viewBox="0 0 108 169"><path stroke="#8B84A4" stroke-linecap="round" stroke-linejoin="round" stroke-miterlimit="10" stroke-width="1.21" d="M106.836 76.353L53.909 106.91 1 76.353l52.909-30.54 52.927 30.54zM53.91 106.912v61.098L1 137.47V76.353l52.91 30.559z"></path><path stroke="#8B84A4" stroke-linecap="round" stroke-linejoin="round" stroke-miterlimit="10" stroke-width="1.21" d="M106.836 76.353v61.117l-52.927 30.54v-61.098l52.927-30.559z"></path><path fill="#8B84A4" d="M80.377 30.536V0l-26.45 15.268v30.544l26.45-15.276z"></path><path fill="#8B84A4" d="M106.835 45.812V15.268L80.376 0v30.535l26.459 15.277z"></path><path fill="#BCB7CF" d="M106.836 15.268l-26.46 15.277-26.45-15.277L80.377 0l26.46 15.268z"></path><path fill="#A9A3BF" d="M80.376 30.543v30.545L53.926 45.82V15.267l26.45 15.276z"></path><path fill="#8B84A4" d="M106.835 15.267V45.82L80.376 61.088V30.543l26.459-15.276z"></path></svg>