<svg width="14" height="13" viewBox="0 0 14 13" fill="none" xmlns="http://www.w3.org/2000/svg">
<path d="M10.6458 11.0625H3.35417V11.0625C2.77887 11.0625 2.3125 10.5961 2.3125 10.0208V5.33334V5.33334C2.3125 4.75804 2.77887 4.29167 3.35417 4.29167H10.6458V4.29167C11.2211 4.29167 11.6875 4.75804 11.6875 5.33334V10.0208V10.0208C11.6875 10.5961 11.2211 11.0625 10.6458 11.0625C10.6458 11.0625 10.6458 11.0625 10.6458 11.0625V11.0625Z" stroke="#536685" stroke-width="0.9375" stroke-linecap="round" stroke-linejoin="round"/>
<path d="M9.08317 11.0625V3.24999C9.08317 2.6747 8.6168 2.20833 8.0415 2.20833H5.95817V2.20833C5.38287 2.20833 4.9165 2.6747 4.9165 3.24999V3.24999V11.0625" stroke="#536685" stroke-width="0.9375" stroke-linecap="round" stroke-linejoin="round"/>
</svg>
