<?xml version="1.0" encoding="utf-8"?>
<!-- Generator: Adobe Illustrator 26.0.1, SVG Export Plug-In . SVG Version: 6.00 Build 0)  -->
<svg version="1.1" id="Layer_1" xmlns="http://www.w3.org/2000/svg" xmlns:xlink="http://www.w3.org/1999/xlink" x="0px" y="0px"
	 viewBox="0 0 89.3 56" style="enable-background:new 0 0 89.3 56;" xml:space="preserve">
<style type="text/css">
	.st0{clip-path:url(#SVGID_00000016792380998789065520000010901706530840850825_);}
	.st1{clip-path:url(#SVGID_00000042713258737755023770000002212813731117582748_);}
	.st2{fill:#8A9BB7;}
</style>
<g>
	<defs>
		<rect id="SVGID_1_" y="-3" width="89" height="56"/>
	</defs>
	<clipPath id="SVGID_00000029013241588965746280000010106687126901995142_">
		<use xlink:href="#SVGID_1_"  style="overflow:visible;"/>
	</clipPath>
	<g style="clip-path:url(#SVGID_00000029013241588965746280000010106687126901995142_);">
		<g>
			<defs>
				<rect id="SVGID_00000023976684398963088710000003505525891698775178_" y="13.4" width="89.1" height="30.5"/>
			</defs>
			<clipPath id="SVGID_00000078725168589528204170000000698603192362738594_">
				<use xlink:href="#SVGID_00000023976684398963088710000003505525891698775178_"  style="overflow:visible;"/>
			</clipPath>
			<g style="clip-path:url(#SVGID_00000078725168589528204170000000698603192362738594_);">
				<path class="st2" d="M34,21.6c-0.7-0.7-1.6-1.1-2.6-1.4c-0.9-0.3-1.9-0.4-2.9-0.2c-1.1,0.1-2.1,0.5-2.9,1.3v-7.9l-4.9,0.8v23
					h4.9v-8.5c-0.2-3.5,1.1-4.2,3.1-4.2c2,0,2.9,1.3,2.9,4v8.7h4.7v-9.5C36.3,24.8,35.4,22.9,34,21.6z M12.6,32.9
					c1.3-0.1,2.6-0.5,3.8-1.2l0.8-0.5l2.2,3.7l-0.8,0.5c-2,1.4-4.3,2.1-6.8,2.1c-1.9,0-3.7-0.4-5.3-1.3c-1.7-0.8-3.1-2-4.2-3.5
					c-1.1-1.5-1.9-3.3-2.2-5.2C-0.1,25.6,0,23.8,0.5,22c0.5-1.8,1.5-3.4,2.8-4.7c1.3-1.3,2.9-2.4,4.7-3c1.8-0.6,3.6-0.8,5.5-0.5
					c1.9,0.2,3.6,0.9,5.2,2l0.8,0.5l-2.2,3.7l-0.8-0.6c-1.1-0.7-2.4-1.1-3.8-1.2C11.3,18,9.9,18.3,8.8,19c-1.2,0.6-2.2,1.5-2.9,2.7
					c-0.7,1.2-1.1,2.5-1.1,3.8c0,1.3,0.4,2.7,1.1,3.8c0.7,1.2,1.7,2.1,2.9,2.7C10,32.7,11.3,32.9,12.6,32.9L12.6,32.9z M85.1,21.2
					v0.2V21.2c-1.3-0.9-2.9-1.3-4.4-1.3c-2.2,0.1-4.3,1-5.9,2.7c-1.5,1.6-2.4,3.8-2.4,6c0,2.2,0.9,4.4,2.4,6
					c1.5,1.6,3.6,2.6,5.9,2.7c1.1,0,2.3-0.2,3.3-0.7l0.2-0.1l-0.1,0.2c-0.3,0.8-0.8,1.6-1.6,2.1c-0.7,0.5-1.6,0.8-2.5,0.8h-0.2
					c-1.1,0-2.2-0.4-3-1.1l-0.2-0.2l-2.7,3l0.2,0.2c1.6,1.5,3.7,2.4,5.9,2.5c1.2,0,2.4-0.2,3.5-0.6c1.1-0.4,2.1-1.1,3-1.9
					c0.9-0.8,1.5-1.9,2-3c0.4-1.1,0.7-2.3,0.6-3.5V19.9h-3.7L85.1,21.2z M81.1,32.6c-1.1,0-2.1-0.5-2.8-1.3
					c-0.7-0.8-1.1-1.8-1.1-2.9c0-1.1,0.4-2.1,1.1-2.9c0.7-0.8,1.7-1.2,2.8-1.3c1.1,0,2.1,0.5,2.8,1.3c0.7,0.8,1.1,1.8,1.1,2.9
					c0,1.1-0.4,2.1-1.1,2.8C83.1,32,82.1,32.5,81.1,32.6L81.1,32.6z M67.5,21.2v0.2V21.2c-1.3-0.9-2.9-1.3-4.4-1.3
					c-2.2,0.1-4.3,1-5.9,2.7c-1.5,1.6-2.4,3.8-2.4,6c0,2.2,0.9,4.4,2.4,6c1.5,1.6,3.6,2.6,5.9,2.7c1.1,0,2.3-0.2,3.3-0.7l0.2-0.1
					l-0.1,0.1c-0.3,0.8-0.8,1.6-1.6,2.1c-0.7,0.5-1.6,0.8-2.5,0.8h-0.2c-1.1,0-2.2-0.4-3-1.1l-0.2-0.2l-2.7,3l0.2,0.2
					c1.6,1.5,3.7,2.4,5.9,2.5c1.2,0,2.4-0.2,3.5-0.6c1.1-0.4,2.1-1.1,3-1.9c0.9-0.8,1.5-1.9,2-3s0.7-2.3,0.6-3.5V19.9h-3.7
					L67.5,21.2z M63.4,32.6c-0.8,0-1.6-0.2-2.4-0.6c-0.7-0.4-1.3-1.1-1.6-1.8c-0.3-0.8-0.5-1.6-0.3-2.4c0.1-0.8,0.5-1.6,1.1-2.2
					c0.6-0.6,1.3-1,2.1-1.2c0.8-0.2,1.7-0.1,2.4,0.2c0.8,0.3,1.4,0.8,1.9,1.5c0.5,0.7,0.7,1.5,0.7,2.3c0,1.1-0.4,2.1-1.1,2.9
					C65.4,32.1,64.4,32.5,63.4,32.6z M37.2,28.6c0-5,3.6-8.9,8.3-8.9s8.2,3.9,8.2,8.9c0,0.6-0.1,1.3-0.2,1.9H42.1l0.1,0.2
					c0.2,0.8,0.7,1.4,1.4,1.9c0.7,0.4,1.4,0.7,2.2,0.8c0.8,0.1,1.5,0,2.3-0.3c0.7-0.3,1.4-0.7,1.9-1.3l2.9,2
					c-0.8,1.2-1.8,2.1-3.1,2.7c-1.2,0.7-2.6,1-4,1c-2.3-0.1-4.5-1-6.1-2.7C38,33.1,37.1,30.9,37.2,28.6L37.2,28.6z M41.7,27.2v0.2
					h7.8v-0.2c0-0.7-0.3-1.4-0.7-2c-0.4-0.6-1-1.1-1.7-1.3c-0.7-0.3-1.4-0.4-2.2-0.2c-0.7,0.1-1.4,0.4-2,0.9
					C42.3,25.2,41.8,26.1,41.7,27.2L41.7,27.2z"/>
			</g>
		</g>
	</g>
</g>
</svg>
