<svg width="111" height="56" viewBox="0 0 111 56" fill="none" xmlns="http://www.w3.org/2000/svg">
<g clip-path="url(#clip0)">
<path d="M9.06353 29.9276C9.06353 28.4179 10.2884 27.1941 11.7981 27.1941C13.3078 27.1941 14.5315 28.4191 14.5315 29.9276C14.5315 31.4373 13.3078 32.6622 11.7981 32.6622C10.2873 32.6622 9.06353 31.4373 9.06353 29.9276ZM11.797 18.4448C6.43644 18.4448 1.93826 22.1172 0.673331 27.0821C0.664182 27.1187 0.658463 27.1553 0.658463 27.1941C0.658463 27.4961 0.903216 27.7408 1.20515 27.7408H5.83371C6.05444 27.7408 6.24315 27.6093 6.33007 27.4217H6.33122C7.28164 25.3516 9.37119 23.9129 11.7981 23.9129C15.1194 23.9129 17.8129 26.6063 17.8129 29.9276C17.8129 33.2489 15.1194 35.9435 11.7981 35.9435C9.37119 35.9435 7.28164 34.5047 6.33122 32.4334L6.33007 32.4346C6.24315 32.247 6.05444 32.1155 5.83371 32.1155H1.20515C0.903216 32.1155 0.658463 32.3591 0.658463 32.6622C0.658463 32.6999 0.664182 32.7353 0.672187 32.7708C1.93826 37.7368 6.43644 41.4103 11.797 41.4103C18.1377 41.4103 23.2797 36.2683 23.2797 29.9276C23.2797 23.5858 18.1388 18.4448 11.797 18.4448ZM41.8248 32.6198H40.2626C40.1527 32.6198 40.0578 32.6725 39.996 32.7525C39.0891 34.0929 37.5554 34.9759 35.8147 34.9759C33.0264 34.9759 30.7664 32.7159 30.7664 29.9287C30.7664 27.1416 33.0264 24.8816 35.8147 24.8816C37.5554 24.8816 39.0903 25.7645 39.9972 27.1049C40.0589 27.185 40.155 27.2376 40.2636 27.2376H41.826C42.0124 27.2376 42.1633 27.0866 42.1633 26.9013C42.1633 26.8465 42.1485 26.7962 42.1268 26.7504C40.9625 24.4447 38.5744 22.8629 35.8158 22.8629C31.9135 22.8629 28.7489 26.0264 28.7489 29.9299C28.7489 33.8322 31.9135 36.9968 35.8158 36.9968C38.5744 36.9968 40.9625 35.415 42.1268 33.1094C42.1496 33.0636 42.1633 33.0133 42.1633 32.9584C42.1622 32.7697 42.0112 32.6198 41.8248 32.6198ZM46.5358 20.5058C46.5358 21.2492 45.9341 21.8519 45.1896 21.8519C44.4462 21.8519 43.8434 21.2492 43.8434 20.5058C43.8434 19.7624 44.4462 19.1596 45.1896 19.1596C45.9341 19.1596 46.5358 19.7624 46.5358 20.5058ZM46.1995 36.3209V23.198H44.1797V36.3209C44.1797 36.5061 44.3307 36.6571 44.5159 36.6571H45.8621C46.0496 36.6571 46.1995 36.5073 46.1995 36.3209ZM54.9545 22.8698C52.9187 22.9659 51.2924 23.9392 50.239 25.4248V23.5331C50.239 23.3479 50.0881 23.1969 49.9028 23.1969H48.5566C48.3702 23.1969 48.2204 23.3479 48.2204 23.5331V36.3209C48.2204 36.5061 48.3714 36.6571 48.5566 36.6571H49.9028C50.0881 36.6571 50.239 36.5061 50.239 36.3209V29.9276C50.239 27.2536 52.3194 25.0646 54.9499 24.8919C55.1363 24.8919 55.2873 24.7409 55.2873 24.5545V23.206C55.2861 23.0219 55.1375 22.8732 54.9545 22.8698ZM68.3621 32.6198H66.7998C66.6911 32.6198 66.5951 32.6725 66.5345 32.7525C65.6275 34.0929 64.0927 34.9759 62.3531 34.9759C59.5648 34.9759 57.3048 32.7159 57.3048 29.9287C57.3048 27.1416 59.5636 24.8816 62.3531 24.8816C64.0938 24.8816 65.6275 25.7645 66.5345 27.1049C66.5962 27.185 66.6923 27.2376 66.7998 27.2376H68.3621C68.5485 27.2376 68.6995 27.0866 68.6995 26.9013C68.6995 26.8465 68.6858 26.7962 68.6618 26.7504C67.4986 24.4447 65.1094 22.8629 62.3519 22.8629C58.4485 22.8629 55.2851 26.0264 55.2851 29.9299C55.2851 33.8322 58.4485 36.9968 62.3519 36.9968C65.1094 36.9968 67.4986 35.415 68.6618 33.1094C68.6846 33.0636 68.6995 33.0133 68.6995 32.9584C68.6995 32.7697 68.5485 32.6198 68.3621 32.6198ZM72.4005 18.8234H71.0544C70.868 18.8234 70.7181 18.9744 70.7181 19.1596V36.3209C70.7181 36.5061 70.868 36.6571 71.0544 36.6571H72.4005C72.5858 36.6571 72.7379 36.5061 72.7379 36.3209V19.1596C72.7379 18.9744 72.5869 18.8234 72.4005 18.8234ZM81.8231 22.8618C77.9197 22.8618 74.7565 26.0253 74.7565 29.9287C74.7565 33.831 77.9197 36.9957 81.8231 36.9957C84.582 36.9957 86.9704 35.4139 88.1333 33.1082C88.1562 33.0624 88.17 33.0122 88.17 32.9573C88.17 32.7708 88.0192 32.621 87.834 32.621H86.2715C86.1605 32.621 86.061 32.6759 86.0005 32.7594C85.0911 34.0964 83.5593 34.977 81.8223 34.977C79.2625 34.977 77.1489 33.0716 76.8197 30.6024H88.5428C88.7235 30.6024 88.8689 30.4605 88.8789 30.2832C88.885 30.1667 88.8881 30.0488 88.8881 29.9299C88.8896 26.0253 85.7257 22.8618 81.8231 22.8618ZM76.9582 28.5814C77.5485 26.4485 79.5028 24.8804 81.8231 24.8804C84.1442 24.8804 86.0978 26.4485 86.688 28.5814H76.9582ZM108.435 18.4871C107.32 18.4871 106.416 19.3918 106.416 20.5058C106.416 21.6209 107.321 22.5244 108.435 22.5244C109.55 22.5244 110.453 21.6209 110.453 20.5058C110.453 19.3907 109.55 18.4871 108.435 18.4871ZM110.117 23.198V36.3209C110.117 36.5061 109.967 36.6571 109.781 36.6571H107.089C106.904 36.6571 106.753 36.5061 106.753 36.3209V23.198H110.117ZM97.9748 36.9945C101.273 36.9945 104.041 34.7346 104.821 31.6786C104.825 31.6569 104.829 31.634 104.829 31.61C104.829 31.4247 104.678 31.2737 104.493 31.2737H101.644C101.509 31.2737 101.392 31.3537 101.339 31.4704H101.338C100.753 32.7445 99.4683 33.6298 97.9748 33.6298C95.9308 33.6298 94.2727 31.9725 94.2727 29.9287C94.2727 27.885 95.9308 26.2277 97.9748 26.2277C99.4683 26.2277 100.753 27.1129 101.338 28.387L101.339 28.3859C101.392 28.5014 101.509 28.5826 101.644 28.5826H104.493C104.678 28.5826 104.829 28.4316 104.829 28.2464C104.829 28.2235 104.825 28.2017 104.821 28.1788C104.042 25.1229 101.273 22.8618 97.9748 22.8618C94.0737 22.8618 90.9083 26.0264 90.9083 29.9287C90.9083 33.831 94.0737 36.9945 97.9748 36.9945Z" fill="#8A9BB7"/>
</g>
<defs>
<clipPath id="clip0">
<rect width="111" height="23.731" fill="white" transform="translate(0 18.0621)"/>
</clipPath>
</defs>
</svg>
