<svg width="14" height="14" viewBox="0 0 14 14" fill="none" xmlns="http://www.w3.org/2000/svg">
<path d="M8.67419 6.18156V6.18156C9.60417 6.14774 10.3423 5.38713 10.3483 4.45656V4.45657C10.3339 3.54617 9.5846 2.81962 8.67419 2.83335" stroke="#536685" stroke-width="0.9375" stroke-linecap="round" stroke-linejoin="round"/>
<path d="M5.6608 6.18156V6.18156C6.59077 6.14775 7.32895 5.38714 7.33491 4.45656V4.45657C7.32053 3.54617 6.5712 2.81962 5.6608 2.83335V2.83335C4.7504 2.81962 4.00106 3.54617 3.98669 4.45657L3.98669 4.45656C3.99242 5.38723 4.73072 6.14797 5.66079 6.18156L5.6608 6.18156Z" stroke="#536685" stroke-width="0.9375" stroke-linecap="round" stroke-linejoin="round"/>
<path d="M9.08333 11.1667V10.125C9.08333 8.97441 8.15059 8.04167 7 8.04167H4.39583V8.04167C3.24524 8.04167 2.3125 8.97441 2.3125 10.125V11.1667" stroke="#536685" stroke-width="0.9375" stroke-linecap="round" stroke-linejoin="round"/>
<path d="M11.6875 11.1667V9.60417C11.6875 8.74123 10.9879 8.04167 10.125 8.04167" stroke="#536685" stroke-width="0.9375" stroke-linecap="round" stroke-linejoin="round"/>
</svg>
