<svg xmlns="http://www.w3.org/2000/svg" width="299" height="314" fill="none" viewBox="0 0 299 314"><path fill="#2A2D46" d="M119.956 105.492V36.086l-60.12 34.703v69.427l60.12-34.724z"></path><path fill="#2A2D46" d="M180.096 140.216V70.789l-60.141-34.703v69.406l60.141 34.724z"></path><path fill="#3C3D4F" d="M180.097 70.789l-60.141 34.724-60.12-34.724 60.12-34.703 60.141 34.703z"></path><path fill="#33354B" d="M119.956 105.512v69.426l-60.121-34.703V70.788l60.121 34.724z"></path><path fill="#2A2D46" d="M180.096 70.788v69.447l-60.141 34.703v-69.426l60.141-34.724z"></path><path fill="#2A2D46" d="M119.956 243.597V174.19l-60.12 34.704v69.426l60.12-34.723z"></path><path fill="#2A2D46" d="M180.096 278.319v-69.426l-60.141-34.704v69.407l60.141 34.723z"></path><path fill="#3C3D4F" d="M180.097 208.893l-60.141 34.724-60.12-34.724 60.12-34.703 60.141 34.703z"></path><path fill="#33354B" d="M119.956 243.615v69.427l-60.121-34.703v-69.447l60.121 34.723z"></path><path fill="#2A2D46" d="M180.096 208.892v69.447l-60.141 34.703v-69.427l60.141-34.723z"></path><path stroke="#33354B" stroke-linecap="round" stroke-linejoin="round" stroke-miterlimit="10" stroke-width="2" d="M238.932 35.33l-59.493 34.349-59.473-34.35L179.439 1l59.493 34.33z"></path><path stroke="#33354B" stroke-linecap="round" stroke-linejoin="round" stroke-miterlimit="10" stroke-width="2" d="M179.439 69.677v68.679l-59.473-34.329V35.328l59.473 34.35zM238.932 35.328v68.699l-59.493 34.329V69.678l59.493-34.35zM297.767 139.841l-59.493 34.349-59.473-34.349 59.473-34.329 59.493 34.329z"></path><path stroke="#33354B" stroke-linecap="round" stroke-linejoin="round" stroke-miterlimit="10" stroke-width="2" d="M238.274 174.19v68.679l-59.473-34.329v-68.699l59.473 34.349zM297.767 139.841v68.699l-59.493 34.329V174.19l59.493-34.349zM119.966 175.292l-59.493 34.349L1 175.292l59.473-34.329 59.493 34.329z"></path><path stroke="#33354B" stroke-linecap="round" stroke-linejoin="round" stroke-miterlimit="10" stroke-width="2" d="M60.473 209.641v68.679L1 243.991v-68.699l59.473 34.349zM119.966 175.292v68.699L60.473 278.32v-68.679l59.493-34.349z"></path></svg>