<svg xmlns="http://www.w3.org/2000/svg" width="137" height="223" fill="none" viewBox="0 0 137 223"><path fill="#2A2D46" d="M107.424 34.992V.86L77.859 17.926v34.142l29.565-17.076zM137 52.067V17.925L107.424.86v34.132L137 52.067z"></path><path fill="#3C3D4F" d="M137 17.926l-29.576 17.076-29.565-17.076L107.424.86 137 17.926z"></path><path fill="#33354B" d="M107.424 35v34.143L77.859 52.077V17.925L107.424 35z"></path><path fill="#2A2D46" d="M137 17.925v34.152l-29.576 17.066V35L137 17.925z"></path><path stroke="#33354B" stroke-linecap="round" stroke-linejoin="round" stroke-miterlimit="10" stroke-width="1.78" d="M106.853 130.281L53.89 160.86.945 130.281l52.945-30.56 52.963 30.56z"></path><path stroke="#33354B" stroke-linecap="round" stroke-linejoin="round" stroke-miterlimit="10" stroke-width="1.78" d="M53.89 160.86V222L.945 191.439v-61.158L53.89 160.86zM106.853 130.281v61.158L53.89 222v-61.14l52.963-30.579zM106.853 69.142L53.89 99.722.945 69.141l52.945-30.56 52.963 30.56z"></path><path stroke="#33354B" stroke-linecap="round" stroke-linejoin="round" stroke-miterlimit="10" stroke-width="1.78" d="M53.89 99.72v61.141L.945 130.3V69.142L53.89 99.72zM106.853 69.142V130.3L53.89 160.861v-61.14l52.963-30.58z"></path></svg>