<?xml version="1.0" encoding="UTF-8" standalone="no"?>
<!DOCTYPE svg PUBLIC "-//W3C//DTD SVG 1.1//EN" "http://www.w3.org/Graphics/SVG/1.1/DTD/svg11.dtd">
<svg width="100%" height="100%" viewBox="0 0 98 39" version="1.1" xmlns="http://www.w3.org/2000/svg" xmlns:xlink="http://www.w3.org/1999/xlink" xml:space="preserve" xmlns:serif="http://www.serif.com/" style="fill-rule:evenodd;clip-rule:evenodd;stroke-linejoin:round;stroke-miterlimit:2;">
    <g>
        <g transform="matrix(0.548659,0,0,0.548659,0.996651,8.96637)">
            <path d="M35.267,12.566L25.649,2.887C25.479,2.716 23.968,1.234 21.674,0.473C18.39,-0.629 15.132,0.237 12.486,2.887L2.868,12.566C2.699,12.737 1.226,14.258 0.47,16.566C-0.625,19.872 0.235,23.151 2.868,25.813L12.486,35.493C12.655,35.663 14.167,37.145 16.461,37.919C17.399,38.234 18.324,38.391 19.237,38.391C21.544,38.391 23.759,37.408 25.649,35.506L35.267,25.826C35.436,25.656 36.909,24.134 37.665,21.826C38.759,18.508 37.899,15.229 35.267,12.566ZM19.81,5.693C20.892,6.021 21.7,6.769 21.765,6.821L24.606,9.681L19.067,15.255L13.528,9.681L16.383,6.808C17.152,6.047 18.22,5.221 19.81,5.693ZM5.657,18.442C5.983,17.353 6.726,16.54 6.778,16.475L9.619,13.615L15.158,19.19L9.619,24.764L6.765,21.892C6.009,21.118 5.188,20.029 5.657,18.442ZM18.324,32.686C17.243,32.358 16.435,31.61 16.369,31.558L13.528,28.699L19.067,23.124L24.606,28.699L21.752,31.571C20.983,32.332 19.901,33.158 18.324,32.686ZM32.478,19.937C32.152,21.026 31.409,21.839 31.357,21.905L28.516,24.764L22.977,19.19L28.516,13.615L31.37,16.488C32.126,17.262 32.947,18.337 32.478,19.937Z" style="fill:rgb(138,155,183);fill-rule:nonzero;"/>
        </g>
        <g transform="matrix(0.548659,0,0,0.548659,0.996651,8.96637)">
            <path d="M56.001,32.816L60.966,32.816L60.966,18.952C60.966,14.677 58.386,11.516 53.981,11.516C51.83,11.516 49.537,12.473 48.338,14.231L48.338,3.961L43.372,3.961L43.372,32.816L48.338,32.816L48.338,21.864C48.338,19.307 49.602,16.106 52.586,16.106C55.206,16.106 56.001,17.588 56.001,19.976L56.001,32.816ZM76.045,24.619C76.045,27.674 73.881,29.34 70.806,29.34C69.268,29.34 67.886,28.357 67.886,26.77C67.886,25.104 69.346,24.199 70.845,24.068L76.045,23.674L76.045,24.619ZM80.176,33.131C81.362,33.131 81.792,32.934 82.613,32.58L82.613,28.934C82.613,28.934 82.3,29.012 81.988,29.012C81.167,29.012 80.841,28.658 80.841,27.701L80.841,20.054C80.841,18.664 80.762,17.195 80.254,15.896C79.068,12.801 76.084,11.699 72.578,11.699C68.004,11.699 64.342,13.759 64.068,18.402L68.838,18.402C68.955,16.5 70.297,15.464 72.578,15.464C75.38,15.464 76.045,16.775 76.045,18.716L76.045,19.989L70.024,20.422C66.127,20.697 63.091,22.953 63.091,26.874C63.091,30.245 65.606,33.341 70.493,33.341C73.412,33.341 75.771,31.911 76.709,30.245C76.866,31.793 78.052,33.131 80.176,33.131ZM95.646,16.605C95.906,16.605 96.167,16.631 96.441,16.657L96.441,11.988C96.232,11.975 96.01,11.935 95.802,11.935C93.404,11.935 90.954,12.919 90.016,15.306L89.586,12.211L85.415,12.211L85.415,32.816L90.38,32.816L90.38,22.428C90.367,19.11 92.179,16.605 95.646,16.605ZM111.193,32.816L116.12,32.816L116.12,19.071C116.12,14.795 113.565,11.699 109.186,11.699C106.827,11.699 104.377,12.683 103.165,14.873L102.813,12.224L98.682,12.224L98.682,32.829L103.608,32.829L103.608,24.422C103.608,22.677 103.569,20.539 104.273,18.913C104.938,17.405 106.085,16.303 107.818,16.303C110.411,16.303 111.206,17.772 111.206,20.185L111.206,32.816L111.193,32.816ZM132.267,20.448L123.405,20.448C123.444,19.097 123.757,18.152 124.473,17.234C125.177,16.277 126.402,15.647 127.901,15.647C129.321,15.647 130.338,16.119 131.016,16.841C131.798,17.72 132.228,18.913 132.267,20.448ZM137.193,22.677C137.271,20.107 136.919,17.759 135.421,15.503C133.726,12.919 130.977,11.699 127.94,11.699C125.151,11.699 122.936,12.736 121.398,14.309C119.43,16.329 118.439,19.267 118.439,22.546C118.439,25.917 119.547,28.802 121.593,30.783C123.209,32.331 125.255,33.314 128.057,33.314C130.651,33.314 133.218,32.488 134.951,30.416C135.747,29.472 136.567,27.845 136.685,26.612L131.954,26.612C131.759,27.36 131.407,27.924 130.963,28.357C130.26,29.065 129.387,29.353 127.966,29.353C126.624,29.353 125.646,28.763 124.93,28.081C123.939,27.124 123.392,25.629 123.431,24.041L137.141,24.041C137.154,23.622 137.193,22.677 137.193,22.677ZM143.801,17.956C143.801,16.88 144.504,16.133 145.378,15.778C146.12,15.464 146.798,15.464 147.502,15.464C148.531,15.464 149.587,15.818 150.173,16.408C150.643,16.92 150.994,17.562 150.994,18.349L155.686,18.349C155.686,16.841 154.983,15.293 153.874,14.113C152.376,12.486 149.9,11.699 147.45,11.699C144.895,11.699 142.719,12.447 141.233,13.759C140.008,14.834 139.148,16.29 139.148,18.402C139.148,21.012 141.038,23.32 143.84,23.91C145.651,24.304 147.697,24.422 149.509,24.697C150.773,24.894 151.555,25.694 151.555,26.874C151.555,29.13 149.04,29.498 147.384,29.498C145.964,29.498 145.065,29.222 144.27,28.58C143.761,28.16 143.371,27.452 143.227,26.704L138.588,26.704C138.744,28.422 139.656,29.917 140.725,30.954C142.419,32.58 144.739,33.327 147.345,33.327C150.134,33.327 152.702,32.619 154.356,30.954C155.426,29.891 156.129,28.422 156.129,26.442C156.129,23.189 153.77,21.13 150.538,20.618C148.531,20.304 148.023,20.264 146.172,20.028C145.065,19.858 143.801,19.425 143.801,17.956ZM169.879,18.349L174.57,18.349C174.57,16.841 173.866,15.293 172.759,14.113C171.261,12.486 168.785,11.699 166.347,11.699C163.792,11.699 161.629,12.447 160.13,13.759C158.905,14.834 158.045,16.29 158.045,18.402C158.045,21.012 159.935,23.32 162.736,23.91C164.548,24.304 166.594,24.422 168.405,24.697C169.67,24.894 170.452,25.694 170.452,26.874C170.452,29.13 167.937,29.498 166.281,29.498C164.861,29.498 163.961,29.222 163.166,28.58C162.658,28.16 162.268,27.452 162.138,26.704L157.497,26.704C157.654,28.422 158.567,29.917 159.635,30.954C161.329,32.58 163.65,33.327 166.256,33.327C169.058,33.327 171.612,32.619 173.267,30.954C174.335,29.891 175.04,28.422 175.04,26.442C175.04,23.189 172.681,21.13 169.448,20.618C167.441,20.304 166.933,20.264 165.082,20.028C163.987,19.871 162.724,19.438 162.724,17.969C162.724,16.893 163.427,16.146 164.301,15.791C165.044,15.477 165.72,15.477 166.425,15.477C167.441,15.477 168.51,15.831 169.096,16.421C169.526,16.92 169.879,17.562 169.879,18.349Z" style="fill:rgb(138,155,183);fill-rule:nonzero;"/>
        </g>
    </g>
</svg>
