<?xml version="1.0" encoding="utf-8"?>
<!-- Generator: Adobe Illustrator 26.0.1, SVG Export Plug-In . SVG Version: 6.00 Build 0)  -->
<svg version="1.1" id="Layer_1" xmlns="http://www.w3.org/2000/svg" xmlns:xlink="http://www.w3.org/1999/xlink" x="0px" y="0px"
	 viewBox="0 0 110 56" style="enable-background:new 0 0 110 56;" xml:space="preserve">
<style type="text/css">
	.st0{clip-path:url(#SVGID_00000116203628537185284880000000336827226026622643_);}
	.st1{fill:#8A9BB7;}
</style>
<g>
	<defs>
		<rect id="SVGID_1_" y="12" width="110" height="32"/>
	</defs>
	<clipPath id="SVGID_00000078021426592339804810000007641286066356563624_">
		<use xlink:href="#SVGID_1_"  style="overflow:visible;"/>
	</clipPath>
	<g style="clip-path:url(#SVGID_00000078021426592339804810000007641286066356563624_);">
		<path class="st1" d="M89.4,17.2c0.7,0,1.3-0.3,1.8-0.8c0.5-0.5,0.7-1.1,0.7-1.8s-0.3-1.3-0.7-1.8c-0.5-0.5-1.1-0.8-1.8-0.8
			c-0.7,0-1.3,0.3-1.8,0.7c-0.5,0.5-0.8,1.1-0.8,1.8c0,0.3,0.1,0.7,0.2,1c0.1,0.3,0.3,0.6,0.6,0.8c0.2,0.2,0.5,0.4,0.8,0.6
			C88.7,17.1,89.1,17.2,89.4,17.2L89.4,17.2z"/>
		<path class="st1" d="M67.4,19h3.8v2.4c0.7-0.9,1.5-1.6,2.5-2c1-0.5,2-0.7,3.1-0.7c4.8,0,8.4,4.1,8.4,9.2c0,5.1-3.6,9.1-8.4,9.1
			c-1.1,0-2.1-0.2-3.1-0.7c-1-0.5-1.8-1.2-2.5-2V44h-3.8V19z M76.2,22.2c-0.7,0-1.4,0.1-2.1,0.4c-0.7,0.3-1.3,0.7-1.7,1.2
			c-0.5,0.5-0.9,1.2-1.1,1.8c-0.2,0.7-0.3,1.4-0.3,2.1c0,0.7,0.1,1.4,0.3,2.1c0.2,0.7,0.6,1.3,1.1,1.8s1.1,0.9,1.7,1.2
			c0.7,0.3,1.3,0.4,2.1,0.4s1.4-0.1,2.1-0.4c0.6-0.3,1.2-0.7,1.7-1.2s0.9-1.1,1.1-1.8c0.2-0.7,0.4-1.4,0.3-2.1
			c0-0.7-0.1-1.5-0.3-2.1c-0.2-0.7-0.6-1.3-1.1-1.8c-0.5-0.5-1.1-1-1.7-1.2C77.6,22.3,76.9,22.2,76.2,22.2L76.2,22.2z"/>
		<path class="st1" d="M94.2,19H98v2.4c0.6-0.9,1.4-1.6,2.3-2.1c0.9-0.5,2-0.7,3-0.7c4,0,6.7,2.9,6.7,7.4v10.6h-3.8v-10
			c0-2.8-1.4-4.5-3.6-4.5c-2.6,0-4.5,2-4.5,5.8v8.7h-3.8V19z"/>
		<path class="st1" d="M38.1,18.7c-1,0-2.1,0.2-3,0.7c-0.9,0.5-1.7,1.2-2.3,2.1V12H29v24.6h3.8V28c0-3.8,2-5.8,4.5-5.8
			c2.2,0,3.6,1.7,3.6,4.5v10h3.8V26C44.8,21.6,42.2,18.7,38.1,18.7z"/>
		<path class="st1" d="M91.3,19h-3.8v17.6h3.8V19z"/>
		<path class="st1" d="M56.1,37c-1.8,0-3.5-0.6-4.9-1.6c-1.5-1-2.6-2.5-3.2-4.2c-0.7-1.7-0.8-3.5-0.4-5.3c0.4-1.8,1.2-3.4,2.5-4.6
			c1.3-1.3,2.9-2.1,4.6-2.5c1.7-0.3,3.5-0.1,5.2,0.6c1.6,0.7,3,1.9,4,3.4c1,1.5,1.5,3.3,1.5,5.1c0,1.2-0.2,2.4-0.7,3.6
			c-0.5,1.1-1.1,2.1-2,3c-0.9,0.9-1.9,1.5-3,2C58.5,36.8,57.3,37,56.1,37z M56.1,33.3c0.7,0,1.4-0.1,2.1-0.4
			c0.7-0.3,1.2-0.7,1.7-1.2c0.5-0.5,0.9-1.1,1.1-1.8c0.2-0.7,0.4-1.4,0.3-2.1c0-0.7-0.1-1.5-0.3-2.1c-0.3-0.7-0.6-1.3-1.1-1.8
			c-0.5-0.5-1.1-0.9-1.7-1.2c-0.7-0.3-1.4-0.4-2.1-0.4c-0.7,0-1.4,0.1-2.1,0.4c-0.7,0.3-1.2,0.7-1.7,1.2c-0.5,0.5-0.9,1.1-1.1,1.8
			c-0.3,0.7-0.4,1.4-0.3,2.1c0,0.7,0.1,1.5,0.3,2.1c0.2,0.7,0.6,1.3,1.1,1.8s1.1,0.9,1.7,1.2S55.4,33.4,56.1,33.3L56.1,33.3z"/>
		<path class="st1" d="M15.1,16.8c0,1.2-0.8,2.9-2.2,2.9c-0.4,0-0.8-0.2-1.1-0.5c-0.3-0.3-0.5-0.7-0.5-1.1l0,0
			c0-0.7-0.2-1.3-0.4-1.9c-0.3-0.6-0.7-1.1-1.2-1.5C8.9,14,8,13.6,7,13.4c0.4-0.5,1-0.8,1.5-1.1c0.6-0.2,1.2-0.4,1.8-0.4
			c0.8,0,1.6,0.2,2.4,0.7c0.7,0.4,1.3,1,1.8,1.7C14.9,15.1,15.1,16,15.1,16.8L15.1,16.8z"/>
		<path class="st1" d="M9.6,16.9c0.7,0.9,1.2,2.7,0.1,3.6c-0.3,0.3-0.7,0.4-1.1,0.4c-0.4,0-0.8-0.2-1.1-0.5c-0.8-0.9-1.8-1.4-3-1.6
			c-1.1-0.1-2.3,0.1-3.2,0.8c0-0.6,0.2-1.3,0.5-1.8c0.3-0.6,0.7-1.1,1.2-1.5c0.7-0.5,1.4-0.9,2.3-1s1.7,0,2.5,0.3
			C8.5,15.8,9.1,16.3,9.6,16.9z"/>
		<path class="st1" d="M5.5,20.5c1.1,0.2,2.7,1.4,2.4,2.7c-0.1,0.4-0.3,0.8-0.7,1c-0.3,0.2-0.8,0.3-1.2,0.3l0,0
			c-0.6-0.1-1.3-0.1-1.9,0.1c-0.6,0.2-1.2,0.5-1.7,0.9c-0.8,0.6-1.3,1.4-1.6,2.4c-0.7-1-1-2.3-0.8-3.6c0.2-0.8,0.6-1.6,1.1-2.3
			c0.6-0.6,1.3-1.1,2.1-1.4C4,20.4,4.8,20.3,5.5,20.5L5.5,20.5z"/>
		<path class="st1" d="M4.7,25.9c1-0.6,3-0.7,3.6,0.5c0.1,0.2,0.2,0.4,0.2,0.6c0,0.2,0,0.4,0,0.6c-0.1,0.2-0.1,0.4-0.3,0.6
			c-0.1,0.2-0.3,0.3-0.5,0.4c-0.6,0.3-1,0.8-1.4,1.3c-0.4,0.5-0.6,1.2-0.8,1.8c-0.2,1-0.1,2,0.4,2.9c-0.7-0.2-1.4-0.5-1.9-1
			s-1-1.1-1.3-1.8c-0.3-0.7-0.4-1.4-0.3-2.2c0.1-0.7,0.3-1.5,0.7-2.1C3.4,26.9,4,26.3,4.7,25.9z"/>
		<path class="st1" d="M7.5,30.6c0.4-1.1,1.8-2.4,3.1-1.9c0.2,0.1,0.4,0.2,0.5,0.3c0.2,0.1,0.3,0.3,0.4,0.5c0.1,0.2,0.1,0.4,0.2,0.6
			c0,0.2,0,0.4-0.1,0.6c-0.2,0.6-0.3,1.3-0.2,1.9c0.1,0.7,0.3,1.3,0.6,1.9c0.5,0.9,1.2,1.6,2.1,2c-0.6,0.3-1.2,0.4-1.8,0.5
			c-0.6,0-1.2-0.1-1.8-0.3c-0.6-0.2-1.1-0.5-1.6-0.9c-0.5-0.4-0.8-0.9-1.1-1.5c-0.3-0.6-0.4-1.2-0.4-1.8C7.2,31.9,7.3,31.3,7.5,30.6
			L7.5,30.6z"/>
		<path class="st1" d="M12.6,32.4c-0.4-1.1-0.2-3,1.1-3.5c0.4-0.1,0.8-0.1,1.2,0.1c0.4,0.2,0.7,0.5,0.8,0.9c0.2,0.6,0.6,1.2,1.1,1.6
			c0.5,0.5,1,0.8,1.6,1c0.9,0.4,1.9,0.4,2.9,0.2c-0.3,0.6-0.6,1.1-1.1,1.5c-0.5,0.4-1,0.8-1.6,1c-0.6,0.2-1.2,0.3-1.8,0.3
			c-0.6,0-1.2-0.2-1.8-0.4c-0.6-0.3-1.1-0.6-1.5-1.1C13.2,33.5,12.9,33,12.6,32.4L12.6,32.4z"/>
		<path class="st1" d="M17.7,30.4c-1-0.6-2-2.2-1.3-3.4c0.2-0.4,0.6-0.6,1-0.7c0.4-0.1,0.8-0.1,1.2,0.1c1,0.6,2.2,0.7,3.3,0.5
			C23,26.7,24,26,24.6,25c0.2,0.6,0.2,1.2,0.1,1.9c-0.1,0.6-0.3,1.2-0.6,1.8c-0.4,0.7-1,1.4-1.8,1.8s-1.6,0.6-2.4,0.6
			C19.2,31.1,18.4,30.8,17.7,30.4L17.7,30.4z"/>
		<path class="st1" d="M20.4,25.6c-1.2,0.2-3-0.4-3.2-1.7c0-0.2,0-0.4,0-0.6c0-0.2,0.1-0.4,0.2-0.6c0.1-0.2,0.3-0.3,0.4-0.4
			c0.2-0.1,0.4-0.2,0.6-0.2l0,0c0.6-0.1,1.2-0.4,1.8-0.8c0.5-0.4,1-0.9,1.3-1.4c0.5-0.8,0.7-1.8,0.6-2.8c0.5,0.4,1,0.8,1.3,1.3
			c0.3,0.5,0.6,1.1,0.7,1.7c0.1,0.8,0,1.7-0.3,2.5c-0.3,0.8-0.8,1.5-1.5,2C21.9,25.2,21.2,25.5,20.4,25.6L20.4,25.6z"/>
		<path class="st1" d="M19.3,20.2c-0.8,0.9-2.5,1.7-3.5,0.8c-0.2-0.1-0.3-0.3-0.4-0.5s-0.2-0.4-0.2-0.6c0-0.2,0-0.4,0.1-0.6
			c0.1-0.2,0.2-0.4,0.3-0.5c0.4-0.5,0.7-1.1,0.9-1.7c0.2-0.6,0.2-1.3,0.1-2c-0.2-1-0.6-1.9-1.3-2.7c1.3-0.1,2.5,0.3,3.5,1.1
			c0.6,0.5,1.1,1.3,1.4,2.1c0.3,0.8,0.3,1.7,0.2,2.5C20.2,18.9,19.8,19.6,19.3,20.2L19.3,20.2z"/>
	</g>
</g>
</svg>
