<svg width="40" height="40" viewBox="0 0 40 40" fill="none" xmlns="http://www.w3.org/2000/svg">
<g clip-path="url(#clip0_3646:7534)">
<path fill-rule="evenodd" clip-rule="evenodd" d="M14.6656 0C12.4544 0.00163099 10.6649 1.79246 10.6665 3.99918C10.6649 6.20591 12.456 7.99674 14.6672 7.99837H18.6678V4.00082C18.6695 1.79409 16.8783 0.00326198 14.6656 0C14.6672 0 14.6672 0 14.6656 0V0ZM14.6656 10.6667H4.00041C1.78927 10.6683 -0.00187393 12.4591 -0.000239674 14.6659C-0.00350818 16.8726 1.78763 18.6634 3.99878 18.6667H14.6656C16.8767 18.665 18.6678 16.8742 18.6662 14.6675C18.6678 12.4591 16.8767 10.6683 14.6656 10.6667Z" fill="#36C5F0"/>
<path fill-rule="evenodd" clip-rule="evenodd" d="M40.0002 14.6659C40.0019 12.4591 38.2107 10.6683 35.9996 10.6667C33.7884 10.6683 31.9973 12.4591 31.9989 14.6659V18.6667H35.9996C38.2107 18.665 40.0019 16.8742 40.0002 14.6659ZM29.3334 14.6659V3.99918C29.3351 1.79409 27.5456 0.00326198 25.3344 0C23.1233 0.00163099 21.3321 1.79246 21.3337 3.99918V14.6659C21.3305 16.8726 23.1216 18.6634 25.3328 18.6667C27.5439 18.665 29.3351 16.8742 29.3334 14.6659Z" fill="#2EB67D"/>
<path fill-rule="evenodd" clip-rule="evenodd" d="M25.3329 40.0001C27.5441 39.9984 29.3352 38.2076 29.3336 36.0009C29.3352 33.7942 27.5441 32.0033 25.3329 32.0017H21.3323V36.0009C21.3306 38.206 23.1218 39.9968 25.3329 40.0001ZM25.3329 29.3318H35.9997C38.2109 29.3302 40.002 27.5393 40.0004 25.3326C40.0036 23.1259 38.2125 21.335 36.0013 21.3318H25.3346C23.1234 21.3334 21.3323 23.1242 21.3339 25.331C21.3323 27.5393 23.1218 29.3302 25.3329 29.3318Z" fill="#ECB22E"/>
<path fill-rule="evenodd" clip-rule="evenodd" d="M0.000245258 25.3324C-0.001389 27.5392 1.78975 29.33 4.0009 29.3316C6.21205 29.33 8.00319 27.5392 8.00156 25.3324V21.3333H4.0009C1.78975 21.3349 -0.001389 23.1257 0.000245258 25.3324ZM10.667 25.3324V35.9991C10.6638 38.2059 12.4549 39.9967 14.666 40C16.8772 39.9983 18.6683 38.2075 18.6667 36.0008V25.3357C18.67 23.129 16.8788 21.3381 14.6677 21.3349C12.4549 21.3349 10.6654 23.1257 10.667 25.3324C10.667 25.3324 10.667 25.3341 10.667 25.3324Z" fill="#E01E5A"/>
</g>
<defs>
<clipPath id="clip0_3646:7534">
<rect width="40" height="40" fill="white"/>
</clipPath>
</defs>
</svg>
