<svg xmlns="http://www.w3.org/2000/svg" width="93" height="150" fill="none" viewBox="0 0 93 150"><path fill="url(#paint0_linear_4579_8353)" stroke="#2DA6F2" stroke-linecap="round" stroke-linejoin="round" stroke-miterlimit="10" stroke-width="1.192" d="M72.263 23.844V1.001L52.475 12.423v22.85l19.788-11.429z"></path><path fill="url(#paint1_linear_4579_8353)" stroke="#2DA6F2" stroke-linecap="round" stroke-linejoin="round" stroke-miterlimit="10" stroke-width="1.192" d="M92.056 35.272v-22.85L72.263 1v22.843l19.793 11.429z"></path><path fill="url(#paint2_linear_4579_8353)" stroke="#2DA6F2" stroke-linecap="round" stroke-linejoin="round" stroke-miterlimit="10" stroke-width="1.192" d="M92.056 12.423L72.263 23.85 52.475 12.423 72.263 1l19.793 11.422z"></path><path fill="url(#paint3_linear_4579_8353)" stroke="#2DA6F2" stroke-linecap="round" stroke-linejoin="round" stroke-miterlimit="10" stroke-width="1.192" d="M72.263 23.85V46.7L52.475 35.278V12.421L72.263 23.85z"></path><path fill="url(#paint4_linear_4579_8353)" stroke="#2DA6F2" stroke-linecap="round" stroke-linejoin="round" stroke-miterlimit="10" stroke-width="1.192" d="M92.056 12.421v22.857L72.263 46.7V23.85L92.055 12.42z"></path><path stroke="#2DA6F2" stroke-linecap="round" stroke-linejoin="round" stroke-miterlimit="10" stroke-width="1.192" d="M71.88 87.618l-35.446 20.465L1 87.618l35.434-20.453L71.88 87.618z"></path><path stroke="#2DA6F2" stroke-linecap="round" stroke-linejoin="round" stroke-miterlimit="10" stroke-width="1.192" d="M36.434 108.083v40.918L1 128.548v-40.93l35.434 20.465zM71.88 87.617v40.931l-35.446 20.453v-40.918L71.88 87.617zM71.88 46.7L36.434 67.165 1 46.7l35.434-20.453L71.88 46.7z"></path><path stroke="#2DA6F2" stroke-linecap="round" stroke-linejoin="round" stroke-miterlimit="10" stroke-width="1.192" d="M36.434 67.165v40.918L1 87.63V46.7l35.434 20.465zM71.88 46.7v40.93l-35.446 20.453V67.165L71.88 46.699z"></path><defs><linearGradient id="paint0_linear_4579_8353" x1="53.249" x2="76.592" y1="1.001" y2="32.013" gradientUnits="userSpaceOnUse"><stop stop-color="#422B99"></stop><stop offset="1" stop-color="#2DA6F2"></stop></linearGradient><linearGradient id="paint1_linear_4579_8353" x1="73.037" x2="96.378" y1="1" y2="32.02" gradientUnits="userSpaceOnUse"><stop stop-color="#422B99"></stop><stop offset="1" stop-color="#2DA6F2"></stop></linearGradient><linearGradient id="paint2_linear_4579_8353" x1="54.023" x2="61.669" y1="1.001" y2="31.475" gradientUnits="userSpaceOnUse"><stop stop-color="#422B99"></stop><stop offset="1" stop-color="#2DA6F2"></stop></linearGradient><linearGradient id="paint3_linear_4579_8353" x1="53.249" x2="76.598" y1="12.421" y2="43.435" gradientUnits="userSpaceOnUse"><stop stop-color="#422B99"></stop><stop offset="1" stop-color="#2DA6F2"></stop></linearGradient><linearGradient id="paint4_linear_4579_8353" x1="73.037" x2="96.383" y1="12.421" y2="43.443" gradientUnits="userSpaceOnUse"><stop stop-color="#422B99"></stop><stop offset="1" stop-color="#2DA6F2"></stop></linearGradient></defs></svg>