<svg width="40" height="40" viewBox="0 0 40 40" fill="none" xmlns="http://www.w3.org/2000/svg">
<path d="M23.6999 3.8914C29.1633 4.71307 33.4833 9.0314 34.3033 14.4947C34.4533 15.4931 33.6499 16.3881 32.6399 16.3881H23.4716C22.5516 16.3881 21.8049 15.6414 21.8049 14.7214V5.55307C21.8049 4.54307 22.7016 3.7414 23.6999 3.8914V3.8914Z" stroke="#182042" stroke-width="2" stroke-linecap="round" stroke-linejoin="round"/>
<path d="M31.9734 29.3146C33.1717 27.6963 33.9917 25.7813 34.3034 23.6996C34.4534 22.7013 33.6501 21.8063 32.6401 21.8063H25.8284C24.3434 21.8063 23.6 23.6013 24.65 24.6513L29.4684 29.4696C30.1784 30.1779 31.3751 30.1213 31.9734 29.3146V29.3146Z" stroke="#182042" stroke-width="2" stroke-linecap="round" stroke-linejoin="round"/>
<path d="M14.5151 11.1096C7.62676 12.1329 2.55177 18.7146 3.99677 26.1463C4.95843 31.0913 8.9551 35.0696 13.9034 36.0113C17.6551 36.7246 21.1851 35.7796 23.8901 33.7813C24.7001 33.1829 24.7618 31.9829 24.0501 31.2713L16.8768 24.0979C16.5634 23.7846 16.3884 23.3613 16.3884 22.9196V12.7696C16.3884 11.7679 15.5068 10.9629 14.5151 11.1096V11.1096Z" stroke="#182042" stroke-width="2" stroke-linecap="round" stroke-linejoin="round"/>
</svg>
