<svg width="14" height="13" viewBox="0 0 14 13" fill="none" xmlns="http://www.w3.org/2000/svg">
<g clip-path="url(#clip0_3749_7492)">
<path d="M7 2.19257V1.70052" stroke="#536685" stroke-width="0.9375" stroke-linecap="round" stroke-linejoin="round"/>
<path d="M10.125 3.25L10.6171 2.75795" stroke="#536685" stroke-width="0.9375" stroke-linecap="round" stroke-linejoin="round"/>
<path d="M3.87511 3.25L3.38306 2.75795" stroke="#536685" stroke-width="0.9375" stroke-linecap="round" stroke-linejoin="round"/>
<path d="M11.6744 6.375H12.1664" stroke="#536685" stroke-width="0.9375" stroke-linecap="round" stroke-linejoin="round"/>
<path d="M1.82056 6.375H2.31261" stroke="#536685" stroke-width="0.9375" stroke-linecap="round" stroke-linejoin="round"/>
<path d="M8.04156 6.89583V7.93749" stroke="#536685" stroke-width="0.9375" stroke-linecap="round" stroke-linejoin="round"/>
<path d="M9.60427 9.49999V6.76776C9.58686 6.09422 9.30282 5.45512 8.81454 4.99086C8.32626 4.52659 7.67367 4.27511 7.0001 4.29166C6.32654 4.27511 5.67394 4.52659 5.18566 4.99086C4.69738 5.45512 4.41334 6.09422 4.39594 6.76776V9.49999" stroke="#536685" stroke-width="0.9375" stroke-linecap="round" stroke-linejoin="round"/>
<path d="M9.94047 9.5H4.01243C3.90107 9.5 3.79265 9.53569 3.70306 9.60183C3.61348 9.66798 3.54745 9.76109 3.51467 9.86752L3.35425 10.3883C3.33026 10.4663 3.32488 10.5487 3.33856 10.6291C3.35224 10.7094 3.38459 10.7855 3.43301 10.851C3.48143 10.9166 3.54456 10.9699 3.61734 11.0066C3.69011 11.0434 3.77049 11.0625 3.852 11.0625H10.1246C10.208 11.0625 10.2901 11.0425 10.3641 11.0042C10.4381 10.9659 10.5018 10.9104 10.5499 10.8424C10.598 10.7743 10.6291 10.6957 10.6405 10.6132C10.652 10.5307 10.6435 10.4466 10.6157 10.368L10.4315 9.8472C10.3956 9.74566 10.3291 9.65775 10.2412 9.59557C10.1532 9.53339 10.0482 9.5 9.94047 9.5Z" stroke="#536685" stroke-width="0.9375" stroke-linecap="round" stroke-linejoin="round"/>
</g>
<defs>
<clipPath id="clip0_3749_7492">
<rect width="12.5" height="12.5" fill="white" transform="translate(0.75 0.125)"/>
</clipPath>
</defs>
</svg>
