<svg width="14" height="14" viewBox="0 0 14 14" fill="none" xmlns="http://www.w3.org/2000/svg">
<path d="M4.39594 7.78125H7.26052" stroke="#536685" stroke-width="0.9375" stroke-linecap="round" stroke-linejoin="round"/>
<path d="M4.39594 9.60417H5.95843" stroke="#536685" stroke-width="0.9375" stroke-linecap="round" stroke-linejoin="round"/>
<path d="M5.95833 11.6875H3.35417C2.77865 11.6875 2.3125 11.2214 2.3125 10.6458V3.35417C2.3125 2.77865 2.77865 2.3125 3.35417 2.3125H9.60417C10.1797 2.3125 10.6458 2.77865 10.6458 3.35417V5.4375" stroke="#536685" stroke-width="0.9375" stroke-linecap="round" stroke-linejoin="round"/>
<path d="M11.8296 7.60573L11.5926 7.36875C11.389 7.16511 11.0593 7.16511 10.8562 7.36875L7.58691 10.6396C7.53795 10.6885 7.51086 10.7547 7.51086 10.8234V11.6875H8.37493C8.4442 11.6875 8.51034 11.6599 8.55878 11.6115L11.8296 8.34219C12.0333 8.13854 12.0333 7.80886 11.8296 7.60573V7.60573Z" stroke="#536685" stroke-width="0.9375" stroke-linecap="round" stroke-linejoin="round"/>
<path d="M4.39594 5.28125V4.13542H6.47927V5.28125L5.4376 6.11458L4.39594 5.28125Z" stroke="#536685" stroke-width="0.9375" stroke-linecap="round" stroke-linejoin="round"/>
</svg>
