<svg width="80" height="81" viewBox="0 0 80 81" fill="none" xmlns="http://www.w3.org/2000/svg">
<path d="M39.7227 0.24753C39.0155 0.284247 38.3225 0.464965 37.6845 0.779081L9.8726 14.4748C9.15276 14.8291 8.52027 15.3446 8.02209 15.983C7.52392 16.6215 7.17286 17.3665 6.99501 18.1626L0.133618 48.9266C-0.024822 49.6354 -0.0425536 50.3695 0.0814723 51.0854C0.205498 51.8014 0.468761 52.4846 0.855682 53.0947C0.949501 53.2439 1.0504 53.3882 1.15802 53.5273L20.4083 78.1949C20.9066 78.8332 21.5392 79.3486 22.259 79.7027C22.9789 80.0568 23.7675 80.2406 24.5664 80.2405L55.4374 80.2331C56.236 80.2337 57.0244 80.0505 57.7443 79.697C58.4641 79.3435 59.0968 78.8289 59.5955 78.1913L78.8387 53.52C79.3372 52.8813 79.6885 52.1361 79.8665 51.3396C80.0444 50.5431 80.0445 49.7158 79.8666 48.9193L72.9946 18.1553C72.8167 17.3591 72.4657 16.6142 71.9675 15.9757C71.4693 15.3373 70.8368 14.8217 70.117 14.4674L42.3015 0.779081C41.499 0.383948 40.6123 0.201173 39.7227 0.24753Z" fill="#326CE5"/>
<path d="M39.9983 10.717C39.079 10.7171 38.3335 11.5706 38.3336 12.6233C38.3336 12.6395 38.3368 12.6549 38.3372 12.6709C38.3358 12.814 38.3291 12.9863 38.3336 13.1109C38.3556 13.718 38.484 14.1828 38.5613 14.7422C38.7013 15.9395 38.8187 16.932 38.7462 17.8545C38.6758 18.2024 38.4272 18.5205 38.2056 18.7416L38.1665 19.4675C37.1675 19.5528 36.1618 19.709 35.1573 19.944C30.8349 20.9555 27.1134 23.2501 24.2801 26.3483C24.0962 26.219 23.7746 25.9812 23.6789 25.9084C23.3817 25.9498 23.0813 26.0443 22.6901 25.8094C21.9451 25.2926 21.2666 24.5792 20.4456 23.7199C20.0694 23.3088 19.797 22.9174 19.3501 22.5211C19.2486 22.4312 19.0937 22.3095 18.9802 22.2169C18.6307 21.9298 18.2186 21.78 17.8206 21.766C17.3089 21.7479 16.8162 21.9541 16.4938 22.3708C15.9207 23.1117 16.1042 24.244 16.9029 24.9003C16.911 24.9069 16.9196 24.9121 16.9278 24.9186C17.0375 25.0103 17.1719 25.1278 17.2728 25.2046C17.7471 25.5655 18.1803 25.7502 18.6529 26.0367C19.6485 26.6704 20.4739 27.1958 21.1286 27.8293C21.3842 28.1102 21.4289 28.6051 21.4629 28.8191L21.9965 29.3103C19.1403 33.7403 17.8184 39.2122 18.5996 44.7876L17.9024 44.9966C17.7187 45.2411 17.459 45.6259 17.1874 45.7408C16.3309 46.0188 15.3669 46.1209 14.2032 46.2467C13.6568 46.2935 13.1853 46.2655 12.6061 46.3786C12.4786 46.4035 12.3009 46.4512 12.1615 46.4849C12.1566 46.486 12.1521 46.4875 12.1472 46.4886C12.1396 46.4904 12.1296 46.4942 12.1223 46.4959C11.1412 46.7402 10.5108 47.6697 10.7138 48.5855C10.9167 49.5014 11.8751 50.0585 12.8622 49.8392C12.8693 49.8375 12.8796 49.8372 12.8871 49.8355C12.8982 49.8329 12.908 49.8273 12.9191 49.8245C13.0567 49.7934 13.2291 49.7588 13.3495 49.7256C13.919 49.5684 14.3314 49.3375 14.8434 49.1354C15.9449 48.7282 16.8571 48.3881 17.7459 48.2556C18.1171 48.2256 18.5082 48.4916 18.7027 48.6038L19.4283 48.4755C21.0981 53.811 24.5975 58.1235 29.0286 60.8295L28.7263 61.5773C28.8352 61.8677 28.9554 62.2606 28.8743 62.5474C28.5511 63.4109 27.9977 64.3224 27.3675 65.3385C27.0624 65.808 26.7501 66.1723 26.4747 66.7095C26.4088 66.8381 26.3249 67.0356 26.2613 67.1714C25.8334 68.1149 26.1473 69.2015 26.9691 69.6092C27.7961 70.0196 28.8227 69.5868 29.2669 68.6415C29.2676 68.6401 29.2698 68.6391 29.2705 68.6378C29.2709 68.6367 29.27 68.6352 29.2705 68.6341C29.3337 68.5001 29.4234 68.3239 29.4768 68.1979C29.7126 67.641 29.7911 67.1638 29.957 66.6252C30.3974 65.485 30.6394 64.2886 31.2457 63.5431C31.4118 63.3389 31.6824 63.2604 31.9631 63.183L32.3401 62.4791C36.2031 64.0073 40.527 64.4174 44.8464 63.4066C45.8318 63.176 46.7831 62.8776 47.7027 62.5195C47.8087 62.7132 48.0056 63.0856 48.0584 63.1793C48.3436 63.2749 48.6549 63.3243 48.9085 63.7109C49.3621 64.5096 49.6723 65.4546 50.0503 66.5959C50.2162 67.1345 50.2981 67.6117 50.534 68.1686C50.5878 68.2955 50.677 68.4741 50.7403 68.6085C51.1837 69.5569 52.2134 69.9911 53.0417 69.5799C53.8634 69.1719 54.1776 68.0854 53.7495 67.1421C53.6859 67.0063 53.5985 66.8088 53.5326 66.6802C53.2572 66.143 52.9449 65.7823 52.6398 65.3129C52.0095 64.2967 51.4868 63.4526 51.1636 62.5891C51.0285 62.1437 51.1864 61.8668 51.2917 61.5773C51.2286 61.5029 51.0937 61.0823 51.0142 60.8845C55.6192 58.0822 59.0158 53.6089 60.6109 48.4425C60.8263 48.4774 61.2007 48.5457 61.3223 48.5708C61.5727 48.4007 61.8029 48.1786 62.2542 48.2152C63.143 48.3477 64.0553 48.688 65.1567 49.095C65.6687 49.2972 66.0812 49.5318 66.6507 49.6889C66.771 49.7221 66.9435 49.7531 67.0811 49.7842C67.0921 49.787 67.1019 49.7926 67.1131 49.7952C67.1205 49.7969 67.1308 49.7972 67.138 49.7989C68.1251 50.0179 69.0836 49.4612 69.2864 48.5452C69.4891 47.6293 68.8591 46.6997 67.8778 46.4556C67.7351 46.4222 67.5327 46.3654 67.3941 46.3383C66.8148 46.2252 66.3434 46.2531 65.797 46.2063C64.6332 46.0807 63.6692 45.9784 62.8127 45.7004C62.4635 45.5608 62.215 45.1325 62.0942 44.9563L61.4219 44.7547C61.7705 42.1558 61.6765 39.451 61.0733 36.7447C60.4646 34.0132 59.3887 31.515 57.9539 29.314C58.1263 29.1524 58.452 28.8552 58.5443 28.7678C58.5713 28.46 58.5481 28.1372 58.8573 27.7963C59.512 27.1628 60.3374 26.6375 61.333 26.0037C61.8055 25.7172 62.2424 25.5325 62.7166 25.1716C62.8239 25.09 62.9703 24.9607 63.083 24.8673C63.8815 24.2108 64.0654 23.0785 63.4921 22.3379C62.9188 21.5972 61.8078 21.5274 61.0093 22.1839C60.8956 22.2767 60.7414 22.3977 60.6394 22.4882C60.1925 22.8844 59.9164 23.2758 59.5403 23.6869C58.7193 24.5463 58.0408 25.2632 57.2958 25.7801C56.973 25.9738 56.5002 25.9068 56.2856 25.8937L55.6525 26.3593C52.0422 22.4576 47.1266 19.963 41.8337 19.4785C41.8189 19.2499 41.7995 18.8367 41.7946 18.7123C41.5779 18.4986 41.3161 18.3162 41.2504 17.8545C41.1779 16.932 41.2988 15.9395 41.4389 14.7422C41.5162 14.1828 41.6446 13.718 41.6665 13.1109C41.6715 12.9728 41.6635 12.7725 41.663 12.6233C41.6629 11.5706 40.9176 10.7169 39.9983 10.717H39.9983ZM37.9139 24.0241L37.4195 33.0239L37.3839 33.0422C37.3508 33.8473 36.7078 34.4902 35.9185 34.4902C35.5951 34.4902 35.2966 34.3832 35.0541 34.2006L35.0399 34.2079L27.8797 28.9767C30.0803 26.7466 32.8951 25.0985 36.139 24.3394C36.7316 24.2008 37.3238 24.0979 37.9139 24.0241ZM42.0862 24.0241C45.8735 24.5042 49.376 26.2716 52.06 28.9804L44.946 34.1786L44.9211 34.1676C44.2897 34.6429 43.4001 34.525 42.9079 33.889C42.7063 33.6285 42.6005 33.3221 42.5878 33.0129L42.5807 33.0092L42.0862 24.0241ZM25.2831 32.3383L31.8208 38.365L31.8137 38.4017C32.4038 38.9304 32.4908 39.8479 31.9987 40.4839C31.7971 40.7444 31.5272 40.9192 31.2375 41.0008L31.2304 41.0301L22.8501 43.5229C22.4236 39.5033 23.3428 35.596 25.2831 32.3383ZM54.6672 32.342C55.6386 33.9647 56.3742 35.777 56.8121 37.7418C57.2447 39.6831 57.3533 41.6208 57.1749 43.4936L48.752 40.9935L48.7449 40.9568C47.9906 40.7443 47.5271 39.9536 47.7027 39.1605C47.7746 38.8356 47.942 38.5608 48.1687 38.3577L48.1651 38.3394L54.6672 32.342ZM38.6573 38.8306H41.3357L43.0004 40.9751L42.4028 43.6512L39.9983 44.8426L37.5867 43.6475L36.9891 40.9715L38.6573 38.8306ZM47.2438 46.1697C47.3577 46.1637 47.471 46.1743 47.5818 46.1953L47.596 46.177L56.2643 47.6873C54.9957 51.3606 52.5682 54.5428 49.3247 56.6724L45.9598 48.2959L45.9704 48.2812C45.6613 47.541 45.9707 46.673 46.6818 46.32C46.8639 46.2296 47.0541 46.1795 47.2438 46.1697H47.2438ZM32.6852 46.2063C33.3467 46.2159 33.94 46.6891 34.0937 47.3831C34.1657 47.708 34.1307 48.0299 34.0119 48.3142L34.0368 48.3472L30.7075 56.6394C27.5948 54.5808 25.1155 51.4985 23.7892 47.7167L32.3828 46.2137L32.3971 46.232C32.4932 46.2138 32.5907 46.205 32.6852 46.2063V46.2063ZM39.9449 49.8392C40.1754 49.8305 40.4092 49.8792 40.6314 49.9895C40.9228 50.1341 41.1478 50.3617 41.2895 50.6347H41.3215L45.5578 58.5237C45.008 58.7136 44.4428 58.8759 43.8647 59.0112C40.6248 59.7694 37.3952 59.5396 34.4708 58.5127L38.6964 50.6384H38.7036C38.9571 50.1498 39.438 49.8584 39.9449 49.8392Z" fill="white" stroke="white" stroke-width="0.135714"/>
</svg>
