<svg width="195" height="56" viewBox="0 0 195 56" fill="none" xmlns="http://www.w3.org/2000/svg">
<path d="M11.6641 36.3822V33.534H3.2234V19.5582H0V36.3822H11.6641ZM19.7724 35.8522C20.4703 35.3224 21.002 34.6269 21.3676 33.7658V36.3822H24.458V28.2682C24.458 27.4072 24.2585 26.6123 23.8266 25.95C23.3946 25.2876 22.7632 24.7577 21.9657 24.3934C21.1682 24.0291 20.2044 23.8304 19.1078 23.8304C18.5096 23.8304 17.9115 23.8966 17.3465 23.996C16.7817 24.0953 16.25 24.2609 15.7515 24.4596C15.253 24.6584 14.7877 24.8902 14.389 25.1551L14.4887 28.0364C15.253 27.5396 15.984 27.1753 16.7152 26.9104C17.4463 26.6455 18.2438 26.5129 19.1411 26.5129C19.8389 26.5129 20.4038 26.6786 20.8026 27.0098C21.2014 27.341 21.4007 27.7714 21.4007 28.3014V29.1292H18.6094C16.9478 29.1292 15.6517 29.4604 14.6881 30.1559C13.7244 30.8514 13.2592 31.8118 13.2592 33.0373C13.2592 33.7328 13.4254 34.3289 13.7244 34.8918C14.0567 35.4548 14.4887 35.8854 15.0869 36.1834C15.685 36.5146 16.3829 36.6471 17.1472 36.6471C18.2105 36.6471 19.0746 36.3822 19.7724 35.8522ZM16.9811 33.7658C16.6486 33.5009 16.4494 33.1365 16.4494 32.673C16.4494 32.1099 16.6819 31.6794 17.1804 31.3814C17.6457 31.0832 18.3767 30.9177 19.3072 30.9177H21.3011V31.3814C21.3011 31.7787 21.2014 32.1761 20.9687 32.6067C20.7361 33.0373 20.4038 33.4016 19.9386 33.6996C19.4734 33.9977 18.9417 34.1632 18.3434 34.1632C17.7786 34.1632 17.3134 34.0308 16.9811 33.7658ZM34.2943 35.8191C35.0255 35.1899 35.5572 34.3289 35.8895 33.2691V36.3822H39.0131V24.1947H35.8895V29.891C35.8895 30.719 35.7565 31.4475 35.4907 32.0769C35.2249 32.7061 34.8593 33.2359 34.3609 33.5671C33.8624 33.9314 33.2974 34.097 32.6661 34.097C31.9682 34.097 31.4365 33.8983 31.0377 33.5009C30.6721 33.1034 30.4728 32.5073 30.4728 31.7457V24.1947H27.3491V31.8118C27.3491 33.4016 27.7146 34.5938 28.4789 35.4548C29.2432 36.3159 30.2402 36.7465 31.5361 36.7465C32.6661 36.7465 33.5632 36.4483 34.2943 35.8191ZM45.5596 36.3822V30.6859C45.5596 29.8579 45.6926 29.1292 45.9584 28.5C46.2242 27.8708 46.5898 27.341 47.0551 27.0098C47.5203 26.6455 48.0851 26.4798 48.7166 26.4798C49.4145 26.4798 49.9461 26.6786 50.3449 27.076C50.7105 27.4733 50.9099 28.0696 50.9099 28.8312V36.4153H54.0668V28.7981C54.0668 27.2084 53.7012 26.0162 52.9369 25.1551C52.1726 24.2941 51.1757 23.8635 49.8797 23.8635C48.783 23.8635 47.8859 24.1947 47.1547 24.7908C46.4569 25.4201 45.9252 26.2811 45.5596 27.341V24.2278H42.4359V36.4153H45.5596V36.3822ZM64.6341 36.6471C65.033 36.5809 65.4318 36.4815 65.7641 36.3822C66.1296 36.2828 66.4287 36.1503 66.761 36.051L66.7943 33.1034C66.2958 33.3685 65.7641 33.534 65.1991 33.6665C64.6341 33.7989 64.0693 33.8652 63.5043 33.8652C62.6736 33.8652 61.9424 33.6996 61.3776 33.4016C60.8126 33.1034 60.3807 32.673 60.1148 32.1099C59.849 31.58 59.7161 30.9508 59.7161 30.2884C59.7161 29.6261 59.849 29.03 60.1148 28.4669C60.3807 27.937 60.8126 27.5065 61.3776 27.1753C61.9424 26.8441 62.6403 26.7117 63.438 26.7117C64.0693 26.7117 64.6341 26.7779 65.1991 26.9104C65.7641 27.0429 66.2625 27.2416 66.761 27.4733L66.7277 24.4265C66.3622 24.2941 66.0299 24.1616 65.6976 24.0953C65.3653 23.996 64.9997 23.9298 64.5678 23.8966C64.1689 23.8304 63.737 23.7973 63.2718 23.7973C61.8761 23.7973 60.6797 24.0953 59.6496 24.6584C58.6194 25.2214 57.8219 26.0162 57.2569 26.9766C56.6921 27.9702 56.4262 29.0631 56.4262 30.3216C56.4262 31.5469 56.7252 32.673 57.2902 33.6334C57.8551 34.5938 58.6527 35.3555 59.6828 35.8854C60.713 36.4152 61.9093 36.7134 63.2718 36.7134C63.7703 36.7465 64.2355 36.7134 64.6341 36.6471ZM72.7094 36.3822V30.6859C72.7094 29.8579 72.8423 29.1292 73.1081 28.5C73.374 27.8708 73.7395 27.341 74.238 27.0098C74.7365 26.6455 75.2682 26.4798 75.8995 26.4798C76.6305 26.4798 77.1622 26.6786 77.5278 27.076C77.8934 27.4733 78.0928 28.0696 78.0928 28.8312V36.4153H81.2164V28.7981C81.2164 27.2084 80.851 26.0162 80.0866 25.1551C79.3223 24.2941 78.3253 23.8635 77.0293 23.8635C75.9328 23.8635 75.0023 24.1947 74.3044 24.7908C73.5734 25.4201 73.0417 26.2811 72.7094 27.341V19.5582H69.6189V36.3822H72.7094ZM91.3187 36.3822C93.1131 36.3822 94.6418 36.051 95.9045 35.3555C97.1673 34.66 98.131 33.6996 98.7956 32.4411C99.4602 31.1826 99.7925 29.6923 99.7925 28.0033C99.7925 26.3143 99.4602 24.8239 98.7956 23.5654C98.131 22.307 97.1673 21.3134 95.9045 20.6179C94.6418 19.9225 93.1131 19.5913 91.3187 19.5913H84.8386V36.4153H91.3187V36.3822ZM88.062 33.534V22.4063H91.2855C92.9137 22.4063 94.1766 22.9031 95.0737 23.8635C96.0043 24.8571 96.4362 26.2149 96.4362 27.9702C96.4362 29.7255 95.971 31.1163 95.0737 32.0769C94.1433 33.0373 92.8805 33.534 91.2855 33.534H88.062ZM107.967 35.8522C108.665 35.3224 109.197 34.6269 109.563 33.7658V36.3822H112.653V28.2682C112.653 27.4072 112.454 26.6123 112.022 25.95C111.59 25.2876 110.958 24.7577 110.161 24.3934C109.363 24.0291 108.399 23.8304 107.303 23.8304C106.705 23.8304 106.106 23.8966 105.541 23.996C104.977 24.0953 104.445 24.2609 103.946 24.4596C103.448 24.6584 102.983 24.8902 102.584 25.1551L102.684 28.0364C103.448 27.5396 104.179 27.1753 104.91 26.9104C105.641 26.6455 106.439 26.5129 107.336 26.5129C108.034 26.5129 108.599 26.6786 108.998 27.0098C109.396 27.341 109.596 27.7714 109.596 28.3014V29.1292H106.871C105.209 29.1292 103.913 29.4604 102.95 30.1559C101.986 30.8514 101.521 31.8118 101.521 33.0373C101.521 33.7328 101.687 34.3289 101.986 34.8918C102.318 35.4548 102.75 35.8854 103.348 36.1834C103.946 36.5146 104.644 36.6471 105.409 36.6471C106.439 36.6471 107.27 36.3822 107.967 35.8522ZM105.176 33.7658C104.844 33.5009 104.644 33.1365 104.644 32.673C104.644 32.1099 104.877 31.6794 105.375 31.3814C105.841 31.0832 106.572 30.9177 107.502 30.9177H109.496V31.3814C109.496 31.7787 109.396 32.1761 109.164 32.6067C108.931 33.0373 108.599 33.4016 108.134 33.6996C107.668 33.9977 107.17 34.1301 106.572 34.1301C106.007 34.1632 105.541 34.0308 105.176 33.7658ZM118.967 36.3822V31.1826C118.967 29.8247 119.266 28.7981 119.831 28.1026C120.396 27.4072 121.193 27.0429 122.157 27.0429C122.622 27.0429 123.054 27.109 123.453 27.2416V24.2278C123.254 24.1616 123.054 24.1285 122.855 24.0953C122.655 24.0622 122.423 24.0622 122.19 24.0622C121.426 24.0622 120.761 24.3272 120.23 24.8571C119.698 25.387 119.266 26.1486 119 27.076V24.1616H115.876V36.3491H118.967V36.3822ZM128.57 36.3822V32.4411L129.7 31.3814L133.356 36.3822H137.078L131.861 29.2618L136.978 24.1947H133.057L128.604 28.5V19.5582H125.513V36.3822H128.57ZM142.096 36.3822V19.5582H138.972V36.3822H142.096ZM146.881 40.9193C148.043 40.9193 148.975 40.6875 149.705 40.2238C150.436 39.7601 151.035 38.9323 151.533 37.7731L157.149 24.1947H153.926L150.636 32.7061L147.246 24.1947H144.023L149.041 36.3491L148.775 36.9783C148.609 37.3757 148.41 37.7069 148.111 37.8725C147.845 38.0712 147.412 38.1705 146.847 38.1705H144.255V40.9193H146.881Z" fill="#8A9BB7"/>
<path d="M180.145 42.9719C179.912 42.9719 179.68 42.8395 179.547 42.6075C179.447 42.3758 179.447 42.144 179.614 41.9452L186.692 32.2416L174.297 37.2755C174.197 37.3087 174.13 37.3418 174.031 37.3418C173.731 37.3418 173.466 37.1431 173.4 36.8781C173.3 36.6132 173.433 36.3151 173.665 36.1496L184.566 29.7578L165.391 28.6648C164.992 28.6317 164.76 28.3337 164.76 28.0025C164.76 27.7044 164.959 27.3733 165.391 27.3401L184.566 26.2472L173.665 19.8555C173.433 19.6899 173.3 19.3918 173.4 19.1268C173.499 18.8619 173.731 18.6632 174.031 18.6632C174.13 18.6632 174.197 18.6963 174.297 18.7294L186.692 23.7634L179.614 14.0267C179.481 13.828 179.447 13.563 179.547 13.3643C179.647 13.1325 179.88 13 180.145 13C180.311 13 180.478 13.0662 180.61 13.1987L194.701 27.2077C194.9 27.4064 195 27.7044 195 27.9694C195 28.2343 194.9 28.4993 194.701 28.7311L180.61 42.7732C180.478 42.9056 180.311 42.9719 180.145 42.9719Z" fill="#8A9BB7"/>
</svg>
