<?xml version="1.0" encoding="UTF-8" standalone="no"?>
<!DOCTYPE svg PUBLIC "-//W3C//DTD SVG 1.1//EN" "http://www.w3.org/Graphics/SVG/1.1/DTD/svg11.dtd">
<svg width="100%" height="100%" viewBox="0 0 97 41" version="1.1" xmlns="http://www.w3.org/2000/svg" xmlns:xlink="http://www.w3.org/1999/xlink" xml:space="preserve" xmlns:serif="http://www.serif.com/" style="fill-rule:evenodd;clip-rule:evenodd;stroke-linejoin:round;stroke-miterlimit:2;">
    <g transform="matrix(0.542857,0,0,0.542857,1,9.57501)">
        <path d="M161.959,28.281L161.838,27.256C161.812,27.085 161.238,23.049 163.959,20.209C164.751,19.381 165.707,18.906 166.581,18.906C167.326,18.906 167.938,19.234 168.249,19.858C169.752,22.879 161.959,28.281 161.959,28.281ZM150.112,21.919L150.008,20.215L149.992,20.001C149.989,19.948 149.612,14.556 149.948,10.718C150.317,6.544 151.528,3.848 153.033,3.848C153.34,3.848 153.635,4.007 153.866,4.298C154.617,5.241 154.836,7.758 154.366,10.025C153.61,13.645 152.412,16.516 151.534,18.618C151.285,19.212 151.066,19.738 150.893,20.195L150.112,21.919ZM141.893,33.286C139.972,33.286 139.065,31.43 139.065,29.685C139.065,20.681 143.991,18.906 146.145,19.598C146.145,19.598 146.216,21.308 146.389,23.509C146.54,25.421 146.676,27.683 146.709,27.879C146.709,27.879 144.919,33.286 141.893,33.286ZM126.237,19.948C126.237,19.948 125.689,33.286 120.702,33.286C118.313,33.286 118.128,30.598 118.128,29.774C118.128,20.261 125.277,18.567 126.237,19.948ZM80.099,33.605C77.238,33.605 76.219,30.739 76.219,28.057C76.219,23.17 79.039,19.379 81.464,19.379C83.827,19.379 84.685,22.656 84.685,24.857C84.685,29.763 82.67,33.605 80.099,33.605ZM34.573,22.261C32.933,24.836 29.198,27.384 28.112,27.79C28.112,27.79 27.333,22.745 31.411,19.8C34.4,17.641 35.759,20.399 34.573,22.261ZM159.313,34.09C160.478,35.944 162.553,36.847 165.486,36.847C168.711,36.847 172.047,34.398 173.957,32.117C175.091,30.764 175.214,29.987 174.737,29.562C174.303,29.176 173.344,29.681 172.465,30.484C171.281,31.567 168.771,33.124 166.575,33.124C163.913,33.124 162.7,31.375 162.7,31.375C168.122,28.033 172.115,24.239 172.115,20.983C172.115,17.334 169.437,15.702 166.783,15.702C162.035,15.702 156.91,20.086 156.91,27.17C156.91,29.511 157.69,31.5 157.69,31.5C157.69,31.5 156.748,32.981 153.754,32.731C150.572,32.465 150.773,26.652 150.773,26.652C150.773,26.652 151.747,24.818 152.114,24.135C154.268,20.137 157.216,14.663 157.693,8.098C157.958,4.42 156.927,2.445 156.015,1.435C155.204,0.536 154.121,0 153.117,0C149.436,0 146.882,3.817 146.263,7.587C145.658,11.284 145.901,16.783 145.901,16.783C145.901,16.783 142.594,15.956 139.275,18.232C136.239,20.314 134.892,24.481 134.468,26.584C134.275,27.525 134.209,28.513 134.272,29.518C134.301,29.987 134.443,30.889 134.443,30.889C134.443,30.889 133.351,33.215 131.411,33.215C128.286,33.215 130.349,18.57 130.469,17.746C130.565,17.083 130.966,15.667 128.761,15.568C127.429,15.508 126.873,16.011 126.771,16.667L126.681,17.321C126.681,17.321 122.162,14.212 117.045,19.811C114.319,22.788 113.329,27.097 113.284,30.554L113.282,30.772C113.282,30.772 112.161,34.048 109.552,33.558C107.815,33.231 107.596,30.107 107.596,28.9C107.596,26.584 108.124,24.003 108.549,21.929C108.817,20.614 109.05,19.481 109.05,18.861C109.05,16.646 108.435,15.702 106.998,15.702C105.041,15.702 103.284,17.269 101.339,19.688C98.855,22.776 97.008,27.601 97.008,27.601C97.008,27.601 97.089,26.738 97.217,25.907C97.301,25.369 97.526,22.879 97.943,20.618C98.174,19.366 98.259,18.341 98.273,18.231C98.346,17.618 98.209,17.088 97.878,16.7C97.552,16.318 97.054,16.098 96.511,16.098C95.641,16.098 94.523,16.686 93.992,18.334C93.749,19.079 93.61,19.628 93.437,20.512L93.274,21.332L92.669,20.775C90.275,18.561 86.957,15.923 82.2,15.923C75.501,15.923 71.885,22.192 71.885,28.091C71.885,28.818 71.93,29.512 72.017,30.154L72.051,30.407C72.051,30.407 70.652,33.83 68.198,33.206C67.123,32.933 66.461,31.775 66.461,29.016C66.461,26.721 66.917,23.602 67.19,21.731C67.282,21.096 67.356,20.594 67.377,20.36L67.437,19.668C67.625,17.585 67.678,16.644 66.995,16.19C66.493,15.861 65.964,15.702 65.379,15.702C64.818,15.702 64.375,15.964 63.981,16.248C63.375,16.687 61.391,19.356 57.644,25.538C57.583,25.638 57.548,25.692 57.545,25.696L57.136,26.492L56.153,28.68L56.689,25.501L56.723,25.293C56.81,24.758 56.965,23.815 57.029,23.515L57.186,22.825C57.439,21.718 57.966,19.415 58.036,19.008C58.261,17.658 58.173,16.757 57.764,16.253C57.462,15.882 56.956,15.702 56.218,15.702C54.859,15.702 53.765,16.746 51.879,19.842C51.585,20.326 50.483,22.173 49.612,23.635C48.485,25.53 47.462,26.932 47.462,26.932L47.699,24.398C47.882,23.26 48.563,18.035 48.572,17.79C48.57,16.688 48.031,16.175 46.875,16.175C46.405,16.175 45.257,16.28 44.777,17.25C44.336,18.136 43.114,22.152 42.52,28.293C42.52,28.293 37.79,32.921 32.733,32.921C30.87,32.921 29.395,32.184 28.86,30.744C28.86,30.744 31.566,29.315 32.85,28.411C36.14,26.097 38.533,23.738 38.533,20.709C38.533,17.002 35.173,15.333 32.397,15.702C27.63,16.334 23.601,21.409 23.601,27.305C23.601,32.85 26.642,36.847 31.933,36.847C38.062,36.847 42.293,31.711 42.293,31.711L42.165,34.055C42.087,35.277 42.582,36.847 44.6,36.847C45.136,36.847 46.115,36.674 46.635,35.513C49.774,28.543 53.062,23.015 53.094,22.96L53.207,22.772L53.777,21.66L54.627,20.22L53.946,23.31C53.822,24.016 52.74,30.287 52.585,33.052C52.505,34.448 52.504,35.821 53.041,36.41C53.313,36.709 53.749,36.847 54.414,36.847C55.9,36.847 56.823,36.325 57.155,35.294C59.575,27.867 62.182,22.856 62.292,22.645L62.394,22.451L63.762,19.739C63.762,19.739 62.683,25.925 62.683,30.143C62.683,32.159 63.073,35.83 65.901,36.527C70.253,37.601 72.928,33.025 72.928,33.025L73.211,33.826C74.453,35.945 76.518,37.065 79.182,37.065C84.703,37.065 88.27,32.708 88.27,25.965C88.27,21.781 86.372,19.385 86.372,19.385C86.372,19.385 88.479,20.136 90.026,21.261C91.702,22.48 92.893,23.771 92.893,23.771L92.851,24.047C92.802,24.368 92.757,24.691 92.712,25.018C92.538,26.312 92.384,27.668 92.254,29.051C92.134,30.34 92.072,31.505 92.072,32.514C92.072,33.127 92.105,33.692 92.174,34.244C92.235,34.758 92.359,35.227 92.542,35.634C92.601,35.758 93.15,36.847 94.538,36.847C95.465,36.847 96.06,36.507 96.499,35.471C100.789,25.34 104.226,22.093 104.527,21.77C105.324,20.919 104.964,22.503 104.964,22.503L104.933,22.711C104.927,22.745 104.397,26.177 104.278,27.22C104.158,28.25 104.097,29.233 104.097,30.143C104.097,32.965 104.719,36.182 107.973,36.69C112.421,37.385 113.962,33.858 113.962,33.858C113.962,33.858 115.571,36.847 119.37,36.847C124.942,36.847 126.667,32.531 126.667,32.531C127.254,35.128 128.298,36.527 130.81,36.527C133.53,36.527 135.419,33.431 135.419,33.431C135.419,33.431 136.992,36.847 140.835,36.847C145.285,36.847 147.559,33.404 147.652,33.26L148.169,32.442C148.169,32.442 149.617,36.157 153.353,36.37C156.886,36.572 159.313,34.09 159.313,34.09ZM6.66,35.417C2.732,35.27 2.515,32.183 6.123,31.386C9.42,30.658 12.169,31.824 12.169,31.824C12.169,31.824 11.337,35.593 6.66,35.417ZM24.105,4.216C26.375,4.405 26.204,7.596 25.586,9.596C23.776,15.461 19.447,15.636 19.447,15.636C19.447,15.636 20.816,3.943 24.105,4.216ZM19.063,18.439C19.063,18.439 26.341,18.488 28.819,9.813C30.262,4.764 28.219,0.461 23.96,0.37C19.66,0.278 16.328,4.126 14.767,15.627C14.767,15.627 10.61,15.073 8.774,11.76C7.905,10.193 6.594,10.922 7.003,12.412C8.385,17.45 14.505,18.261 14.505,18.261C14.505,18.261 14.251,20.491 13.873,23.22C13.506,25.869 12.876,29.201 12.876,29.201C12.876,29.201 9.014,27.967 4.906,28.834C-1.408,30.167 -2.102,38.078 5.623,38.859C14.682,39.775 16.393,33.444 16.393,33.444C16.393,33.444 18.173,34.318 20.698,36.6C23.497,39.129 24.776,40.698 25.357,40.136C25.993,39.52 24.592,37.367 21.997,34.623C19.062,31.517 17.03,30.716 17.03,30.716C17.03,30.716 17.515,28.662 18.045,25.328C18.605,21.8 19.063,18.439 19.063,18.439Z" style="fill:rgb(138,155,183);"/>
    </g>
</svg>
