<svg width="119" height="56" viewBox="0 0 119 56" fill="none" xmlns="http://www.w3.org/2000/svg">
<path fill-rule="evenodd" clip-rule="evenodd" d="M14.4164 15.0627L14.5033 15.8237L25.9483 16.14L25.9602 15.9533V15.9569L25.9804 15.6239L25.9983 15.291L26.0066 15.1245L21.9637 12.782C20.8542 12.1422 19.488 12.1422 18.3785 12.782L14.4164 15.0627ZM15.2155 20.064L25.525 20.3993L25.5464 20.2424L25.5452 20.2471L25.5631 20.1187L25.5952 19.8809L25.619 19.6871L25.6451 19.492L25.6784 19.2245L25.7105 18.9546L25.7985 18.1139L25.8734 17.2304L14.7434 17.5372L15.2167 20.0723L15.2155 20.064ZM16.4522 24.2651L24.7973 24.5778L25.0054 23.5671L25.1076 22.9999L25.1255 22.9048L25.1433 22.8049L25.2123 22.4006L25.2551 22.1211L25.2991 21.8833L25.3633 21.4909L15.6365 21.8072L15.9432 22.8501L16.4474 24.2806L16.4522 24.2651ZM21.6878 29.3568C21.9007 29.3085 22.1046 29.2267 22.2919 29.1142C22.4417 29.0263 22.5808 28.924 22.7128 28.8098C22.8675 28.6762 23.0104 28.5294 23.1397 28.3711L23.2384 28.2462L23.2978 28.1665L23.3882 28.0417C23.4857 27.9026 23.5749 27.7587 23.6581 27.61L23.6819 27.5684L23.7081 27.5256L24.0077 26.9608L24.1718 26.585L24.2432 26.4067L24.3573 26.1023L24.5095 25.6361L17.2061 25.9096L17.5592 26.522C17.7887 26.8787 18.0408 27.245 18.3262 27.572C18.7186 28.0238 19.1824 28.4281 19.7293 28.6826C19.8839 28.7539 20.0433 28.8158 20.2074 28.861L20.3619 28.9002L20.5106 28.9323L20.6057 28.9561L20.8875 29.0346C21.0718 29.0917 21.2538 29.1582 21.4309 29.2367L21.6866 29.3556L21.6878 29.3568ZM14.9813 38.9255L24.544 38.5842L24.2325 37.514L23.6641 35.9016L15.5901 35.5508L15.5485 35.7256L15.338 36.772L15.2286 37.3939L15.2001 37.5485L15.1477 37.8577L15.0835 38.2739L15.0443 38.4998L14.9789 38.9112L14.9813 38.9255ZM14.47 43.1777L25.4667 42.84L25.0149 40.4975L24.9756 40.3215L14.8279 39.96L14.6971 40.9589L14.4688 43.1777H14.47ZM11.9158 44.2765L11.9776 43.563L11.9966 43.3846L12.0157 43.2182L12.0918 42.5725L12.3034 41.0504L12.3962 40.4773L12.4116 40.3869L12.7089 38.9529L12.7565 38.7626L12.9158 38.1609L12.98 37.929L13.0157 37.8042L13.3046 36.948L13.3249 36.891L13.6578 36.0645L13.6697 36.0407L14.1215 35.1133L14.4117 34.5722L14.4355 34.5294L14.9646 33.703L15.1715 33.4093L15.2583 33.2904C15.5147 32.9535 15.7923 32.6334 16.0895 32.3319C16.1038 32.3177 16.118 32.3046 16.1323 32.2915L16.1716 32.2558L16.3654 32.087L16.6508 31.8563L16.734 31.7969L16.8529 31.7231L17.2215 31.4924L17.4677 31.3616L17.7768 31.2261C17.9195 31.169 18.0682 31.1214 18.2168 31.0858C18.3204 31.0599 18.4257 31.0412 18.5319 31.0299C18.5985 31.0227 18.6651 31.018 18.7317 31.0227H18.7353L18.7507 31.0394L18.7341 31.0537C18.7222 31.0537 18.7127 31.0549 18.702 31.0549L18.6461 31.0608C18.4368 31.0905 18.2358 31.1654 18.0491 31.2629C17.8874 31.3486 17.74 31.4532 17.5997 31.5721L17.4332 31.7207C17.3286 31.8218 17.231 31.93 17.1407 32.0418L17.0455 32.169L17.0146 32.2118L16.8981 32.3748L16.6579 32.7695L16.6341 32.8112L16.6103 32.854L16.388 33.2701L16.1561 33.7993L16.1085 33.9218L15.9956 34.2262L15.8945 34.5306L22.9042 34.2262C22.7279 33.8964 22.5338 33.5765 22.3228 33.2678C22.1206 32.9752 21.9018 32.6946 21.6569 32.4354C21.3215 32.081 20.9351 31.7647 20.4916 31.5602C20.3643 31.5008 20.2323 31.4413 20.0968 31.4152L19.8328 31.3557L19.7377 31.3319L19.4047 31.2404C19.2026 31.1773 19.004 31.1036 18.8102 31.018C18.6184 30.9335 18.4315 30.8387 18.2501 30.7338L17.8434 30.4781C17.0063 29.905 16.3154 29.1392 15.7435 28.3057L15.4997 27.9347L15.1668 27.3793L14.7672 26.6219L14.3225 25.6445L13.8041 24.2889L13.2488 22.4957L12.678 20.1092L12.1572 17.077L12.0704 16.4301L5.82401 20.0367C4.71458 20.6764 4.03204 21.8607 4.03204 23.1402V37.6437C4.03204 38.9243 4.71458 40.1087 5.82401 40.7472L11.9158 44.2765ZM28.235 44.3716L34.5134 40.7472C35.6228 40.1051 36.3054 38.9231 36.3054 37.6437V23.1366C36.3054 21.856 35.6228 20.6716 34.5134 20.0331L28.3919 16.4991L28.3622 16.8475L27.9341 20.0295L27.8961 20.234L27.7082 21.1461L27.6369 21.4612L27.5917 21.6396L27.5286 21.8798L27.336 22.573L27.3241 22.6087L27.0102 23.5219L26.9686 23.6289L26.8901 23.8263L26.6606 24.3733L26.6107 24.4803L26.5679 24.5695L26.4014 24.912L26.0661 25.5541L25.8996 25.8514L25.8853 25.8775L25.3443 26.7039L25.1362 26.9929L25.0506 27.107C24.7908 27.4398 24.5108 27.7563 24.2122 28.0548C24.198 28.069 24.1825 28.0821 24.1682 28.0952L24.0493 28.1998L23.6712 28.509L23.6355 28.5363C23.3894 28.7123 23.1337 28.8752 22.865 29.0144L22.6629 29.1119L22.3275 29.2474C22.1967 29.295 22.0612 29.333 21.9232 29.3628L21.7544 29.3925L21.9042 29.4734L22.2312 29.6696C23.0636 30.2106 23.7509 30.9538 24.3193 31.7624L24.5928 32.1726L24.9281 32.7291L25.3324 33.4925L25.7866 34.4818L26.3217 35.8612L26.9281 37.8018L27.5501 40.3655L28.1232 43.5939L28.2326 44.3751L28.235 44.3716ZM14.3059 45.6558L18.3654 47.9983C19.4749 48.6404 20.8412 48.6404 21.9506 47.9983L25.8746 45.7319L25.7272 44.5666L14.3903 44.2194L14.3047 45.6522L14.3059 45.6558ZM28.0079 11.9758L38.2377 17.8808C39.3471 18.5206 40.0308 19.7049 40.0308 20.9844V39.7912C40.0308 41.0718 39.3471 42.2562 38.2377 42.8947L21.9506 52.2981C20.8412 52.9402 19.4749 52.9402 18.3654 52.2981L2.07954 42.8995C0.97011 42.2574 0.286377 41.0754 0.286377 39.7959V20.9867C0.286377 19.7061 0.97011 18.5217 2.07954 17.8832L18.3666 8.4798C19.4761 7.84007 20.8423 7.84007 21.9518 8.4798L27.7784 11.845L27.8449 11.8604L28.009 11.9793L28.0079 11.9758Z" fill="#8A9BB7"/>
<path fill-rule="evenodd" clip-rule="evenodd" d="M53.2583 36.066C53.2738 36.2051 53.2274 36.2919 53.1192 36.3216C52.9028 36.3989 52.6697 36.4489 52.4224 36.4726L51.7719 36.5083C51.0906 36.5083 50.6375 36.3347 50.414 35.9851C50.1904 35.6355 50.0775 35.1456 50.0775 34.5106V19.5696C50.0775 19.4305 50.1488 19.3615 50.2867 19.3615H50.9598C51.1143 19.3615 51.1916 19.4329 51.1916 19.5696V34.1503C51.1916 34.645 51.2511 34.997 51.3652 35.2063C51.4794 35.4155 51.741 35.5202 52.1429 35.5202C52.2903 35.5205 52.4376 35.5126 52.5841 35.4964C52.7232 35.4809 52.8552 35.4583 52.9789 35.4251C53.0215 35.4249 53.0642 35.4289 53.1061 35.4369C53.1441 35.4453 53.1715 35.4869 53.1869 35.5642L53.2583 36.066ZM63.8912 30.2394C63.8926 29.5581 63.8305 28.8782 63.7057 28.2084C63.5821 27.5508 63.349 26.9741 63.0434 26.4783C62.7378 25.9824 62.3038 25.5841 61.7782 25.282C61.2526 24.98 60.5867 24.8302 59.7805 24.8302C59.0373 24.8302 58.4071 24.9776 57.8898 25.2701C57.3726 25.5627 56.9528 25.9598 56.6365 26.4545C56.3202 26.9492 56.0872 27.5187 55.9397 28.1608C55.7923 28.803 55.7185 29.4724 55.7185 30.1704C55.7185 30.9433 55.7899 31.6639 55.9278 32.3298C56.0658 32.9957 56.2988 33.576 56.6246 34.0719C56.9504 34.5677 57.3714 34.9542 57.8898 35.2324C58.4083 35.5107 59.0468 35.651 59.8043 35.651C60.5938 35.651 61.2514 35.4881 61.7782 35.1753C62.2928 34.862 62.723 34.4277 63.0315 33.9101C63.3407 33.3917 63.5618 32.8114 63.6938 32.1693C63.8241 31.539 63.8902 30.8972 63.8912 30.2537V30.2394ZM64.9828 30.1823C64.9828 32.287 64.5262 33.8852 63.613 34.9768C62.6997 36.0684 61.4155 36.6142 59.7603 36.6142C58.1193 36.6142 56.8541 36.0672 55.9647 34.9768C55.0752 33.8864 54.6293 32.3108 54.6293 30.2525C54.6293 28.1787 55.1014 26.5996 56.0444 25.5163C56.9873 24.433 58.2501 23.8908 59.8293 23.8908C61.4857 23.8908 62.758 24.4378 63.6486 25.5282C64.5393 26.6186 64.984 28.1715 64.984 30.1835L64.9828 30.1823ZM72.297 35.6177C72.5217 35.6147 72.7462 35.6028 72.97 35.582C73.2482 35.5582 73.5503 35.5166 73.8761 35.4548L74.8868 35.2348C75.2253 35.1528 75.5557 35.0402 75.8738 34.8983V25.4081C75.2817 25.1907 74.6664 25.0427 74.0402 24.9669L72.4147 24.8504C71.8106 24.8504 71.2541 24.9574 70.7428 25.175C70.2315 25.3926 69.7915 25.722 69.4193 26.162C69.0472 26.6019 68.7535 27.1679 68.537 27.8564C68.3206 28.5449 68.2124 29.3618 68.2124 30.306C68.2124 32.0397 68.5763 33.356 69.304 34.2538C70.0317 35.1516 71.0282 35.601 72.3005 35.601L72.297 35.6177ZM72.4171 23.8765C73.0675 23.8765 73.7726 23.9241 74.5301 24.0156C75.3025 24.112 76.0594 24.3071 76.7822 24.5959C76.9214 24.6578 76.9915 24.766 76.9915 24.9217V35.6236C76.9915 36.6605 76.8607 37.5238 76.5967 38.2123C76.3328 38.9008 75.9582 39.4609 75.4707 39.8949C74.9595 40.3422 74.3634 40.6819 73.7179 40.8937C73.0366 41.1256 72.291 41.304 71.4432 41.4288C71.2886 41.4443 71.203 41.3979 71.1875 41.2897L71.0948 40.6167C71.0948 40.5096 71.1566 40.4466 71.2803 40.4312L73.1258 39.9912C73.6541 39.8394 74.1499 39.5915 74.5884 39.2599C75.0059 38.9335 75.3337 38.5063 75.5408 38.0185C75.7668 37.5072 75.8773 36.8496 75.8773 36.0446V35.8817L75.0414 36.1492C74.7322 36.2348 74.4112 36.3038 74.0901 36.3573L73.1032 36.4964C72.7785 36.5357 72.4765 36.5559 72.1971 36.5559C71.2993 36.5559 70.5288 36.4013 69.8878 36.0802C69.2469 35.7592 68.7154 35.3371 68.2968 34.7806C67.8783 34.2241 67.5715 33.5653 67.3812 32.8067C67.1822 32.0015 67.0847 31.1746 67.0911 30.3452C67.0911 29.432 67.1957 28.5806 67.405 27.791C67.5909 27.0505 67.9179 26.3528 68.3682 25.7363C68.8022 25.156 69.3551 24.6994 70.0282 24.3664C70.7012 24.0335 71.5026 23.867 72.4301 23.867L72.4171 23.8765ZM83.5387 30.4499C83.5387 31.6865 83.7825 32.5546 84.27 33.0504C84.7575 33.5463 85.4353 33.7936 86.301 33.7936C86.5174 33.7936 86.8075 33.7698 87.1714 33.7223C87.5353 33.6747 87.8409 33.6057 88.087 33.513V27.036C87.7353 26.9517 87.3787 26.8898 87.0192 26.8505L86.1833 26.8029C85.3937 26.8029 84.7563 27.0883 84.2688 27.6614C83.7813 28.2346 83.5375 29.1633 83.5375 30.4475L83.5387 30.4499ZM80.0321 30.3999C80.0321 29.5319 80.1391 28.7055 80.3567 27.9147C80.5743 27.1239 80.906 26.4331 81.3555 25.8373C81.805 25.2416 82.3853 24.7695 83.0964 24.4223C83.8074 24.0751 84.6517 23.8991 85.6268 23.8991L86.7992 23.9467C87.1797 23.9776 87.6078 24.0477 88.0882 24.156V19.9073C88.0882 19.7218 88.1239 19.5981 88.1928 19.5363C88.2618 19.4745 88.3974 19.4436 88.5995 19.4436H90.9682C91.1382 19.4436 91.2655 19.4709 91.3511 19.5244C91.4367 19.5779 91.4783 19.7063 91.4783 19.9073V34.7425C91.4786 34.9176 91.4631 35.0923 91.4319 35.2645C91.4165 35.4346 91.3011 35.5891 91.0835 35.7402C90.8659 35.8912 90.5913 35.9994 90.2595 36.1005C89.9277 36.2015 89.5555 36.2907 89.1453 36.3668L87.9265 36.5416L86.7885 36.6344L85.9062 36.67C84.792 36.67 83.861 36.5155 83.1083 36.1944C82.3556 35.8733 81.7527 35.4512 81.2973 34.8947C80.8418 34.3382 80.516 33.6795 80.3222 32.9208C80.1214 32.1002 80.024 31.2578 80.0321 30.413V30.3999ZM99.4655 26.6983L98.8032 26.7101C98.5178 26.7185 98.211 26.753 97.8876 26.8148V35.9851C97.8876 36.1552 97.8602 36.2681 97.8043 36.3216C97.7484 36.3751 97.6141 36.4025 97.3977 36.4025H95.0076C94.8375 36.4025 94.7139 36.3751 94.6366 36.3216C94.5593 36.2681 94.52 36.1552 94.52 35.9851V26.0252C94.52 25.4985 94.6128 25.0858 94.7983 24.7838C94.9838 24.4818 95.3714 24.2689 95.9589 24.1453C96.1776 24.1064 96.3983 24.0794 96.62 24.0644L97.5356 23.9931L98.4869 23.9336L99.3109 23.9098C100.393 23.9098 101.332 24.0168 102.121 24.2344C102.909 24.452 103.564 24.7957 104.083 25.269C104.601 25.7422 104.986 26.3605 105.243 27.1263C105.5 27.8921 105.626 28.8244 105.626 29.9243V35.9839C105.626 36.154 105.599 36.2669 105.543 36.3204C105.487 36.374 105.353 36.4013 105.136 36.4013H102.722C102.552 36.4013 102.429 36.374 102.351 36.3204C102.274 36.2669 102.235 36.154 102.235 35.9839V29.715C102.242 29.2705 102.199 28.8266 102.108 28.3915C102.022 28.0205 101.876 27.7066 101.668 27.4521C101.46 27.1977 101.173 27.0074 100.809 26.8838C100.445 26.7601 99.9923 26.6983 99.4512 26.6983H99.4655ZM115.611 30.8767H113.778C113.544 30.8778 113.312 30.8932 113.081 30.9231C112.833 30.954 112.605 31.0278 112.396 31.1443C112.183 31.2645 112.003 31.4362 111.874 31.6437C111.735 31.8601 111.664 32.155 111.664 32.526C111.664 33.0683 111.846 33.4476 112.211 33.664C112.577 33.8804 113.068 33.9886 113.686 33.9886L114.057 33.9767L114.556 33.9292L115.103 33.8364C115.278 33.8011 115.449 33.7505 115.615 33.6854L115.611 30.8767ZM119 34.8935C119 35.0957 118.973 35.2657 118.917 35.4048C118.861 35.544 118.727 35.6759 118.51 35.7996C118.141 35.9749 117.757 36.115 117.361 36.2182C116.951 36.3252 116.534 36.412 116.108 36.4738L114.819 36.613L113.588 36.6605C112.536 36.6605 111.666 36.5606 110.976 36.3585C110.286 36.1563 109.735 35.8829 109.316 35.5344C108.897 35.186 108.603 34.7758 108.434 34.3037C108.265 33.8317 108.178 33.3251 108.178 32.7817C108.178 32.1776 108.279 31.6247 108.48 31.1217C108.681 30.6187 108.983 30.1823 109.384 29.8101C109.785 29.4379 110.293 29.149 110.906 28.9397C111.518 28.7304 112.241 28.6258 113.077 28.6258H115.631V28.2548C115.631 28.0384 115.608 27.8291 115.56 27.6281C115.512 27.4272 115.417 27.2524 115.27 27.1049C115.122 26.9575 114.918 26.8386 114.655 26.7446C114.392 26.6507 114.044 26.6055 113.609 26.6055L112.819 26.6412L111.937 26.7339L111.078 26.873L110.335 27.0467C110.133 27.0942 109.995 27.0942 109.919 27.0467C109.843 26.9991 109.788 26.8992 109.756 26.7446L109.385 25.1191C109.337 24.9491 109.335 24.829 109.373 24.7588C109.411 24.6887 109.492 24.6316 109.617 24.5852C110.328 24.3339 111.063 24.155 111.811 24.0513C112.568 23.9435 113.332 23.8891 114.097 23.8884C115.786 23.8884 117.023 24.2487 117.812 24.9681C118.602 25.6875 118.996 26.7518 118.996 28.1608L119 34.8935Z" fill="#8A9BB7"/>
</svg>
