<svg width="199" height="32" viewBox="0 0 199 32" fill="none" xmlns="http://www.w3.org/2000/svg">
<g clip-path="url(#clip0)">
<path d="M17.3223 21.6991L15.1677 14.5786L10.4442 19.452L8.62109 13.3061L21.0237 0.5C6.57701 0.5 1.52204 7.21441 2.90318 12.8188L5.63784 23.3507C7.07422 28.3052 1.90876 30.8773 0.5 31.4729C3.23465 31.5541 5.36161 31.4188 7.26758 30.8231C10.9138 29.8214 13.317 27.3576 17.3223 21.6991Z" fill="#FF5300"/>
<g opacity="0.8">
<path opacity="0.8" d="M31.0234 8.64933C29.587 3.69475 34.7524 1.1227 36.1612 0.527064C33.4266 0.445841 31.2996 0.581212 29.3936 1.17685C25.7198 2.17859 23.3166 4.64235 19.3113 10.3009L21.4659 17.4214L26.1894 12.548L28.0125 18.6939L15.6099 31.4729C30.0566 31.4729 35.1115 24.7585 33.7304 19.1541L31.0234 8.64933Z" fill="#FF5300"/>
</g>
<path d="M48.5911 9.976V16.0677H57.5409V18.2066H48.5911V25.2729H46.0498V7.81006H58.6458V9.976H48.5911Z" fill="#220E6D"/>
<path d="M61.0767 9.05547C61.0767 8.1891 61.7949 7.48517 62.734 7.48517C63.6732 7.48517 64.3914 8.16202 64.3914 9.00133C64.3914 9.89478 63.7008 10.5987 62.734 10.5987C61.7949 10.5987 61.0767 9.92185 61.0767 9.05547ZM61.491 12.0607H63.9494V25.3H61.491V12.0607Z" fill="#220E6D"/>
<path d="M75.7443 11.9254V14.2537C75.5509 14.2267 75.3576 14.2267 75.1918 14.2267C72.5677 14.2267 70.9379 15.797 70.9379 18.6939V25.3H68.4795V12.0607H70.8274V14.2808C71.7114 12.7105 73.3687 11.9254 75.7443 11.9254Z" fill="#220E6D"/>
<path d="M90.329 19.4791H79.3627C79.6666 21.8074 81.5725 23.3507 84.2519 23.3507C85.8264 23.3507 87.1523 22.8363 88.1467 21.7533L89.5003 23.2965C88.2849 24.7044 86.4065 25.4354 84.1691 25.4354C79.8047 25.4354 76.9043 22.6197 76.9043 18.6668C76.9043 14.7411 79.7771 11.9254 83.6719 11.9254C87.5667 11.9254 90.3566 14.6869 90.3566 18.7481C90.3842 18.9376 90.3566 19.2354 90.329 19.4791ZM79.3627 17.7463H88.0363C87.7877 15.5262 86.075 13.9559 83.6995 13.9559C81.3516 13.9559 79.6389 15.4992 79.3627 17.7463Z" fill="#220E6D"/>
<path d="M109.803 7.81006V25.3H105.688V18.1253H97.5941V25.3H93.4507V7.81006H97.5941V14.714H105.688V7.81006H109.803Z" fill="#220E6D"/>
<path d="M127.261 11.8441L121.074 26.1122C119.748 29.3611 117.869 30.3358 115.383 30.3358C113.974 30.3358 112.455 29.8755 111.571 29.1174L113.035 26.3558C113.643 26.8703 114.499 27.1951 115.273 27.1951C116.378 27.1951 116.985 26.7078 117.51 25.5165L117.565 25.3812L111.627 11.8441H115.742L119.554 20.9681L123.421 11.8441H127.261Z" fill="#220E6D"/>
<path d="M142.343 6.75415V25.3H138.531V23.7568C137.536 24.921 136.072 25.5166 134.249 25.5166C130.382 25.5166 127.399 22.8092 127.399 18.5856C127.399 14.362 130.382 11.6546 134.249 11.6546C135.934 11.6546 137.371 12.169 138.365 13.279V6.75415H142.343ZM138.448 18.5585C138.448 16.2301 136.929 14.8223 134.968 14.8223C132.979 14.8223 131.459 16.2301 131.459 18.5585C131.459 20.8869 132.979 22.2948 134.968 22.2948C136.901 22.2948 138.448 20.8869 138.448 18.5585Z" fill="#220E6D"/>
<path d="M154.414 11.6546V15.2555C154.083 15.2284 153.834 15.2013 153.53 15.2013C151.348 15.2013 149.884 16.3655 149.884 18.9376V25.2729H145.906V11.8441H149.718V13.631C150.657 12.3315 152.287 11.6546 154.414 11.6546Z" fill="#220E6D"/>
<path d="M168.695 17.6109V25.2729H164.966V23.5943C164.22 24.8126 162.811 25.4624 160.795 25.4624C157.591 25.4624 155.685 23.7026 155.685 21.4013C155.685 19.0187 157.397 17.3672 161.568 17.3672H164.717C164.717 15.6886 163.695 14.7139 161.568 14.7139C160.104 14.7139 158.613 15.2013 157.618 15.9594L156.182 13.2249C157.673 12.169 159.911 11.6004 162.093 11.6004C166.292 11.6546 168.695 13.5497 168.695 17.6109ZM164.717 21.0493V19.6685H161.983C160.132 19.6685 159.524 20.3454 159.524 21.2388C159.524 22.2135 160.353 22.8633 161.762 22.8633C163.115 22.8633 164.275 22.2677 164.717 21.0493Z" fill="#220E6D"/>
<path d="M186.208 17.5838V25.2729H182.23V18.2065C182.23 16.0406 181.208 15.0389 179.44 15.0389C177.534 15.0389 176.153 16.176 176.153 18.6668V25.3H172.175V11.8441H175.987V13.4144C177.065 12.2773 178.667 11.6275 180.517 11.6275C183.749 11.6546 186.208 13.4956 186.208 17.5838Z" fill="#220E6D"/>
<path d="M198.5 24.6502C197.671 25.2188 196.484 25.4895 195.268 25.4895C192.036 25.4895 190.13 23.8651 190.13 20.6703V15.1472H188.003V12.1419H190.13V8.86597H194.136V12.1419H197.561V15.1472H194.136V20.6162C194.136 21.7533 194.771 22.4031 195.848 22.4031C196.428 22.4031 197.008 22.2406 197.45 21.9157L198.5 24.6502Z" fill="#220E6D"/>
</g>
<defs>
<clipPath id="clip0">
<rect width="198" height="31" fill="white" transform="translate(0.5 0.5)"/>
</clipPath>
</defs>
</svg>
