<svg width="14" height="14" viewBox="0 0 14 14" fill="none" xmlns="http://www.w3.org/2000/svg">
<path d="M6.73975 4.91666V6.73958L7.66058 7.66041" stroke="#536685" stroke-width="0.9375" stroke-linecap="round" stroke-linejoin="round"/>
<path d="M10.1248 12.2083C11.2754 12.2083 12.2082 11.2756 12.2082 10.125C12.2082 8.9744 11.2754 8.04166 10.1248 8.04166C8.97424 8.04166 8.0415 8.9744 8.0415 10.125C8.0415 11.2756 8.97424 12.2083 10.1248 12.2083Z" stroke="#536685" stroke-width="0.9375" stroke-linecap="round" stroke-linejoin="round"/>
<path d="M10.9152 8.19792V8.19792C11.7285 5.88392 10.512 3.34871 8.198 2.53536C5.884 1.72203 3.34879 2.93855 2.53545 5.25255C1.72211 7.56655 2.93864 10.1018 5.25264 10.9151C6.20584 11.2501 7.24479 11.2501 8.198 10.9151" stroke="#536685" stroke-width="0.9375" stroke-linecap="round" stroke-linejoin="round"/>
</svg>
