<svg width="95" height="32" viewBox="0 0 95 32" fill="none" xmlns="http://www.w3.org/2000/svg">
<path d="M11.9462 8.02539C5.34375 8.02539 0 13.3678 0 19.9687C0 26.5695 5.34375 31.912 11.9462 31.912C18.5487 31.912 23.8925 26.5695 23.8925 19.9687C23.8925 13.3678 18.5487 8.02539 11.9462 8.02539ZM11.9462 25.9522C8.645 25.9522 5.96125 23.2691 5.96125 19.9687C5.96125 16.6683 8.645 13.9852 11.9462 13.9852C15.2475 13.9852 17.9312 16.6683 17.9312 19.9687C17.9312 23.2691 15.2475 25.9522 11.9462 25.9522Z" fill="#007DC1"/>
<path d="M32.9413 23.9816C32.9413 23.0318 34.0813 22.5807 34.7463 23.2455C37.7388 26.2847 42.6788 31.5085 42.7026 31.5322C42.7738 31.6034 42.8451 31.7221 43.1301 31.8171C43.2488 31.8646 43.4388 31.8646 43.6526 31.8646H49.0438C50.0176 31.8646 50.3026 30.7486 49.8513 30.1788L40.9213 21.0373L40.4463 20.5624C39.4251 19.3515 39.5438 18.8766 40.7076 17.6419L47.7851 9.73509C48.2363 9.16523 47.9513 8.073 46.9538 8.073H42.0613C41.8713 8.073 41.7288 8.073 41.5863 8.12049C41.3013 8.21547 41.1826 8.31044 41.1113 8.40542C41.0876 8.42916 37.1688 12.6556 34.7463 15.2437C34.0813 15.956 32.8938 15.4812 32.8938 14.5077V0.949765C32.8938 0.261185 32.3238 0 31.8726 0H27.8826C27.1938 0 26.8613 0.451138 26.8613 0.854788V30.9148C26.8613 31.6034 27.4313 31.7934 27.9063 31.7934H31.8963C32.5138 31.7934 32.9176 31.3422 32.9176 30.8911V30.5824V23.9816H32.9413Z" fill="#007DC1"/>
<path d="M65.5264 30.7724L65.0989 26.7834C65.0514 26.2373 64.5289 25.8574 63.9826 25.9523C63.6739 25.9998 63.3651 26.0236 63.0564 26.0236C59.8739 26.0236 57.2851 23.5304 57.0951 20.3725C57.0951 20.2775 57.0951 20.1588 57.0951 20.04V15.1488C57.0951 14.5077 57.5701 13.9853 58.2114 13.9853H63.5551C63.9351 13.9853 64.5051 13.6529 64.5051 12.9643V9.18898C64.5051 8.45291 64.0301 8.073 63.6026 8.073H58.2114C57.5939 8.073 57.0951 7.62186 57.0714 7.00452V0.949765C57.0714 0.569859 56.7864 0 56.0501 0H52.0839C51.5851 0 51.1101 0.308674 51.1101 0.926021C51.1101 0.926021 51.1101 20.2775 51.1101 20.3725C51.2764 26.8309 56.5726 31.9833 63.0564 31.9833C63.6026 31.9833 64.1251 31.9358 64.6476 31.8646C65.2176 31.7934 65.5976 31.3185 65.5264 30.7724Z" fill="#007DC1"/>
<path d="M94.3113 25.7626C90.9388 25.7626 90.4163 24.5516 90.4163 20.0165C90.4163 19.9927 90.4163 19.9927 90.4163 19.969V9.07044C90.4163 8.69053 90.1312 8.04944 89.3712 8.04944H85.3813C84.8825 8.04944 84.3363 8.45309 84.3363 9.07044V9.56906C82.6025 8.57181 80.5837 8.00195 78.4462 8.00195C71.8437 8.00195 66.5 13.3444 66.5 19.9452C66.5 26.5461 71.8437 31.8885 78.4462 31.8885C81.415 31.8885 84.1225 30.7963 86.2125 29.0155C87.3288 30.7251 89.1338 31.8648 91.96 31.8885C92.435 31.8885 95 31.9835 95 30.7726V26.5224C95 26.1662 94.715 25.7626 94.3113 25.7626ZM78.47 25.9525C75.1687 25.9525 72.485 23.2694 72.485 19.969C72.485 16.6686 75.1687 13.9855 78.47 13.9855C81.7712 13.9855 84.455 16.6686 84.455 19.969C84.4313 23.2694 81.7475 25.9525 78.47 25.9525Z" fill="#007DC1"/>
</svg>
