<?xml version="1.0" encoding="UTF-8" standalone="no"?>
<!DOCTYPE svg PUBLIC "-//W3C//DTD SVG 1.1//EN" "http://www.w3.org/Graphics/SVG/1.1/DTD/svg11.dtd">
<svg width="100%" height="100%" viewBox="0 0 76 29" version="1.1" xmlns="http://www.w3.org/2000/svg" xmlns:xlink="http://www.w3.org/1999/xlink" xml:space="preserve" xmlns:serif="http://www.serif.com/" style="fill-rule:evenodd;clip-rule:evenodd;stroke-linejoin:round;stroke-miterlimit:2;">
    <g transform="matrix(0.494329,0,0,0.494329,1,7.52651)">
        <path d="M148.378,13.118C149.258,14.044 149.698,15.298 149.698,16.883L149.698,25.237L146.435,25.237L146.435,17.833C146.435,16.899 146.169,16.162 145.639,15.619C145.107,15.078 144.384,14.807 143.471,14.807C142.391,14.823 141.536,15.191 140.905,15.907C140.274,16.624 139.959,17.541 139.959,18.658L139.959,25.237L136.72,25.237L136.72,6.677L139.959,6.677L139.959,14.407C140.872,12.655 142.475,11.764 144.766,11.73C146.294,11.73 147.498,12.193 148.378,13.118ZM129.528,14.607C128.448,14.607 127.573,14.973 126.9,15.707C126.228,16.441 125.891,17.392 125.891,18.559C125.891,19.759 126.228,20.726 126.901,21.46C127.573,22.194 128.449,22.56 129.529,22.56C131.123,22.56 132.319,22.035 133.116,20.985L135.133,22.66C134.537,23.526 133.72,24.218 132.767,24.662C131.787,25.129 130.65,25.362 129.354,25.362C128.042,25.362 126.876,25.079 125.854,24.512C124.848,23.96 124.023,23.13 123.476,22.122C122.911,21.097 122.628,19.918 122.628,18.584C122.628,17.233 122.915,16.041 123.488,15.007C124.039,13.995 124.869,13.162 125.879,12.606C126.9,12.039 128.075,11.756 129.404,11.756C130.616,11.756 131.7,11.968 132.655,12.393C133.61,12.818 134.386,13.423 134.985,14.206L133.016,16.082C132.119,15.099 130.957,14.607 129.529,14.607L129.528,14.607ZM120.567,11.855L120.567,25.237L117.328,25.237L117.328,23.111C116.867,23.826 116.227,24.408 115.472,24.8C114.716,25.192 113.849,25.387 112.869,25.387C111.607,25.387 110.499,25.099 109.543,24.524C108.588,23.949 107.845,23.14 107.313,22.098C106.783,21.056 106.517,19.859 106.517,18.508C106.517,17.175 106.782,15.995 107.314,14.969C107.844,13.944 108.588,13.147 109.544,12.581C110.498,12.014 111.598,11.73 112.844,11.73C113.824,11.73 114.696,11.926 115.46,12.318C116.22,12.707 116.864,13.289 117.328,14.006L117.328,11.856L120.567,11.856L120.567,11.855ZM116.157,21.673C116.838,21.014 117.228,20.143 117.328,19.059L117.328,18.109C117.228,17.024 116.838,16.153 116.158,15.495C115.476,14.835 114.613,14.507 113.566,14.507C112.454,14.507 111.549,14.886 110.851,15.645C110.154,16.404 109.796,17.383 109.781,18.584C109.796,19.784 110.154,20.764 110.851,21.523C111.549,22.281 112.454,22.661 113.566,22.661C114.613,22.661 115.476,22.331 116.157,21.673ZM103.264,13.581C104.335,14.798 104.871,16.507 104.871,18.709C104.871,19.143 104.862,19.467 104.846,19.684L95.006,19.684C95.222,20.635 95.666,21.381 96.339,21.923C97.011,22.465 97.838,22.736 98.818,22.736C99.489,22.738 100.154,22.606 100.773,22.348C101.389,22.095 101.945,21.716 102.405,21.235L104.148,23.061C103.475,23.801 102.645,24.382 101.719,24.761C100.764,25.162 99.706,25.362 98.543,25.362C97.182,25.362 95.982,25.079 94.944,24.512C93.927,23.966 93.092,23.136 92.54,22.122C91.975,21.097 91.693,19.918 91.693,18.584C91.693,17.25 91.979,16.066 92.553,15.032C93.108,14.016 93.942,13.178 94.956,12.618C95.986,12.042 97.156,11.755 98.468,11.755C100.595,11.755 102.193,12.365 103.264,13.581ZM101.907,17.508C101.873,16.524 101.549,15.741 100.935,15.157C100.321,14.573 99.507,14.281 98.494,14.281C97.547,14.281 96.754,14.569 96.114,15.145C95.475,15.72 95.081,16.507 94.932,17.508L101.907,17.508ZM88.174,12.443C88.946,11.984 89.847,11.747 90.877,11.73L90.877,14.882C89.497,14.798 88.398,15.119 87.576,15.845C86.754,16.57 86.343,17.55 86.343,18.783L86.343,25.237L83.105,25.237L83.105,11.855L86.343,11.855L86.343,14.431C86.791,13.565 87.402,12.901 88.173,12.443L88.174,12.443ZM80.679,24.41C79.616,25.06 78.503,25.386 77.341,25.386C76.195,25.386 75.256,25.048 74.526,24.373C73.795,23.697 73.43,22.701 73.43,21.384L73.43,8.728L76.643,8.344L76.643,12.405L80.454,12.405L80.454,14.782L76.644,14.782L76.644,20.81C76.644,21.427 76.759,21.865 76.992,22.123C77.225,22.382 77.572,22.511 78.038,22.511C78.536,22.511 79.168,22.327 79.931,21.96L80.679,24.411L80.679,24.41ZM67.429,11.855L70.643,11.855L70.643,19.356C70.643,23.734 67.599,25.362 64.511,25.362C61.422,25.362 58.379,23.734 58.379,19.356L58.379,11.856L61.593,11.856L61.593,19.472C61.593,21.15 62.84,22.511 64.511,22.511C66.182,22.511 67.429,21.151 67.429,19.472L67.429,11.855ZM51.721,8.678C53.109,9.431 54.266,10.547 55.071,11.905C55.886,13.272 56.292,14.79 56.292,16.458C56.292,18.125 55.886,19.647 55.072,21.022C54.267,22.39 53.11,23.517 51.722,24.286C50.302,25.086 48.728,25.486 47.001,25.486C45.273,25.486 43.701,25.086 42.281,24.286C40.892,23.517 39.735,22.39 38.93,21.022C38.116,19.647 37.709,18.125 37.709,16.458C37.709,14.79 38.116,13.272 38.929,11.905C39.734,10.546 40.892,9.431 42.28,8.678C43.7,7.895 45.273,7.503 47,7.503C48.728,7.503 50.301,7.895 51.721,8.678ZM44.086,11.293C43.186,11.805 42.438,12.547 41.919,13.443C41.387,14.353 41.122,15.357 41.122,16.458C41.122,17.558 41.392,18.568 41.932,19.484C42.455,20.384 43.202,21.134 44.1,21.66C45.005,22.194 45.988,22.46 47.052,22.46C48.078,22.465 49.086,22.189 49.966,21.66C50.855,21.135 51.59,20.384 52.096,19.484C52.62,18.562 52.891,17.518 52.881,16.458C52.881,15.358 52.619,14.353 52.096,13.444C51.589,12.551 50.854,11.809 49.966,11.293C49.084,10.771 48.077,10.499 47.052,10.504C46.011,10.498 44.987,10.771 44.087,11.293L44.086,11.293ZM13.314,0C17.899,0 24.827,1.412 28.052,4.65C28.869,5.471 29.938,7.079 29.938,9.434C29.938,13.621 26.578,20.045 22.868,23.771C20.95,25.697 17.899,28.214 13.795,28.214C9.783,28.214 6.719,25.478 5.832,24.587C2.434,21.175 -0,15.996 -0,11.167C-0,8.12 0.865,5.455 3.072,3.24C5.116,1.188 8.638,0 13.314,0ZM18.989,16.698C20.537,15.143 20.954,13.228 20.954,12.174C20.954,11.41 20.754,10.289 19.802,9.334C18.342,7.868 16.725,7.454 14.966,7.454C12.738,7.454 11.241,8.161 10.244,9.163C9.462,9.948 8.786,11.155 8.786,12.87C8.786,14.584 9.696,16.24 10.688,17.235C11.604,18.155 13.044,18.836 14.494,18.836C15.944,18.836 17.441,18.253 18.989,16.698Z" style="fill:rgb(138,155,183);"/>
    </g>
</svg>
