<svg width="13" height="14" viewBox="0 0 13 14" fill="none" xmlns="http://www.w3.org/2000/svg">
<path d="M9.7501 5.95833V4.82708C9.7501 4.55104 9.64021 4.28594 9.44489 4.09062L7.97198 2.61771C7.77666 2.4224 7.51156 2.3125 7.23552 2.3125H3.5001C2.92458 2.3125 2.45844 2.77865 2.45844 3.35417V10.6458C2.45844 11.2214 2.92458 11.6875 3.5001 11.6875H5.58343" stroke="#536685" stroke-width="0.9375" stroke-linecap="round" stroke-linejoin="round"/>
<path d="M8.96875 12.2083C7.67448 12.2083 6.625 11.1589 6.625 9.86458C6.625 8.57031 7.67448 7.52083 8.96875 7.52083C10.2635 7.52083 11.3125 8.57031 11.3125 9.86458C11.3125 11.1589 10.2635 12.2083 8.96875 12.2083Z" stroke="#536685" stroke-width="0.9375" stroke-linecap="round" stroke-linejoin="round"/>
<path d="M8.31995 10.2789L9.14859 9.45026L9.97724 10.2789" stroke="#536685" stroke-width="0.9375" stroke-linecap="round" stroke-linejoin="round"/>
<path d="M9.7501 4.91667H7.66677C7.37927 4.91667 7.14594 4.68333 7.14594 4.39583V2.3125" stroke="#536685" stroke-width="0.9375" stroke-linecap="round" stroke-linejoin="round"/>
</svg>
