<svg width="14" height="14" viewBox="0 0 14 14" fill="none" xmlns="http://www.w3.org/2000/svg">
<g clip-path="url(#clip0_3750_7362)">
<path d="M10.7087 8.49948C11.3842 9.17501 11.3118 10.3162 10.491 10.8917C9.9686 11.2578 9.23943 11.2578 8.71704 10.8917C7.8962 10.3156 7.82329 9.17501 8.49933 8.49948C9.10922 7.88907 10.0988 7.88907 10.7087 8.49948Z" stroke="#536685" stroke-width="0.9375" stroke-linecap="round" stroke-linejoin="round"/>
<path d="M10.7088 10.7088L11.6874 11.6875" stroke="#536685" stroke-width="0.9375" stroke-linecap="round" stroke-linejoin="round"/>
<path d="M4.91667 5.95833H3.35417C2.77865 5.95833 2.3125 5.49219 2.3125 4.91667V3.35417C2.3125 2.77865 2.77865 2.3125 3.35417 2.3125H4.91667C5.49219 2.3125 5.95833 2.77865 5.95833 3.35417V4.91667C5.95833 5.49219 5.49219 5.95833 4.91667 5.95833Z" stroke="#536685" stroke-width="0.9375" stroke-linecap="round" stroke-linejoin="round"/>
<path d="M10.6457 5.95833H9.08323C8.50771 5.95833 8.04156 5.49219 8.04156 4.91667V3.35417C8.04156 2.77865 8.50771 2.3125 9.08323 2.3125H10.6457C11.2213 2.3125 11.6874 2.77865 11.6874 3.35417V4.91667C11.6874 5.49219 11.2213 5.95833 10.6457 5.95833Z" stroke="#536685" stroke-width="0.9375" stroke-linecap="round" stroke-linejoin="round"/>
<path d="M4.91667 11.6875H3.35417C2.77865 11.6875 2.3125 11.2214 2.3125 10.6458V9.08334C2.3125 8.50782 2.77865 8.04167 3.35417 8.04167H4.91667C5.49219 8.04167 5.95833 8.50782 5.95833 9.08334V10.6458C5.95833 11.2214 5.49219 11.6875 4.91667 11.6875Z" stroke="#536685" stroke-width="0.9375" stroke-linecap="round" stroke-linejoin="round"/>
</g>
<defs>
<clipPath id="clip0_3750_7362">
<rect width="12.5" height="12.5" fill="white" transform="translate(0.75 0.75)"/>
</clipPath>
</defs>
</svg>
