<svg width="25" height="26" viewBox="0 0 25 26" fill="none" xmlns="http://www.w3.org/2000/svg">
<path d="M1 9.02107C1 4.03887 5.05094 0 10.0331 0V0C15.0153 0 19.0663 4.03887 19.0663 9.02107V9.02107C19.0663 14.0033 15.0153 18.0421 10.0331 18.0421V18.0421C5.05094 18.0421 1 14.0033 1 9.02107V9.02107Z" fill="#31C6E3"/>
<path fill-rule="evenodd" clip-rule="evenodd" d="M23.5292 6.69499C23.9317 7.07312 23.9515 7.70598 23.5734 8.10851L14.1574 18.1319C13.9684 18.3331 13.7046 18.4472 13.4285 18.4472C13.1525 18.4472 12.8887 18.3331 12.6997 18.1319L8.06413 13.1973C7.68599 12.7948 7.70576 12.1619 8.10829 11.7838C8.51082 11.4057 9.14368 11.4254 9.52182 11.828L13.4285 15.9867L22.1157 6.73915C22.4938 6.33662 23.1267 6.31685 23.5292 6.69499Z" fill="#182042"/>
<path fill-rule="evenodd" clip-rule="evenodd" d="M12.9646 5C7.9724 5 3.92773 9.04118 3.92773 14.0234C3.92773 19.0056 7.9724 23.0468 12.9646 23.0468C17.9567 23.0468 22.0014 19.0056 22.0014 14.0234C22.0014 13.4711 22.4491 13.0234 23.0014 13.0234C23.5537 13.0234 24.0014 13.4711 24.0014 14.0234C24.0014 20.1127 19.0588 25.0468 12.9646 25.0468C6.87035 25.0468 1.92773 20.1127 1.92773 14.0234C1.92773 7.93409 6.87035 3 12.9646 3C13.5168 3 13.9646 3.44772 13.9646 4C13.9646 4.55228 13.5168 5 12.9646 5Z" fill="#182042"/>
</svg>
