<svg width="14" height="14" viewBox="0 0 14 14" fill="none" xmlns="http://www.w3.org/2000/svg">
<path d="M3.56358 10.5224C2.8016 9.85416 2.25629 8.94531 2.05212 7.91145" stroke="#536685" stroke-width="0.9375" stroke-linecap="round" stroke-linejoin="round"/>
<path d="M8.15726 11.4349C7.68382 11.5963 7.17757 11.6875 6.64945 11.6875C6.12132 11.6875 5.61507 11.5963 5.14111 11.4349" stroke="#536685" stroke-width="0.9375" stroke-linecap="round" stroke-linejoin="round"/>
<path d="M8.15726 2.5651C7.68382 2.40365 7.17757 2.3125 6.64945 2.3125C6.12132 2.3125 5.61507 2.40365 5.14111 2.5651" stroke="#536685" stroke-width="0.9375" stroke-linecap="round" stroke-linejoin="round"/>
<path d="M9.73553 10.5224C10.4975 9.85416 11.0428 8.94531 11.247 7.91145" stroke="#536685" stroke-width="0.9375" stroke-linecap="round" stroke-linejoin="round"/>
<path d="M2.05212 6.08854C2.25577 5.05468 2.80108 4.14635 3.56358 3.4776" stroke="#536685" stroke-width="0.9375" stroke-linecap="round" stroke-linejoin="round"/>
<path d="M9.10622 6.08854H11.4338C11.8286 6.08854 12.076 5.66093 11.8781 5.31874L10.714 3.30312C10.5166 2.96093 10.0229 2.96093 9.82497 3.30312L8.66091 5.31874C8.46455 5.66093 8.71143 6.08854 9.10622 6.08854V6.08854Z" stroke="#536685" stroke-width="0.9375" stroke-linecap="round" stroke-linejoin="round"/>
</svg>
