<svg width="141" height="56" viewBox="0 0 141 56" fill="none" xmlns="http://www.w3.org/2000/svg">
<path d="M61.2289 24.0365C57.3753 24.0365 55.1988 27.2002 55.1988 30.6137C55.1988 32.1361 55.5318 37.1791 62.0258 37.1791C63.9407 37.1791 65.2371 36.6676 66.1886 36.1443C66.1886 35.3593 66.1886 33.2898 66.1886 33.2898C66.1886 33.2898 64.6305 34.5149 62.3588 34.5149C59.8254 34.5149 58.5766 33.0876 58.3744 31.5414H66.807C66.807 31.5414 66.807 30.8873 66.807 29.9239C66.807 28.9724 66.8308 24.0365 61.2289 24.0365ZM58.3863 29.0319C58.5647 27.9257 59.3973 26.6769 61.3716 26.6769C63.0605 26.6769 63.7028 27.8306 63.8455 29.0319H58.3863Z" fill="#8A9BB7"/>
<path d="M77.9752 28.7345C77.9752 24.2387 74.752 24.0246 73.1464 24.0246C70.7319 24.0246 68.603 25.0594 68.603 25.0594V27.9019C68.603 27.9019 70.506 26.665 72.3733 26.665C74.7758 26.665 74.8709 27.9376 74.8709 29.4243C70.506 29.2578 67.8299 30.1499 67.8299 33.3968C67.8299 36.6319 71.1363 37.179 73.5983 37.179C75.4775 37.179 77.999 36.7152 77.999 36.7152C77.999 36.7152 77.9752 32.8616 77.9752 28.7345ZM74.8234 34.5624C74.8234 34.5624 70.9698 35.3117 70.9698 33.1471C70.9698 31.3154 73.8481 31.5533 74.8234 31.6128V34.5624Z" fill="#8A9BB7"/>
<path d="M84.719 34.5387C83.2799 34.5387 82.8993 33.7775 82.8993 32.6357C82.8993 32.6357 82.8993 29.6266 82.8993 26.9505H86.4198V24.2982H82.8993C82.8993 23.1088 82.8993 22.0384 82.8993 21.2177H79.7474V32.1956C79.7474 34.0629 79.5809 37.191 83.8983 37.191C85.9203 37.191 86.8955 36.5844 86.8955 36.5844L86.9074 33.8607C86.9193 33.8607 85.73 34.5387 84.719 34.5387Z" fill="#8A9BB7"/>
<path d="M53.0222 24.0841V20.8847C53.0222 20.8847 51.1311 19.8499 48.0625 19.8499C44.994 19.8499 41.973 21.2296 41.973 24.7026C41.973 27.557 43.9235 28.5561 45.5411 29.1389C47.1705 29.7217 48.6453 30.2688 49.4303 30.6851C50.2153 31.1014 50.7029 31.5176 50.7029 32.481C50.7029 33.4325 50.1558 34.384 47.4916 34.384C44.8275 34.384 42.1752 32.6238 42.1752 32.6238V35.847C42.1752 35.847 44.2447 37.2028 47.4916 37.2028C50.7386 37.2028 53.9856 35.9778 53.9856 32.2313C53.9856 29.0557 51.1192 27.9139 50.2867 27.5689C49.5968 27.2478 47.0278 26.3796 46.5639 26.1417C45.8979 25.7968 45.1605 25.4162 45.2318 24.3814C45.3032 23.418 46.0287 22.6449 47.9079 22.6449C50.6078 22.6449 53.0222 24.0841 53.0222 24.0841Z" fill="#8A9BB7"/>
<path d="M132.627 36.9055V20.0759H129.475V36.9055H132.627Z" fill="#8A9BB7"/>
<path d="M137.313 36.9056L132.306 30.0905L137.206 24.322H140.881L135.874 30.0905L141 36.9056H137.313Z" fill="#8A9BB7"/>
<path d="M109.22 24.0365C105.366 24.0365 103.19 27.2002 103.19 30.6137C103.19 32.1361 103.523 37.1791 110.017 37.1791C111.932 37.1791 113.228 36.6676 114.18 36.1443C114.18 35.3593 114.18 33.2898 114.18 33.2898C114.18 33.2898 112.622 34.5149 110.35 34.5149C107.817 34.5149 106.568 33.0876 106.365 31.5414H114.798C114.798 31.5414 114.798 30.8873 114.798 29.9239C114.798 28.9724 114.822 24.0365 109.22 24.0365ZM106.377 29.0319C106.556 27.9257 107.388 26.6769 109.363 26.6769C111.052 26.6769 111.694 27.8306 111.837 29.0319H106.377Z" fill="#8A9BB7"/>
<path d="M122.232 24.0365C118.378 24.0365 116.202 27.2002 116.202 30.6137C116.202 32.1361 116.535 37.1791 123.029 37.1791C124.943 37.1791 126.24 36.6676 127.191 36.1443C127.191 35.3593 127.191 33.2898 127.191 33.2898C127.191 33.2898 125.633 34.5149 123.362 34.5149C120.828 34.5149 119.579 33.0876 119.377 31.5414H127.798C127.798 31.5414 127.798 30.8873 127.798 29.9239C127.798 28.9724 127.822 24.0365 122.232 24.0365ZM119.377 29.0319C119.556 27.9257 120.388 26.6769 122.362 26.6769C124.051 26.6769 124.694 27.8306 124.836 29.0319H119.377Z" fill="#8A9BB7"/>
<path d="M101.097 24.0841V20.8847C101.097 20.8847 99.5148 19.8499 96.2083 19.8499C91.8077 19.8499 87.6687 23.0374 87.6687 28.6751C87.6687 34.0748 91.094 37.191 96.2678 37.191C99.8359 37.191 101.489 36.1681 101.489 36.1681V29.2222C101.489 28.3777 100.799 27.6879 99.9549 27.6879H94.9357V30.4948H98.3373V34.0986C98.3373 34.0986 97.481 34.3959 96.1727 34.3959C92.7354 34.3959 90.9513 31.7436 90.9513 28.6988C90.9513 25.4638 92.9851 22.6687 96.2797 22.6687C98.6347 22.6449 99.8002 23.2872 101.097 24.0841Z" fill="#8A9BB7"/>
<path d="M6.10145 17.8875C6.10145 17.8875 10.5616 14.9616 17.7811 14.9616C25.0006 14.9616 29.4607 17.8875 29.4607 17.8875L26.5349 33.3969H9.01541L6.10145 17.8875Z" fill="#8A9BB7"/>
<path d="M6.10145 36.8223C6.10145 36.8223 10.6449 38.9037 17.7811 38.9037C24.9173 38.9037 29.4607 36.8223 29.4607 36.8223V40.1287C29.4607 40.1287 24.8341 42.0793 17.7811 42.0793C10.7281 42.0793 6.10145 40.1287 6.10145 40.1287V36.8223Z" fill="#8A9BB7"/>
<path d="M5.83982 34.6813V29.1627C5.83982 28.2706 5.1143 27.5451 4.22227 27.5451H0V30.471H2.72366V34.6932H5.83982V34.6813Z" fill="#8A9BB7"/>
<path d="M29.7224 34.6813V29.1627C29.7224 28.2706 30.4479 27.5451 31.3399 27.5451H35.5622V30.471H32.8385V34.6932H29.7224V34.6813Z" fill="#8A9BB7"/>
</svg>
