<svg width="40" height="40" viewBox="0 0 40 40" fill="none" xmlns="http://www.w3.org/2000/svg">
<path d="M33.3335 20V33.3333" stroke="#182042" stroke-width="2" stroke-linecap="round" stroke-linejoin="round"/>
<path d="M24.5005 24.45V33.3333" stroke="#182042" stroke-width="2" stroke-linecap="round" stroke-linejoin="round"/>
<path d="M6.66699 28.3333V33.3333" stroke="#182042" stroke-width="2" stroke-linecap="round" stroke-linejoin="round"/>
<path d="M15.5 22.6667V33.3334" stroke="#182042" stroke-width="2" stroke-linecap="round" stroke-linejoin="round"/>
<path d="M26.566 14.1809C27.705 15.32 27.705 17.1667 26.566 18.3057C25.4269 19.4447 23.5802 19.4447 22.4412 18.3057C21.3022 17.1667 21.3022 15.32 22.4412 14.1809C23.5802 13.0419 25.427 13.0419 26.566 14.1809Z" stroke="#182042" stroke-width="2" stroke-linecap="round" stroke-linejoin="round"/>
<path d="M35.5709 6.67593C36.7099 7.81496 36.7099 9.66169 35.5709 10.8007C34.4318 11.9397 32.5851 11.9397 31.4461 10.8007C30.307 9.66168 30.307 7.81494 31.4461 6.67593C32.5851 5.5369 34.4318 5.5369 35.5709 6.67593Z" stroke="#182042" stroke-width="2" stroke-linecap="round" stroke-linejoin="round"/>
<path d="M8.55425 15.6709C9.69328 16.81 9.69328 18.6567 8.55425 19.7957C7.41522 20.9347 5.56848 20.9347 4.42947 19.7957C3.29044 18.6567 3.29044 16.8099 4.42947 15.6709C5.5685 14.5319 7.41523 14.5319 8.55425 15.6709" stroke="#182042" stroke-width="2" stroke-linecap="round" stroke-linejoin="round"/>
<path d="M17.5606 8.16763C18.6996 9.30666 18.6996 11.1534 17.5606 12.2924C16.4216 13.4314 14.5748 13.4314 13.4358 12.2924C12.2968 11.1534 12.2968 9.30664 13.4358 8.16763C14.5748 7.0286 16.4216 7.0286 17.5606 8.16763Z" stroke="#182042" stroke-width="2" stroke-linecap="round" stroke-linejoin="round"/>
<path d="M31.2834 10.6L26.7334 14.3833" stroke="#182042" stroke-width="2" stroke-linecap="round" stroke-linejoin="round"/>
<path d="M22.067 14.6333L17.917 11.85" stroke="#182042" stroke-width="2" stroke-linecap="round" stroke-linejoin="round"/>
<path d="M8.73389 15.8833L13.2672 12.1" stroke="#182042" stroke-width="2" stroke-linecap="round" stroke-linejoin="round"/>
</svg>
