<svg xmlns="http://www.w3.org/2000/svg" width="101" height="158" fill="none" viewBox="0 0 101 158"><path stroke="#8B84A4" stroke-linecap="round" stroke-linejoin="round" stroke-miterlimit="10" stroke-width="1.132" d="M100 71.421l-49.508 28.585L1 71.421l49.492-28.568L100 71.421z"></path><path stroke="#8B84A4" stroke-linecap="round" stroke-linejoin="round" stroke-miterlimit="10" stroke-width="1.132" d="M50.492 100.006v57.153L1 128.591v-57.17l49.492 28.585z"></path><path stroke="#8B84A4" stroke-linecap="round" stroke-linejoin="round" stroke-miterlimit="10" stroke-width="1.132" d="M100 71.422v57.169L50.49 157.159v-57.153L100 71.422z"></path><path fill="#8B84A4" d="M75.25 28.563V0L50.508 14.282v28.571l24.742-14.29zM100 42.853V14.28L75.25 0v28.563L100 42.853z"></path><path fill="#BCB7CF" d="M100 14.282l-24.75 14.29-24.742-14.29L75.25 0 100 14.282z"></path><path fill="#A9A3BF" d="M75.25 28.571v28.571L50.507 42.861v-28.58l24.741 14.29z"></path><path fill="#8B84A4" d="M100 14.281v28.58L75.25 57.142v-28.57L100 14.281z"></path></svg>