<svg width="80" height="80" viewBox="0 0 80 80" fill="none" xmlns="http://www.w3.org/2000/svg">
<path fill-rule="evenodd" clip-rule="evenodd" d="M29.3315 0C24.9092 0.00326197 21.3302 3.58491 21.3335 7.99835C21.3302 12.4118 24.9125 15.9934 29.3347 15.9967H37.336V8.00161C37.3393 3.58817 33.757 0.00652394 29.3315 0C29.3347 0 29.3347 0 29.3315 0V0ZM29.3315 21.3333H8.00128C3.57901 21.3365 -0.00325956 24.9182 8.93239e-06 29.3316C-0.00652805 33.7451 3.57574 37.3267 7.99801 37.3333H29.3315C33.7537 37.33 37.336 33.7483 37.3327 29.3349C37.336 24.9182 33.7537 21.3365 29.3315 21.3333Z" fill="#36C5F0"/>
<path fill-rule="evenodd" clip-rule="evenodd" d="M80 29.3316C80.0033 24.9182 76.421 21.3365 71.9987 21.3333C67.5765 21.3365 63.9942 24.9182 63.9975 29.3316V37.3333H71.9987C76.421 37.33 80.0033 33.7483 80 29.3316ZM58.6665 29.3316V7.99835C58.6698 3.58817 55.0908 0.00652394 50.6685 0C46.2462 0.00326197 42.664 3.58491 42.6672 7.99835V29.3316C42.6607 33.7451 46.243 37.3267 50.6653 37.3333C55.0875 37.33 58.6698 33.7483 58.6665 29.3316Z" fill="#2EB67D"/>
<path fill-rule="evenodd" clip-rule="evenodd" d="M50.6651 80.0001C55.0874 79.9968 58.6696 76.4152 58.6664 72.0017C58.6696 67.5883 55.0874 64.0066 50.6651 64.0034H42.6638V72.0017C42.6606 76.4119 46.2428 79.9936 50.6651 80.0001ZM50.6651 58.6635H71.9986C76.4208 58.6603 80.0031 55.0786 79.9998 50.6652C80.0064 46.2517 76.4241 42.6701 72.0018 42.6636H50.6684C46.2461 42.6668 42.6638 46.2485 42.6671 50.6619C42.6638 55.0786 46.2428 58.6603 50.6651 58.6635Z" fill="#ECB22E"/>
<path fill-rule="evenodd" clip-rule="evenodd" d="M0.000246375 50.6649C-0.00302212 55.0783 3.57925 58.66 8.00152 58.6632C12.4238 58.66 16.0061 55.0783 16.0028 50.6649V42.6665H8.00152C3.57925 42.6698 -0.00302212 46.2514 0.000246375 50.6649ZM21.3337 50.6649V71.9982C21.3272 76.4116 24.9094 79.9933 29.3317 79.9998C33.754 79.9966 37.3363 76.4149 37.333 72.0015V50.6714C37.3395 46.2579 33.7573 42.6763 29.335 42.6698C24.9094 42.6698 21.3304 46.2514 21.3337 50.6649C21.3337 50.6649 21.3337 50.6681 21.3337 50.6649Z" fill="#E01E5A"/>
</svg>
