<svg width="175" height="56" viewBox="0 0 175 56" fill="none" xmlns="http://www.w3.org/2000/svg">
<g clip-path="url(#clip0)">
<path d="M40.1668 30.3796L38.1478 30.2009C36.5631 30.0734 35.9499 29.4343 35.9499 28.3607C35.9499 27.083 36.9211 26.2902 38.7614 26.2902C40.0649 26.2902 41.2148 26.5973 42.1103 27.2873L43.3117 26.0859C42.186 25.166 40.5765 24.7317 38.7878 24.7317C36.1041 24.7317 34.1615 26.1107 34.1615 28.4119C34.1615 30.4821 35.4653 31.581 37.9188 31.7856L39.9889 31.9643C41.4456 32.0924 42.0847 32.7056 42.0847 33.8046C42.0847 35.2871 40.8068 36.0278 38.7357 36.0278C37.1764 36.0278 35.8219 35.6189 34.8239 34.5709L33.5969 35.7979C34.9773 37.1268 36.6386 37.6125 38.7599 37.6125C41.8013 37.6125 43.8718 36.2054 43.8718 33.779C43.8718 31.4268 42.3636 30.5839 40.1654 30.3791L40.1668 30.3796ZM55.9021 24.7312C53.8846 24.7312 52.6137 25.1288 51.5001 26.5387C51.4849 26.5582 52.7074 27.7466 52.7074 27.7466C53.4484 26.6989 54.2662 26.3159 55.8762 26.3159C58.1766 26.3159 59.0968 27.2358 59.0968 29.0758V30.2769H55.3151C52.5036 30.2769 50.9704 31.7085 50.9704 33.9073C50.9409 34.8498 51.28 35.7667 51.916 36.4632C52.7085 37.2813 53.7306 37.6134 55.4684 37.6134C57.1553 37.6134 58.0756 37.2813 59.0988 36.2586V37.4597H60.9391V28.9227C60.9391 26.1881 59.2786 24.7317 55.9041 24.7317L55.9021 24.7312ZM59.098 33.0132C59.098 34.0615 58.8934 34.7772 58.4589 35.1858C57.6666 35.9527 56.7211 36.0301 55.6477 36.0301C53.6541 36.0301 52.7592 35.3398 52.7592 33.8828C52.7592 32.4259 53.6794 31.6596 55.5711 31.6596H59.098V33.0132ZM68.1455 26.3685C69.3466 26.3685 70.0873 26.7262 71.0335 27.7739C71.0335 27.7739 72.2656 26.5765 72.2554 26.5658C70.9651 25.1854 69.8698 24.7328 68.1466 24.7328C64.9772 24.7328 62.5744 26.8796 62.5744 31.1733C62.5744 35.467 64.9767 37.6142 68.1466 37.6142C69.8844 37.6142 70.9834 37.1538 72.287 35.7484L71.0346 34.547C70.089 35.595 69.3477 35.9783 68.1466 35.9783C66.9959 36.0242 65.9 35.4858 65.233 34.547C64.6451 33.7292 64.4152 32.758 64.4152 31.1733C64.4152 29.5885 64.6451 28.6174 65.233 27.7995C65.8997 26.8604 66.9959 26.322 68.1466 26.3685H68.1455ZM83.9064 24.8674H81.6122L75.9106 30.4171L75.9193 19.2617H74.0785V37.4597H75.919L75.9103 32.87L78.1423 30.6301L82.3603 37.4597H84.6348L79.4171 29.3547L83.9064 24.8674ZM92.4091 24.5578C90.5236 24.5578 89.2496 25.2926 88.4655 26.1253C87.3142 27.3256 87.0204 28.7707 87.0204 31.0733C87.0204 33.4002 87.3142 34.8444 88.4655 36.0458C89.2496 36.8786 90.523 37.6137 92.4091 37.6137C94.2952 37.6137 95.5937 36.8786 96.3772 36.0458C97.5285 34.8456 97.8226 33.4005 97.8226 31.0733C97.8226 28.771 97.5285 27.3256 96.3772 26.1253C95.5937 25.2926 94.2947 24.5578 92.4091 24.5578ZM93.9035 34.1842C93.5041 34.5698 92.9635 34.7735 92.4091 34.7471C91.862 34.7735 91.329 34.5695 90.9395 34.1842C90.2779 33.5229 90.2047 32.3963 90.2047 31.0733C90.2047 29.7504 90.2779 28.6486 90.9395 27.9872C91.329 27.602 91.862 27.3979 92.4091 27.4244C92.9635 27.3979 93.5044 27.6014 93.9035 27.9872C94.5645 28.6486 94.6383 29.7507 94.6383 31.0733C94.6383 32.396 94.5645 33.5217 93.9035 34.1842ZM106.302 24.7041L103.73 32.5911L101.134 24.7036H97.7773L102.481 37.4654H104.979L109.657 24.7036L106.302 24.7041ZM115.075 24.5572C111.768 24.5572 109.514 26.9085 109.514 31.0728C109.514 36.2414 112.405 37.6131 115.418 37.6131C117.72 37.6131 118.97 36.9025 120.268 35.604L118.333 33.7185C117.524 34.527 116.838 34.9187 115.442 34.9187C113.654 34.9187 112.65 33.7185 112.65 32.0763H120.635V30.6566C120.635 27.1537 118.626 24.5572 115.075 24.5572ZM112.65 29.897C112.655 29.4248 112.754 28.9582 112.944 28.5253C113.345 27.7154 114.171 27.2029 115.075 27.2029C115.979 27.2029 116.805 27.7154 117.206 28.5253C117.395 28.9582 117.495 29.4248 117.5 29.897H112.65ZM125.332 25.9289V24.7041H122.221V37.4659H125.405V29.7749C125.405 28.1581 126.483 27.423 127.463 27.423C128.109 27.4008 128.729 27.6774 129.143 28.1733L131.554 25.7575C130.672 24.8755 129.79 24.5572 128.541 24.5572C127.326 24.5429 126.162 25.0407 125.333 25.9289H125.332ZM132.542 23.3738V37.453H135.726V27.3909H138.078V24.9661H135.726V23.57C135.726 22.8352 136.094 22.4187 136.852 22.4187H138.077V19.7246H136.264C133.667 19.7246 132.541 21.5615 132.541 23.3738H132.542ZM151.186 24.5558C149.301 24.5558 148.027 25.2906 147.243 26.1234C146.092 27.3236 145.798 28.7688 145.798 31.0714C145.798 33.3982 146.092 34.8425 147.243 36.0439C148.027 36.8766 149.3 37.6117 151.186 37.6117C153.073 37.6117 154.371 36.8766 155.155 36.0439C156.306 34.8436 156.6 33.3985 156.6 31.0714C156.6 28.769 156.306 27.3236 155.155 26.1234C154.371 25.2906 153.072 24.5558 151.186 24.5558ZM152.681 34.1822C152.281 34.5678 151.741 34.7716 151.186 34.7451C150.639 34.7716 150.106 34.5675 149.717 34.1822C149.055 33.5209 148.982 32.3944 148.982 31.0714C148.982 29.7484 149.055 28.6466 149.717 27.9853C150.106 27.6 150.639 27.396 151.186 27.4224C151.741 27.396 152.282 27.5994 152.681 27.9853C153.342 28.6466 153.416 29.7487 153.416 31.0714C153.416 32.3941 153.342 33.5198 152.681 34.1822ZM171.644 24.7027L169.587 32.5911L166.966 24.7041H164.639L162.042 32.5911L159.985 24.7036H156.605L160.524 37.4654H163.145L165.815 29.456L168.484 37.4654H171.105L175 24.7036L171.644 24.7027ZM142.774 33.6202V19.7246H139.591V33.8161C139.591 35.6288 140.694 37.4659 143.314 37.4659H145.127V34.7713H143.902C143.094 34.7713 142.777 34.3795 142.777 33.6202H142.774ZM48.9754 26.8629L50.6769 25.1615H47.1928V21.0245H45.3526V34.086C45.3526 35.9516 46.426 37.4597 48.573 37.4597H49.876V35.875H48.905C47.7295 35.875 47.1928 35.1847 47.1928 34.0348V26.8629H48.9754Z" fill="#8A9BB7"/>
<path fill-rule="evenodd" clip-rule="evenodd" d="M24.7654 31.299H27.8611V43.6817H0V31.299H3.09567V40.586H24.7654V31.299Z" fill="#8A9BB7"/>
<path d="M6.4686 30.3761L21.6726 33.5717L22.3117 30.5323L7.10772 27.3353L6.4686 30.3761ZM8.48051 23.0959L22.5647 29.6554L23.8767 26.8386L9.79223 20.2792L8.48051 23.0959ZM12.3777 16.1861L24.318 26.1291L26.3065 23.7413L14.3662 13.7985L12.3777 16.1861ZM20.0851 8.83643L17.5916 10.691L26.864 23.1581L29.3575 21.3038L20.0851 8.83643ZM6.19055 37.4877H21.6689V34.3921H6.19055V37.4877Z" fill="#8A9BB7"/>
</g>
<defs>
<clipPath id="clip0">
<rect width="175" height="56" fill="white"/>
</clipPath>
</defs>
</svg>
