<svg width="44" height="38" viewBox="0 0 44 38" fill="none" xmlns="http://www.w3.org/2000/svg">
<g opacity="0.8">
<path opacity="0.8" d="M37.6551 9.86038C35.9172 3.86585 42.1669 0.75393 43.8714 0.0332748C40.5627 -0.0649963 37.9893 0.0987888 35.6833 0.819444C31.2383 2.03145 28.3307 5.01234 23.4847 11.8586L26.0915 20.4737L31.8065 14.5774L34.0122 22.0132L19.0063 37.4746C36.4854 37.4746 42.6014 29.3508 40.9303 22.5701L37.6551 9.86038Z" fill="#FF5300"/>
<path d="M21.0783 25.6488L18.4715 17.0337L12.7566 22.9299L10.5508 15.4941L25.5567 0C8.07765 0 1.96166 8.12374 3.6327 14.9045L6.94135 27.6469C8.67922 33.6415 2.42955 36.7534 0.725098 37.474C4.03375 37.5723 6.60714 37.4085 8.91317 36.6879C13.3247 35.4759 16.2323 32.495 21.0783 25.6488Z" fill="#FF5300"/>
</g>
</svg>
